<?xml version="1.0" encoding="UTF-8"?>
<svg version="1.1" xmlns="http://www.w3.org/2000/svg" width="512" height="512">
<path d="M0 0 C3.11853296 0.02160363 6.23480504 0.00004428 9.35327148 -0.02539062 C11.34090676 -0.02275017 13.32854064 -0.01763104 15.31616211 -0.00976562 C16.7099131 -0.02191101 16.7099131 -0.02191101 18.13182068 -0.03430176 C18.99694778 -0.02169312 19.86207489 -0.00908447 20.75341797 0.00390625 C21.88945717 0.00867981 21.88945717 0.00867981 23.04844666 0.0135498 C26.10615191 0.74775373 27.21547358 2.0755235 29.16381836 4.52148438 C29.61791992 7.54589844 29.61791992 7.54589844 29.55444336 11.03710938 C29.54155273 12.2875 29.52866211 13.53789063 29.51538086 14.82617188 C29.48186523 16.128125 29.44834961 17.43007812 29.41381836 18.77148438 C29.39577148 20.08890625 29.37772461 21.40632813 29.35913086 22.76367188 C29.31198107 26.01700745 29.2461788 29.26888062 29.16381836 32.52148438 C29.79709038 32.51996549 30.43036239 32.51844661 31.08282447 32.5168817 C68.59327268 32.42742164 106.10370514 32.35876461 143.61423813 32.31722306 C148.11546557 32.31222007 152.6166928 32.3070428 157.11791992 32.30175781 C158.01405511 32.30070857 158.9101903 32.29965933 159.8334811 32.29857829 C174.35463082 32.28116029 188.87571737 32.24961493 203.39682958 32.21287319 C218.29040839 32.17550256 233.18395405 32.15325675 248.07757783 32.1451304 C257.27205796 32.13963456 266.46635956 32.12225984 275.66078475 32.08981851 C281.96079319 32.06871845 288.26070898 32.06227407 294.56075022 32.06747887 C298.19874701 32.07004772 301.83643126 32.06603597 305.47437286 32.04466248 C309.41424556 32.02168348 313.35370756 32.02950523 317.29364014 32.04046631 C318.44927326 32.02881494 319.60490638 32.01716358 320.79555869 32.00515914 C321.84854156 32.01312333 322.90152442 32.02108753 323.98641586 32.02929306 C325.35113073 32.02701474 325.35113073 32.02701474 326.74341559 32.02469039 C330.0048718 32.69411279 331.18017518 33.8819206 333.16381836 36.52148438 C333.66521502 38.80904388 333.66521502 38.80904388 333.66718292 41.37536621 C333.67761391 42.35621437 333.6880449 43.33706253 333.69879198 44.34763336 C333.68986909 45.42271904 333.68094621 46.49780472 333.67175293 47.60546875 C333.68111287 49.3214539 333.68111287 49.3214539 333.69066191 51.07210541 C333.7038702 54.24799453 333.69909808 57.42327374 333.68671703 60.5991478 C333.67767896 64.02389551 333.69163004 67.4485598 333.70263672 70.87329102 C333.72043993 77.58250239 333.71657401 84.29153496 333.70498616 91.0007534 C333.69595916 96.45258428 333.69472464 101.90436497 333.69908142 107.35620117 C333.69969435 108.13160547 333.70030729 108.90700976 333.70093879 109.70591116 C333.70221767 111.28104211 333.70351452 112.85617305 333.70482916 114.43130398 C333.71624023 129.20753418 333.70311301 143.98366518 333.68162769 158.75987911 C333.66375621 171.44348472 333.66686017 184.12694391 333.68530273 196.81054688 C333.70670017 211.53325055 333.71514154 226.25586724 333.70285368 240.97858429 C333.70157946 242.54797871 333.70032198 244.11737314 333.69908142 245.68676758 C333.69815577 246.84507969 333.69815577 246.84507969 333.69721141 248.02679205 C333.69375512 253.47320484 333.69959285 258.91956254 333.70899963 264.3659668 C333.72020851 271.00173928 333.71720317 277.63732245 333.69587666 284.2730732 C333.68535105 287.65994818 333.68126965 291.04650735 333.69447327 294.43338013 C333.70534765 298.10173862 333.6917619 301.76919926 333.67175293 305.4375 C333.68513726 307.05012852 333.68513726 307.05012852 333.69879198 308.69533539 C333.62248967 315.870204 333.62248967 315.870204 331.29026413 319.18179703 C328.61310823 320.86843862 326.91060989 321.0378695 323.75268555 321.06738281 C322.67186707 321.08710144 321.59104858 321.10682007 320.47747803 321.12713623 C319.31693909 321.12836487 318.15640015 321.12959351 316.96069336 321.13085938 C315.76776672 321.14739563 314.57484009 321.16393188 313.34576416 321.18096924 C309.53506376 321.22955968 305.72476276 321.25084576 301.91381836 321.27148438 C299.33046481 321.29963465 296.74712996 321.32956073 294.16381836 321.36132812 C287.8305578 321.43532185 281.49741008 321.48689964 275.16381836 321.52148438 C275.61625412 321.96281708 276.06868988 322.40414978 276.53483582 322.8588562 C281.27103505 327.48383695 285.98906151 332.12680061 290.69726562 336.78027344 C292.45314907 338.51112129 294.21350799 340.23744175 295.97851562 341.95898438 C298.52505512 344.44439542 301.05467953 346.94602338 303.58178711 349.45117188 C304.36531052 350.20888885 305.14883392 350.96660583 305.95610046 351.74728394 C311.87333839 357.66150362 316.32173282 363.84543291 317.82788086 372.20898438 C317.736315 379.97376916 316.98014107 386.22321621 312.16381836 392.52148438 C306.36393363 398.13427605 300.5847023 400.80462544 292.47631836 400.95898438 C291.33807617 400.99894531 290.19983398 401.03890625 289.02709961 401.08007812 C276.88750791 399.32480855 269.16459902 390.30714837 260.91381836 382.04101562 C259.5657706 380.70397502 258.21721006 379.36745124 256.86816406 378.03141785 C254.0559097 375.23997772 251.25354882 372.43903646 248.45727539 369.6315918 C244.8836694 366.04626907 241.28125275 362.49152389 237.67019653 358.94397449 C234.88176978 356.19623073 232.11205977 353.43019432 229.34729004 350.65866661 C228.02675914 349.34033268 226.69992121 348.02828336 225.36657715 346.72290993 C212.77575501 334.36637848 212.77575501 334.36637848 212.34521484 326.46806335 C212.31660591 324.21428084 212.31660591 324.21428084 210.03881836 321.89648438 C209.42006836 321.44273437 208.80131836 320.98898437 208.16381836 320.52148438 C204.52953999 321.87734977 201.13092597 323.54233422 197.69580078 325.33935547 C173.98011388 337.67732547 144.95881051 341.11691176 119.15014648 333.17626953 C105.52510478 328.68482879 105.52510478 328.68482879 100.24506187 325.28656101 C94.07908427 321.37759152 89.14314336 320.81893886 81.94360352 320.92553711 C80.31490578 320.91944931 80.31490578 320.91944931 78.65330505 320.91323853 C76.30931205 320.90774258 73.96526971 320.91366939 71.62132645 320.92989922 C67.90388866 320.95541439 64.18755461 320.95048847 60.47006226 320.93800354 C53.24561821 320.91905313 46.02144914 320.93288364 38.79703522 320.95347595 C28.98246829 320.98039674 19.16816242 320.98648256 9.3535881 320.95848274 C5.70475639 320.95513715 2.05661737 320.97629299 -1.59213257 320.99888611 C-3.84714912 320.99637308 -6.10216483 320.9928113 -8.35717773 320.98803711 C-9.36012375 321.0009227 -10.36306976 321.01380829 -11.39640808 321.02708435 C-22.58192257 320.94859076 -31.73857163 317.251717 -39.83618164 309.52148438 C-48.38080617 300.57077868 -51.4570276 290.68066072 -51.34411621 278.47802734 C-51.35035617 277.42283339 -51.35659614 276.36763943 -51.36302519 275.28046989 C-51.37887176 271.77463747 -51.36638322 268.2695084 -51.35375977 264.76367188 C-51.35918456 262.23805336 -51.36630922 259.712438 -51.375 257.18682861 C-51.3913072 251.05706582 -51.38897413 244.92755985 -51.37734944 238.79779387 C-51.36828995 233.81291315 -51.36710194 228.82808728 -51.3714447 223.84320068 C-51.37205763 223.13182382 -51.37267057 222.42044697 -51.37330207 221.68751323 C-51.37458106 220.24204714 -51.37587792 218.79658105 -51.37719244 217.35111499 C-51.38857942 203.81932882 -51.37551417 190.28765132 -51.35399097 176.75588298 C-51.33612167 165.16272177 -51.33922631 153.56972082 -51.35766602 141.9765625 C-51.37910608 128.49087705 -51.38748096 115.00528667 -51.37521696 101.51958656 C-51.37394286 100.07964708 -51.37268537 98.63970758 -51.3714447 97.19976807 C-51.3708276 96.49142032 -51.3702105 95.78307256 -51.3695747 95.05325973 C-51.36613118 90.07843154 -51.3719285 85.10366401 -51.38136292 80.12884521 C-51.39379873 73.42444764 -51.38485609 66.72039802 -51.36178589 60.0160141 C-51.35651031 57.55986786 -51.35799275 55.1036961 -51.36683655 52.64756012 C-51.37782069 49.28634783 -51.36399262 45.92609323 -51.34411621 42.56494141 C-51.3530391 41.60062132 -51.36196198 40.63630123 -51.37115526 39.64275932 C-51.2452727 28.61449086 -47.44684268 19.49384019 -39.83618164 11.52148438 C-28.06448604 0.28385436 -15.49455383 -0.12820699 0 0 Z M-27.83618164 23.52148438 C-34.21456621 30.93595172 -35.14737811 40.00753935 -35.07669067 49.46229553 C-35.07839952 50.31528069 -35.08010837 51.16826586 -35.08186901 52.04709905 C-35.08513989 54.87987596 -35.07420012 57.71241126 -35.06323242 60.54516602 C-35.06266779 62.58587641 -35.06298589 64.62658721 -35.06411743 66.66729736 C-35.06468991 72.18935143 -35.05295259 77.71131813 -35.03896952 83.23335195 C-35.02644464 89.01090502 -35.02529027 94.78846022 -35.0229187 100.56602478 C-35.0167091 111.49865342 -35.0003053 122.43124193 -34.98021972 133.36385292 C-34.95784456 145.81363777 -34.94686322 158.26342457 -34.93682885 170.71322453 C-34.91593863 196.31600003 -34.88077274 221.91873995 -34.83618164 247.52148438 C-34.08852539 247.17214844 -33.34086914 246.8228125 -32.57055664 246.46289062 C-31.58571289 246.00785156 -30.60086914 245.5528125 -29.58618164 245.08398438 C-28.61165039 244.63152344 -27.63711914 244.1790625 -26.63305664 243.71289062 C-13.9701865 238.31879091 -1.32082619 240.960413 13.16381836 240.52148438 C13.16381836 166.60148437 13.16381836 92.68148437 13.16381836 16.52148438 C-8.69559888 15.11997882 -8.69559888 15.11997882 -27.83618164 23.52148438 Z M29.16381836 48.52148438 C29.16381836 53.80148438 29.16381836 59.08148438 29.16381836 64.52148438 C30.54225324 64.52387273 31.92068811 64.52626108 33.34089375 64.52872181 C66.03913677 64.58604285 98.73730673 64.65874565 131.43547081 64.75047066 C135.45730575 64.76173924 139.47914104 64.77287763 143.50097656 64.78393555 C144.30167439 64.78613923 145.10237222 64.78834291 145.92733362 64.79061338 C158.90361539 64.82601601 171.87989711 64.85086338 184.85620932 64.87183139 C198.1644186 64.89356986 211.47256504 64.92660158 224.78072089 64.97018594 C232.99704215 64.99673645 241.21328506 65.01440673 249.42964711 65.02083042 C255.05875468 65.02607394 260.68776355 65.04225585 266.31681827 65.06715003 C269.56780187 65.08120085 272.81857259 65.0887051 276.06959152 65.08649254 C279.58951664 65.08485268 283.10888879 65.10142899 286.6287384 65.12275696 C287.66277402 65.11790938 288.69680964 65.11306181 289.76217967 65.10806733 C291.17146441 65.12225215 291.17146441 65.12225215 292.60921955 65.13672352 C293.42220078 65.13862212 294.23518201 65.14052072 295.07279903 65.14247686 C297.7157123 65.62151786 298.59761374 66.36061827 300.16381836 68.52148438 C300.45879704 71.43914306 300.56831294 74.14343553 300.54476929 77.06225586 C300.54944926 77.94474975 300.55412923 78.82724363 300.55895102 79.73647976 C300.57095503 82.7053303 300.5614227 85.67372384 300.55200195 88.64257812 C300.55606525 90.76620759 300.56140576 92.88983493 300.56793213 95.01345825 C300.58164026 100.79020977 300.57629263 106.56680104 300.56679487 112.34355545 C300.55921638 118.38000175 300.56623884 124.41643404 300.57095337 130.45288086 C300.57641621 140.59133374 300.56920545 150.72972112 300.55493164 160.86816406 C300.53860416 172.60102938 300.54389229 184.33373832 300.56041086 196.06659985 C300.57401067 206.12778407 300.57595275 216.18892114 300.56809485 226.25011158 C300.56341005 232.26465736 300.5628156 238.27912956 300.57270432 244.29367065 C300.58134981 249.94729838 300.57539633 255.60072387 300.55802155 261.25432968 C300.55404376 263.3332676 300.55521269 265.41222245 300.56180954 267.49115372 C300.56996415 270.3212391 300.55977735 273.15066964 300.54476929 275.98071289 C300.55146145 276.81037284 300.55815362 277.64003279 300.56504858 278.49483395 C300.5071927 284.08971189 300.5071927 284.08971189 298.80513537 286.22994614 C296.3629546 288.15167718 294.39135094 287.92161506 291.31542969 287.95385742 C289.5139019 287.98354866 289.5139019 287.98354866 287.67597961 288.01383972 C286.37903671 288.02022964 285.08209381 288.02661957 283.74584961 288.03320312 C282.4049057 288.05004896 281.0639776 288.06819909 279.72306824 288.08760071 C276.19679705 288.13511795 272.67058992 288.16491571 269.144104 288.19104004 C265.54442696 288.22083718 261.94497068 288.26737031 258.34545898 288.3125 C251.28503843 288.39855231 244.22454972 288.46588882 237.16381836 288.52148438 C236.80165084 292.38361379 236.80165084 292.38361379 238.53881836 294.64648438 C241.82663055 296.99492165 244.55999001 297.25277378 248.53100586 297.63867188 C251.16381836 298.52148438 251.16381836 298.52148438 257.16381836 304.52148438 C276.96381836 304.52148438 296.76381836 304.52148438 317.16381836 304.52148438 C317.16381836 220.04148437 317.16381836 135.56148437 317.16381836 48.52148438 C222.12381836 48.52148438 127.08381836 48.52148438 29.16381836 48.52148438 Z M29.16381836 80.52148438 C29.14923584 85.71616455 29.13465332 90.91084473 29.11962891 96.26293945 C29.06938335 113.39005149 29.00295804 130.51707218 28.92810345 147.64409351 C28.88309896 158.03233134 28.84369511 168.42053452 28.81738281 178.80883789 C28.79444034 187.86114071 28.76108454 196.91333433 28.7151168 205.9655506 C28.69113383 210.76058217 28.67243838 215.55550525 28.66620445 220.35059547 C28.66017645 224.8608948 28.64025999 229.37091636 28.60954285 233.88111305 C28.6007258 235.53915481 28.59704758 237.19723282 28.5988102 238.85529709 C28.60045378 241.11416766 28.58384357 243.37218217 28.56254578 245.63093567 C28.55563233 247.52936832 28.55563233 247.52936832 28.54857922 249.46615314 C28.16381836 252.52148438 28.16381836 252.52148438 26.86077595 254.42809582 C23.92865403 256.31732898 20.58499362 255.94128596 17.20678711 255.92773438 C16.42620438 255.93857056 15.64562164 255.94940674 14.84138489 255.96057129 C12.34461212 255.99484943 9.84829548 256.01042197 7.35131836 256.02148438 C4.07353864 256.03609888 0.79677014 256.06990248 -2.48071289 256.11523438 C-3.22779007 256.11221313 -3.97486725 256.10919189 -4.74458313 256.1060791 C-9.50202886 256.17377148 -12.80204548 256.98119988 -16.83618164 259.52148438 C-18.25659985 262.36232079 -18.15070436 264.37625715 -17.83618164 267.52148438 C-15.60411733 270.36929056 -14.28625166 271.37146104 -10.83618164 272.52148438 C-8.79651683 272.61059611 -6.75400878 272.63908483 -4.71240234 272.63500977 C-3.45132156 272.63493423 -2.19024078 272.6348587 -0.89094543 272.63478088 C0.48538248 272.62967426 1.86170999 272.62445827 3.23803711 272.61914062 C4.64622447 272.61727524 6.05441247 272.6158519 7.46260071 272.61485291 C11.16649166 272.61103725 14.87034331 272.60121509 18.57421875 272.59014893 C22.35473092 272.57991435 26.13524945 272.5753509 29.91577148 272.5703125 C37.33180501 272.55959197 44.74780618 272.54252697 52.16381836 272.52148438 C51.96651627 271.80586838 51.76921417 271.09025238 51.56593323 270.35295105 C48.08560938 257.67216254 45.61867342 245.92795342 45.72631836 232.70898438 C45.7338916 231.39599365 45.74146484 230.08300293 45.74926758 228.73022461 C45.91772205 218.78095949 46.9493706 209.92449512 50.16381836 200.52148438 C50.37280762 199.89322754 50.58179688 199.2649707 50.79711914 198.61767578 C56.11458842 182.95205279 64.60053273 170.22708736 76.16381836 158.52148438 C77.0184668 157.55855469 77.0184668 157.55855469 77.89038086 156.57617188 C87.54622825 145.92998116 101.05295798 139.73031378 114.16381836 134.52148438 C115.62948242 133.93367188 115.62948242 133.93367188 117.12475586 133.33398438 C117.79764648 133.06585938 118.47053711 132.79773438 119.16381836 132.52148438 C118.42131836 131.94398438 117.67881836 131.36648437 116.91381836 130.77148438 C115.55256836 129.65773438 115.55256836 129.65773438 114.16381836 128.52148438 C113.44194336 127.94398438 112.72006836 127.36648437 111.97631836 126.77148438 C102.08971706 114.49846207 104.75471699 96.06687617 102.16381836 80.52148438 C78.07381836 80.52148438 53.98381836 80.52148438 29.16381836 80.52148438 Z M119.16381836 80.52148438 C120.15381836 87.45148438 121.14381836 94.38148438 122.16381836 101.52148438 C123.03881836 108.52148438 123.03881836 108.52148438 123.34350586 111.14648438 C125.79457064 118.24290049 135.5365494 124.08783157 141.93823242 127.58642578 C147.88772259 130.08604703 154.56441903 129.48439176 160.90063477 129.46875 C186.23979943 130.05917714 210.28336134 145.51811054 227.20678711 163.19726562 C247.61719659 185.48434139 253.1193216 213.72046807 252.3605957 243.05273438 C251.94004343 250.46614225 250.20123363 257.41283839 248.16381836 264.52148438 C247.17381836 268.48148437 247.17381836 268.48148437 246.16381836 272.52148438 C259.03381836 272.52148438 271.90381836 272.52148438 285.16381836 272.52148438 C285.16381836 235.23148438 285.16381836 197.94148438 285.16381836 159.52148438 C275.92381836 157.54148437 266.68381836 155.56148438 257.16381836 153.52148438 C247.99703863 150.77145046 246.06654376 150.01806003 240.83178711 143.40820312 C236.27212646 138.30981661 232.68608248 135.7088706 225.77859497 135.1098938 C221.32897442 134.99320532 216.92088856 135.11867231 212.47631836 135.33398438 C209.74804637 135.4050394 207.02046521 135.45621378 204.29154968 135.49479675 C202.60820629 135.52498835 200.92507475 135.57734694 199.24324036 135.65473938 C193.56625227 135.845573 193.56625227 135.845573 191.48062134 134.16596985 C189.41210796 131.58271309 189.29845654 129.84567071 189.16381836 126.52148438 C189.83342871 122.89838077 190.86182194 119.40272502 191.90991211 115.87304688 C192.29475769 114.52569458 192.29475769 114.52569458 192.68737793 113.15112305 C193.6450135 109.81229007 194.62445517 106.47974252 195.60131836 103.14648438 C197.76694336 95.68023437 199.93256836 88.21398437 202.16381836 80.52148438 C174.77381836 80.52148438 147.38381836 80.52148438 119.16381836 80.52148438 Z M219.16381836 80.52148438 C215.53381836 93.72148437 211.90381836 106.92148438 208.16381836 120.52148438 C218.66387697 120.573388 218.66387697 120.573388 229.16381836 120.54907227 C241.1645275 120.65100223 241.1645275 120.65100223 245.99194336 124.81445312 C247.74780273 126.72827148 247.74780273 126.72827148 249.16381836 128.52148438 C249.85991211 129.28976563 250.55600586 130.05804688 251.27319336 130.84960938 C251.81459961 131.48382813 252.35600586 132.11804688 252.91381836 132.77148438 C257.81760988 137.70378631 262.35063088 138.27676743 269.16381836 139.52148438 C274.44381836 140.51148438 279.72381836 141.50148437 285.16381836 142.52148438 C285.16381836 122.06148437 285.16381836 101.60148437 285.16381836 80.52148438 C263.38381836 80.52148438 241.60381836 80.52148438 219.16381836 80.52148438 Z M89.16381836 168.52148438 C88.53217773 169.07191406 87.90053711 169.62234375 87.24975586 170.18945312 C73.35669322 183.03577817 63.1355547 203.75002963 61.97290039 222.62011719 C61.59522256 233.46150818 61.39213469 243.97799971 64.16381836 254.52148438 C67.21087344 254.84198283 67.21087344 254.84198283 69.14788818 252.86453247 C69.90176819 252.08890961 70.65564819 251.31328674 71.43237305 250.51416016 C72.2904657 249.63970245 73.14855835 248.76524475 74.03265381 247.86428833 C74.48904991 247.3922913 74.94544601 246.92029427 75.4156723 246.43399429 C76.84669819 244.95542644 78.28770414 243.4873043 79.73199463 242.021698 C83.83679287 237.85270251 87.92327793 233.66597361 92.00170898 229.47119141 C94.49726467 226.90588543 97.00508031 224.35308539 99.52048492 221.80724716 C100.47417885 220.8368383 101.42303669 219.86165085 102.36678314 218.88156509 C111.97894148 208.90115932 111.97894148 208.90115932 118.16381836 208.52148438 C124.54778858 210.33291545 128.97694291 215.95866392 133.49975586 220.56445312 C134.37910797 221.44805008 135.25846008 222.33164703 136.16445923 223.24201965 C138.48787035 225.57933823 140.80462614 227.92299476 143.11828613 230.2699585 C145.48602246 232.66851996 147.86239732 235.05848955 150.23803711 237.44921875 C154.88792837 242.13213297 159.52914273 246.82351337 164.16381836 251.52148438 C168.03176973 249.72882656 170.38196674 247.46216546 173.33959961 244.36523438 C174.34241276 243.33225296 175.34568241 242.29971456 176.34936523 241.26757812 C177.91470721 239.64656756 179.47581724 238.02201127 181.02880859 236.38916016 C182.53771666 234.80725971 184.06226431 233.24182293 185.58959961 231.67773438 C186.49105713 230.73736328 187.39251465 229.79699219 188.32128906 228.828125 C191.64691695 226.12946208 193.92265292 225.11104894 198.16381836 224.52148438 C203.54814531 226.25891199 207.01794678 229.97994676 210.87475586 233.93945312 C211.48775543 234.55669754 212.100755 235.17394196 212.73233032 235.80989075 C214.67502627 237.76928462 216.60698779 239.73888306 218.53881836 241.70898438 C219.859736 243.04496028 221.18134365 244.38025433 222.50366211 245.71484375 C225.73175358 248.97588654 228.95026355 252.24611825 232.16381836 255.52148438 C232.82381836 255.19148438 233.48381836 254.86148438 234.16381836 254.52148438 C240.444453 232.8410018 236.43039853 208.90574219 225.74853516 189.39282227 C222.16978671 183.20532161 218.01325322 177.78555494 213.16381836 172.52148438 C212.61467773 171.89242187 212.06553711 171.26335937 211.49975586 170.61523438 C196.54827686 154.41166107 173.48607636 145.47553128 151.78491211 144.49023438 C128.10143687 144.69462251 106.75076144 152.54132181 89.16381836 168.52148438 Z M114.25289917 231.19189453 C113.47568512 231.9735498 112.69847107 232.75520508 111.89770508 233.56054688 C110.57656204 234.8819165 110.57656204 234.8819165 109.22872925 236.22998047 C108.26688137 237.20204283 107.30514283 238.17421338 106.34350586 239.14648438 C105.36030943 240.13340978 104.37667134 241.11989538 103.39260864 242.10595703 C100.80055489 244.70565638 98.21456227 247.31130542 95.62976074 249.91821289 C92.99238431 252.57602783 90.34935513 255.22820798 87.70678711 257.88085938 C82.52022917 263.08888356 77.3400576 268.3032022 72.16381836 273.52148438 C72.95108167 274.96084424 73.74108217 276.39870721 74.53222656 277.8359375 C74.97186234 278.63680786 75.41149811 279.43767822 75.86445618 280.26281738 C87.02758076 299.66755408 107.89900862 312.29083019 128.91381836 318.39648438 C152.31476022 323.191524 177.03952943 319.28023588 197.11157227 306.2578125 C209.23577308 297.80009065 218.70553001 287.28948132 226.16381836 274.52148438 C220.77740912 267.96771341 214.80496709 262.04901802 208.78881836 256.08398438 C207.75603241 255.05622454 206.72347845 254.02823152 205.69116211 253 C203.18471549 250.5044684 200.67514756 248.01210356 198.16381836 245.52148438 C194.90515476 246.94794218 192.76133296 248.68852599 190.27319336 251.21679688 C189.56420898 251.93222656 188.85522461 252.64765625 188.12475586 253.38476562 C187.39514648 254.13113281 186.66553711 254.8775 185.91381836 255.64648438 C185.16874023 256.40058594 184.42366211 257.1546875 183.65600586 257.93164062 C181.82068416 259.79049209 179.99019926 261.65385442 178.16381836 263.52148438 C179.64257374 266.64773111 181.07172412 268.53295156 183.66381836 270.83398438 C187.04593885 274.13137533 188.54175012 276.72267224 189.16381836 281.52148438 C188.41381836 284.39648438 188.41381836 284.39648438 187.16381836 286.52148438 C183.85465773 288.17606469 180.71530986 288.26331384 177.16381836 287.52148438 C170.33736922 283.0074678 164.68491841 276.14975695 158.93411636 270.33638191 C157.26389238 268.64855715 155.58996829 266.96448131 153.91500854 265.28135681 C149.15962155 260.50167822 144.41014973 255.71615185 139.66479492 250.92651367 C136.74852017 247.98353791 133.82745752 245.04538642 130.90334702 242.11019707 C129.79223608 240.99286878 128.68302744 239.87364549 127.57574844 238.75251961 C126.03683239 237.19449729 124.49195547 235.64263132 122.94555664 234.09204102 C122.06811798 233.20714493 121.19067932 232.32224884 120.28665161 231.41053772 C117.56215424 228.98607933 117.00696489 228.78445659 114.25289917 231.19189453 Z M-33.83618164 274.52148438 C-34.28511492 282.00370566 -34.57386712 288.38492797 -29.83618164 294.52148438 C-23.02775113 301.69947479 -16.83008303 304.33716135 -6.9256897 304.64173889 C-5.43182481 304.64461086 -3.9379429 304.64204063 -2.4440918 304.63500977 C-1.62391571 304.63515579 -0.80373962 304.63530182 0.04129028 304.63545227 C2.73580628 304.63475899 5.43025202 304.6269941 8.12475586 304.61914062 C9.99948082 304.61727437 11.87420626 304.61585144 13.74893188 304.61485291 C18.67097329 304.6110441 23.59298495 304.60122783 28.51501465 304.59014893 C33.54247638 304.57989957 38.56994293 304.57534774 43.59741211 304.5703125 C53.45289389 304.55960405 63.30835365 304.54254735 73.16381836 304.52148438 C72.80030273 304.03679687 72.43678711 303.55210937 72.06225586 303.05273438 C71.3081543 302.04726563 71.3081543 302.04726563 70.53881836 301.02148438 C69.69270493 299.93701019 69.69270493 299.93701019 68.82949829 298.83062744 C67.16381836 296.52148438 67.16381836 296.52148438 66.04769897 294.23919678 C64.65291297 291.63665815 63.5914251 290.23411794 61.16381836 288.52148438 C55.30474333 287.36584227 49.52709752 287.54755796 43.57788086 287.66210938 C41.83442323 287.66474999 40.09095498 287.66328175 38.34750366 287.65789795 C33.76329366 287.65212629 29.18062988 287.69052744 24.59674072 287.74176025 C17.26843828 287.81933624 9.94025275 287.84321328 2.61158371 287.84166718 C0.06085595 287.84947026 -2.48847158 287.88426935 -5.03890991 287.92193604 C-13.92306548 287.99217526 -20.94169819 288.0002202 -27.85961914 281.66992188 C-28.30563477 281.0846875 -28.75165039 280.49945313 -29.21118164 279.89648438 C-29.67266602 279.30609375 -30.13415039 278.71570313 -30.60961914 278.10742188 C-31.01438477 277.5840625 -31.41915039 277.06070312 -31.83618164 276.52148438 C-32.49618164 275.86148437 -33.15618164 275.20148438 -33.83618164 274.52148438 Z M224.16381836 304.52148438 C222.67881836 306.50148438 222.67881836 306.50148438 221.16381836 308.52148438 C222.15381836 309.51148438 223.14381836 310.50148438 224.16381836 311.52148438 C225.48381836 310.86148437 226.80381836 310.20148438 228.16381836 309.52148438 C226.85486116 306.3995096 226.85486116 306.3995096 224.16381836 304.52148438 Z M241.78100586 319.70898438 C240.42362305 321.10117187 240.42362305 321.10117187 239.03881836 322.52148438 C238.12874023 323.44960938 237.21866211 324.37773437 236.28100586 325.33398438 C235.58233398 326.05585938 234.88366211 326.77773438 234.16381836 327.52148438 C235.74940404 331.33671513 238.1650331 333.81353143 241.03735352 336.74902344 C241.5319809 337.25679321 242.02660828 337.76456299 242.53622437 338.28771973 C244.16924676 339.96004943 245.81011064 341.62435691 247.45288086 343.28710938 C248.01475475 343.85713432 248.57662865 344.42715927 249.15552902 345.0144577 C252.12838396 348.0289597 255.1076975 351.03691234 258.09204102 354.04003906 C261.16917014 357.13932336 264.22223495 360.26123605 267.27051735 363.3888588 C269.62330501 365.79396845 271.99372367 368.18110385 274.3692131 370.56377411 C275.50264627 371.70693687 276.62932525 372.8568386 277.74892044 374.01355743 C279.31893234 375.63235656 280.91243607 377.22393221 282.51391602 378.81152344 C283.41389313 379.72323303 284.31387024 380.63494263 285.24111938 381.57427979 C289.2535852 384.24752528 291.40888097 384.00674203 296.16381836 383.52148438 C298.83048503 382.18815104 298.83048503 382.18815104 300.16381836 379.52148438 C300.67762817 374.67271914 300.88638651 372.59015113 298.12722778 368.50939941 C297.18483817 367.53802128 296.22025268 366.58785357 295.23852539 365.65625 C294.71504517 365.12838898 294.19156494 364.60052795 293.65222168 364.05667114 C291.92728166 362.32712969 290.17559709 360.62779117 288.42163086 358.92773438 C287.21412974 357.73008496 286.00824918 356.53079963 284.80392456 355.32995605 C282.28191268 352.82319663 279.74757703 350.32990518 277.20239258 347.84667969 C273.93436399 344.65805541 270.68848021 341.44802782 267.45025826 338.22916412 C264.36441311 335.16322255 261.26871613 332.10731505 258.17163086 329.05273438 C257.57902592 328.46692093 256.98642097 327.88110748 256.37585831 327.27754211 C254.70522623 325.62997177 253.02785419 323.98962018 251.34790039 322.3515625 C250.85015106 321.85919098 250.35240173 321.36681946 249.83956909 320.85952759 C246.02081654 316.91567659 246.02081654 316.91567659 241.78100586 319.70898438 Z " fill="#000000" transform="translate(114.836181640625,55.478515625)"/>
<path d="M0 0 C5.82485779 3.51996782 10.54466582 8.98962934 12.5625 15.5 C13.36764105 23.33608208 13.68710392 31.11922577 8.5625 37.5 C3.75801361 42.54521222 -0.59927055 46.10562995 -7.70703125 46.8359375 C-16.22326573 46.92983204 -22.11345494 46.6177288 -28.40234375 40.62890625 C-34.7841668 33.72505269 -35.91792252 28.29832071 -35.7421875 18.9453125 C-35.04689797 11.08319245 -31.38995981 6.95041296 -25.53515625 1.9453125 C-18.47077988 -2.92213491 -7.84396301 -3.47595223 0 0 Z M-16.8125 17.125 C-18.92456506 20.21186432 -19.04945145 21.8282913 -18.4375 25.5 C-16.9375 28 -16.9375 28 -14.4375 29.5 C-10.7657913 30.11195145 -9.14936432 29.98706506 -6.0625 27.875 C-3.95043494 24.78813568 -3.82554855 23.1717087 -4.4375 19.5 C-5.9375 17 -5.9375 17 -8.4375 15.5 C-12.1092087 14.88804855 -13.72563568 15.01293494 -16.8125 17.125 Z " fill="#000000" transform="translate(291.4375,225.5)"/>
</svg>
