<?xml version="1.0" encoding="UTF-8"?>
<svg version="1.1" xmlns="http://www.w3.org/2000/svg" width="512" height="512">
<path d="M0 0 C5.4010905 5.87999977 8.21459554 14.58217475 11.5 21.75 C12.11731711 23.08617853 12.73516549 24.42211172 13.35351562 25.7578125 C14.62246475 28.50072888 15.88861271 31.24491007 17.15234375 33.99023438 C19.91986332 40.00046773 22.71150143 45.99947687 25.5 52 C26.57424566 54.31509168 27.64846422 56.63019593 28.72265625 58.9453125 C33.87581068 70.04417621 39.05605507 81.13040758 44.23388672 92.21777344 C47.44867947 99.10195367 50.66096974 105.98730212 53.87371826 112.87243652 C54.74782781 114.74569413 55.6219541 116.61894394 56.49609375 118.4921875 C56.78464233 119.11053467 57.07319092 119.72888184 57.3704834 120.3659668 C59.42466621 124.76774618 61.47977221 129.16909391 63.53515625 133.5703125 C66.7381127 140.42915421 69.93889985 147.28900523 73.13745117 154.14990234 C73.71371354 155.38593864 74.29004849 156.62194111 74.86645508 157.85791016 C78.43074338 165.50098228 81.98333715 173.1493136 85.51904297 180.80566406 C86.95084908 183.89398441 88.39803957 186.97469634 89.84765625 190.0546875 C90.69065844 191.86953431 91.53314168 193.6846223 92.375 195.5 C92.76276611 196.31291504 93.15053223 197.12583008 93.55004883 197.96337891 C93.89189209 198.70765137 94.23373535 199.45192383 94.5859375 200.21875 C95.03525635 201.1768457 95.03525635 201.1768457 95.49365234 202.15429688 C96.13295808 204.48464952 95.89032695 205.76787137 95 208 C92.56640625 209.484375 92.56640625 209.484375 89.5625 210.75 C88.57378906 211.17796875 87.58507812 211.6059375 86.56640625 212.046875 C84 213 84 213 82 213 C73.72989677 195.9565916 65.63724059 178.84269432 57.68994141 161.64599609 C55.93233938 157.84908803 54.16077079 154.0587758 52.38671875 150.26953125 C52.08513351 149.62526688 51.78354828 148.9810025 51.4728241 148.31721497 C51.17185318 147.67426987 50.87088226 147.03132477 50.56079102 146.36889648 C44.59680212 133.62811168 38.71632995 120.85418112 33 108 C30.28816787 110.46423835 30.28816787 110.46423835 28 117 C-1.04 117 -30.08 117 -60 117 C-60 117.99 -60 118.98 -60 120 C-31.95 120 -3.9 120 25 120 C24 125 24 125 23 128 C3.53 128 -15.94 128 -36 128 C-36 129.32 -36 130.64 -36 132 C-17.52 132 0.96 132 20 132 C18.57350637 136.27948088 17.13691779 140.0519483 15.234375 144.09375 C14.40389648 145.86516357 14.40389648 145.86516357 13.55664062 147.67236328 C12.95449481 148.94827415 12.35227951 150.22415223 11.75 151.5 C11.12662204 152.82650462 10.50358079 154.15316752 9.88085938 155.47998047 C8.91089046 157.54635935 7.94059353 159.61257932 6.96899414 161.67819214 C4.69090728 166.52193432 2.42712149 171.37214772 0.171875 176.2265625 C-0.45018009 177.5644602 -1.07225022 178.90235091 -1.69433594 180.24023438 C-2.58443903 182.15468795 -3.47417169 184.06930737 -4.36242676 185.98461914 C-5.18791402 187.76393629 -6.01580821 189.54213615 -6.84375 191.3203125 C-7.30974609 192.32336426 -7.77574219 193.32641602 -8.25585938 194.35986328 C-10.76959402 199.60619357 -13.3983527 204.7967054 -16 210 C-97.84 210 -179.68 210 -264 210 C-264 205.05 -264 200.1 -264 195 C-237.93 195 -211.86 195 -185 195 C-191.10511933 167.52696302 -200.94482926 144.78868422 -225 129 C-244.66364095 117.07791157 -267.89094066 112.66341206 -290.5625 117.1875 C-301.83961458 120.07734462 -315.23479476 124.35696551 -323.73046875 132.69921875 C-327.49995518 134.85969893 -331.4988802 134.30901177 -335.75 134.1875 C-338.8025 134.125625 -341.855 134.06375 -345 134 C-345 127.73 -345 121.46 -345 115 C-341.3803125 115.2784375 -341.3803125 115.2784375 -337.6875 115.5625 C-333.78677784 115.51789099 -330.39767009 115.19841804 -327.35595703 112.59033203 C-324.73787422 109.3780744 -322.74973296 105.80346113 -320.77204895 102.17243958 C-320.31300989 101.33050867 -319.85397083 100.48857777 -319.3810215 99.6211338 C-318.05490599 97.10420979 -316.82752825 94.55586111 -315.60209656 91.98881531 C-309.33597569 79.67407674 -309.33597569 79.67407674 -303.8107338 76.901371 C-297.63384827 75.13760362 -291.32014125 75.41664446 -284.95703125 75.58203125 C-282.88509914 75.57135019 -280.81319181 75.55412284 -278.74136353 75.53079224 C-273.22850595 75.49922456 -267.7258141 75.59932811 -262.21485519 75.73667526 C-258.81096042 75.81253431 -255.4085407 75.85147454 -252.00393677 75.87918091 C-216.38336292 76.20553062 -184.11340998 79.9539314 -150.85179138 93.27232361 C-149.25398858 93.90019313 -147.62864193 94.45711936 -146 95 C-147.50330618 99.89506309 -149.4976405 104.384427 -151.7109375 108.984375 C-152.25792549 110.1322197 -152.25792549 110.1322197 -152.81596375 111.30325317 C-153.59605761 112.93979338 -154.37758743 114.57564976 -155.16043091 116.21087646 C-156.79536541 119.62879703 -158.41963979 123.05174322 -160.04450989 126.47445679 C-162.69220504 132.05122839 -165.34255711 137.6267188 -168.00537109 143.19628906 C-169.70361946 146.74997939 -171.38405091 150.3119119 -173.0625 153.875 C-173.5560498 154.89948242 -174.04959961 155.92396484 -174.55810547 156.97949219 C-178.16520564 164.68349739 -180.03215554 171.25152079 -177.85546875 179.6953125 C-174.87567749 187.72306066 -170.02158339 192.66437982 -162.3125 196.25 C-153.86528946 198.16257597 -146.43669042 197.5914789 -139 193 C-132.3276121 187.54077353 -128.57415883 179.49083549 -124.98828125 171.8046875 C-124.62230331 171.03093277 -124.25632538 170.25717804 -123.8792572 169.4599762 C-122.68569355 166.93381226 -121.49908503 164.40444837 -120.3125 161.875 C-119.47607154 160.10141479 -118.63914964 158.32806221 -117.80175781 156.55493164 C-116.06750607 152.88129562 -114.3358055 149.20647311 -112.60595703 145.53076172 C-110.07869048 140.1631942 -107.53938574 134.80139593 -104.99609375 129.44140625 C-104.59429398 128.5944519 -104.1924942 127.74749756 -103.77851868 126.87487793 C-102.9859485 125.20427173 -102.19335154 123.53367823 -101.40072632 121.86309814 C-98.91466818 116.62277477 -96.42940307 111.38210595 -93.95507812 106.13623047 C-92.6355018 103.33877821 -91.30463055 100.54706417 -89.96679688 97.75830078 C-89.32669598 96.41314634 -88.68671657 95.06793407 -88.046875 93.72265625 C-87.48323242 92.54582275 -86.91958984 91.36898926 -86.33886719 90.15649414 C-82.92122913 82.09911951 -83.42129743 74.80896259 -86.52734375 66.7265625 C-89.68489675 60.88048293 -95.01048987 56.73611713 -101 54 C-100.35731563 52.35293447 -99.71076198 50.70737825 -99.0625 49.0625 C-98.52302734 47.68771484 -98.52302734 47.68771484 -97.97265625 46.28515625 C-97 44 -97 44 -96 43 C-92.95670813 42.87463144 -89.93502627 42.81387557 -86.89038086 42.79467773 C-85.93438492 42.78477814 -84.97838898 42.77487854 -83.99342346 42.76467896 C-80.81725586 42.73296148 -77.64107327 42.70826619 -74.46484375 42.68359375 C-72.26908467 42.66303306 -70.07332964 42.64203684 -67.87757874 42.62062073 C-62.08583842 42.56530861 -56.29406186 42.51593978 -50.5022583 42.46777344 C-44.59717566 42.41762497 -38.69214596 42.36190425 -32.78710938 42.30664062 C-21.1914497 42.19894731 -9.5957453 42.09804194 2 42 C-1.63 34.08 -5.26 26.16 -9 18 C-11.31 18 -13.62 18 -16 18 C-15.96519531 17.14728516 -15.96519531 17.14728516 -15.9296875 16.27734375 C-15.80808312 11.07441352 -16.32276508 6.92687757 -18 2 C-16.12922332 1.46419503 -14.2531083 0.94701113 -12.375 0.4375 C-10.80878906 0.00244141 -10.80878906 0.00244141 -9.2109375 -0.44140625 C-5.5456094 -1.07904849 -3.50557634 -1.31106675 0 0 Z " fill="#000000" transform="translate(349,187)"/>
<path d="M0 0 C5.69559408 4.84296024 8.16172539 9.60949734 9 17 C4.51833121 16.11819017 0.26696146 15.18919503 -3.9375 13.375 C-8.59002925 11.56413532 -13.06911542 11.25540334 -18 12 C-22.42484878 14.21242439 -25.19476657 16.94799616 -28 21 C-29.66666583 25.9999975 -29.57623861 30.28654087 -27.5 35.125 C-22.35296929 44.29094509 -10.30245438 46.71478856 -1 50 C-2.24260466 53.94344881 -3.67943122 57.59050314 -5.5390625 61.28125 C-6.03374023 62.27842041 -6.52841797 63.27559082 -7.03808594 64.30297852 C-7.56176758 65.35799561 -8.08544922 66.4130127 -8.625 67.5 C-14.28615704 79.06061564 -18.9115832 90.80264522 -23 103 C-21.74823975 103.30260742 -21.74823975 103.30260742 -20.47119141 103.61132812 C-7.93980683 106.68984273 4.50832574 110.06481375 16.94873047 113.49072266 C19.41622986 114.16814612 21.88500493 114.84093863 24.35498047 115.50927734 C27.96096688 116.4852945 31.56281018 117.475427 35.1640625 118.46875 C36.264086 118.76366333 37.3641095 119.05857666 38.49746704 119.36242676 C47.34247867 121.83019011 53.16031963 124.65089488 58.07958984 132.78515625 C60.46177504 138.51756583 59.8069031 145.40846341 57.99902344 151.21484375 C56.57482232 154.5472478 55.015826 157.76880621 53.375 161 C52.78274511 162.21301844 52.19295779 163.42724434 51.60546875 164.64257812 C50.37774864 167.17226065 49.13611182 169.69431809 47.88183594 172.2109375 C46.05100639 175.88721493 44.2577962 179.58073011 42.4765625 183.28125 C42.18946411 183.87759247 41.90236572 184.47393494 41.60656738 185.08834839 C41.02748077 186.29126848 40.44846049 187.4942205 39.86950684 188.69720459 C38.99855707 190.5029917 38.1234461 192.30670395 37.24707031 194.10986328 C33.39007601 202.05328163 29.64645394 210.04325892 25.95782471 218.06610107 C10.8616394 250.85508194 10.8616394 250.85508194 1 255.375 C-5.6118993 256.75247902 -11.05905399 256.13932094 -17 253 C-21.26169634 249.4012342 -25.60980709 244.51173621 -26.24926758 238.7565918 C-26.47179022 231.37658563 -24.97457283 226.35314608 -21.6875 219.8125 C-21.21691162 218.83144287 -20.74632324 217.85038574 -20.26147461 216.83959961 C-19.17004442 214.56673665 -18.06947743 212.29824821 -16.96191406 210.03320312 C-14.66375444 205.3263583 -12.42209013 200.59297519 -10.1796875 195.859375 C-9.32854914 194.06273597 -8.47739343 192.26610517 -7.6262207 190.46948242 C-7.20233063 189.57474213 -6.77844055 188.68000183 -6.34170532 187.75814819 C-5.08177975 185.1031279 -3.81750411 182.45022882 -2.55151367 179.7980957 C-2.14921539 178.95462585 -1.74691711 178.11115601 -1.33242798 177.24212646 C-0.57885386 175.66270667 0.17557167 174.08369267 0.93106079 172.50518799 C2.74023494 168.71041735 4.52051456 164.9031799 6.26000977 161.07592773 C6.59372086 160.34309067 6.92743195 159.6102536 7.27125549 158.85520935 C8.12187141 157.02194551 8.12187141 157.02194551 8 155 C6.8372757 154.67839653 6.8372757 154.67839653 5.65106201 154.35029602 C-1.70544126 152.31403568 -9.05979916 150.2702664 -16.41194534 148.21833515 C-20.190511 147.16404173 -23.96980047 146.11252309 -27.75097656 145.06762695 C-31.40983766 144.05641633 -35.06649181 143.03755055 -38.72182465 142.01366234 C-40.10669954 141.62713543 -41.49230899 141.24322907 -42.87870026 140.8621769 C-56.67530819 137.0665326 -69.21504413 133.57047057 -78.375 122 C-87.57095172 105.02285837 -80.20932284 82.47634274 -75.20605469 65.26953125 C-68.27149352 43.04404464 -54.75284679 13.00027326 -33.90234375 0.76953125 C-33.25394531 0.45371094 -32.60554688 0.13789062 -31.9375 -0.1875 C-31.28652344 -0.51105469 -30.63554687 -0.83460937 -29.96484375 -1.16796875 C-21.38737488 -4.80017724 -8.02297728 -4.66791406 0 0 Z " fill="#000000" transform="translate(201,124)"/>
<path d="M0 0 C14.49209774 11.93109363 25.68895313 29.38371919 28.06323242 48.26489258 C29.84713551 71.13554502 26.09697137 91.94814958 11.62573242 110.26489258 C-3.08359096 127.00050031 -22.36079139 136.82700321 -44.67114258 138.55395508 C-68.16731179 139.09922483 -87.59292418 131.15218107 -104.62426758 115.07739258 C-119.48001257 99.73422656 -126.52947935 79.6488666 -126.35400391 58.51147461 C-125.6348955 35.82212984 -115.62304055 17.62169017 -99.69848633 1.85864258 C-97.03252482 -0.55313635 -95.60385116 -1.73510742 -91.93676758 -1.73510742 C-87.97676758 6.84489258 -84.01676758 15.42489258 -79.93676758 24.26489258 C-81.91676758 26.90489258 -83.89676758 29.54489258 -85.93676758 32.26489258 C-94.19997523 44.32665539 -96.40287799 55.82387436 -94.93676758 70.26489258 C-94.08901916 74.25457862 -92.79161219 77.64187834 -90.93676758 81.26489258 C-90.30061523 82.55459961 -90.30061523 82.55459961 -89.65161133 83.87036133 C-83.27622865 95.6088793 -73.01971639 102.20933837 -60.54614258 106.40551758 C-48.64603088 109.23887751 -35.80863775 107.73151554 -25.15551758 101.68676758 C-22.62604794 99.99537523 -20.27931692 98.20526973 -17.93676758 96.26489258 C-17.30125977 95.76473633 -16.66575195 95.26458008 -16.01098633 94.74926758 C-7.41970869 87.20570673 -2.64286338 74.86880074 -1.72583008 63.69458008 C-1.22869277 50.2718728 -5.55667172 39.21646987 -14.12426758 29.07739258 C-25.84362996 16.62436336 -40.53579283 13.87801313 -56.93676758 13.26489258 C-60.89676758 4.68489258 -64.85676758 -3.89510742 -68.93676758 -12.73510742 C-53.49440023 -28.17747477 -13.45419028 -10.62398922 0 0 Z " fill="#000000" transform="translate(483.936767578125,328.735107421875)"/>
<path d="M0 0 C19.98928241 -0.77399578 39.14363622 6.5171149 54.0703125 19.59765625 C55.66990747 21.10137644 57.25452107 22.62126845 58.8203125 24.16015625 C59.44679687 24.77375 60.07328125 25.38734375 60.71875 26.01953125 C69.41324421 35.2254663 78.8203125 51.04654479 78.8203125 64.16015625 C68.5903125 64.16015625 58.3603125 64.16015625 47.8203125 64.16015625 C46.8096875 62.01515625 45.7990625 59.87015625 44.7578125 57.66015625 C38.5608527 45.10570864 29.92361673 37.37978683 16.5078125 32.72265625 C2.77941664 28.96968649 -10.21785665 31.02154159 -22.5546875 37.97265625 C-34.10769682 45.46902638 -40.69610191 56.28795639 -43.73828125 69.60546875 C-45.98309307 82.59756548 -42.59008435 95.38433899 -35.1796875 106.16015625 C-27.34310508 115.67815099 -17.47898998 122.29288448 -5.1796875 124.16015625 C9.6626111 125.38566714 21.88167238 122.43145767 33.8203125 113.16015625 C40.647757 107.00717334 43.58084044 100.63910037 47.8203125 92.16015625 C58.0503125 92.16015625 68.2803125 92.16015625 78.8203125 92.16015625 C75.36964665 106.9290061 70.0134307 118.68052798 59.8203125 130.16015625 C59.22863281 130.8459375 58.63695312 131.53171875 58.02734375 132.23828125 C44.68184462 146.69353403 25.37020514 153.98017479 6.0625 155.4453125 C-15.53024823 155.96371877 -36.03822181 148.3828766 -51.87524414 133.63037109 C-60.04282004 125.62622775 -66.23579061 115.88987574 -70.1796875 105.16015625 C-70.5715625 104.12375 -70.9634375 103.08734375 -71.3671875 102.01953125 C-78.0076651 81.45249647 -75.28843216 59.03522471 -65.5847168 40.01098633 C-55.71095761 21.88353782 -39.41098385 9.36569626 -19.87890625 3.1015625 C-13.27750407 1.34845824 -6.78843495 0.49879181 0 0 Z " fill="#000000" transform="translate(74.1796875,311.83984375)"/>
<path d="M0 0 C8.2717604 6.58341478 16.54176987 13.82219541 22.1640625 22.89453125 C22.1640625 23.55453125 22.1640625 24.21453125 22.1640625 24.89453125 C8.9640625 24.89453125 -4.2359375 24.89453125 -17.8359375 24.89453125 C-19.00731411 36.58873151 -19.00731411 36.58873151 -16.8359375 47.89453125 C-12.04788963 53.29925718 -5.31934263 56.26127466 1.23046875 59.04443359 C3.1640625 59.89453125 3.1640625 59.89453125 4.1640625 60.89453125 C3.73503414 69.1890796 1.41559893 76.94608405 -0.8359375 84.89453125 C-4.32251974 84.22563527 -6.94503091 82.82862354 -10 81.04296875 C-11.02657715 80.44653564 -12.0531543 79.85010254 -13.11083984 79.2355957 C-14.21637207 78.58679443 -15.3219043 77.93799316 -16.4609375 77.26953125 C-17.62291798 76.59219146 -18.78519518 75.91536049 -19.94775391 75.23901367 C-22.36794306 73.83062029 -24.78683168 72.42002678 -27.20507812 71.00830078 C-31.77277694 68.34513059 -36.35952321 65.71529392 -40.94506836 63.08300781 C-50.14002548 57.80125178 -59.30236689 52.47006602 -68.3984375 47.01953125 C-69.24390137 46.51333252 -70.08936523 46.00713379 -70.96044922 45.4855957 C-76.70632309 42.02414566 -76.70632309 42.02414566 -77.8359375 40.89453125 C-78.61525951 25.62281731 -78.92946278 9.41621591 -68.8359375 -3.10546875 C-51.75588622 -20.43669726 -17.19648005 -12.76708367 0 0 Z " fill="#000000" transform="translate(272.8359375,57.10546875)"/>
<path d="M0 0 C1.33791092 0.48430481 1.33791092 0.48430481 2.70285034 0.97839355 C5.63996759 2.04363886 8.57393419 3.1172756 11.5078125 4.19140625 C13.58356675 4.94694906 15.65941498 5.70223372 17.73535156 6.45727539 C38.59795971 14.05886784 59.40012714 21.82361826 80.19477844 29.60876465 C85.99885834 31.77874857 91.81128781 33.92319737 97.63671875 36.03515625 C98.91765509 36.50135088 100.19858018 36.9675764 101.47949219 37.43383789 C103.68474865 38.23401231 105.89221135 39.02815137 108.10253906 39.81420898 C114.05534586 41.979006 119.3546746 44.02014076 123.5078125 49.00390625 C125.01939126 52.69887655 125.21714332 55.81567663 124.6328125 59.75390625 C122.85205509 63.87776552 120.55024545 66.55035022 116.6328125 68.75390625 C109.20154228 69.61666692 102.98266559 68.35091576 96.11328125 65.6328125 C95.23310333 65.30178024 94.35292542 64.97074799 93.44607544 64.62968445 C90.56425625 63.54173854 87.69266108 62.42908712 84.8203125 61.31640625 C82.78286825 60.5426896 80.74468587 59.7709142 78.70581055 59.00097656 C74.46603495 57.39823812 70.22955824 55.78718686 65.99511719 54.17041016 C56.96745412 50.73147251 47.89990034 47.40138517 38.8331604 44.06719971 C35.0098457 42.65947131 31.18921032 41.2445521 27.36854553 39.82965088 C20.15827458 37.15952529 12.94503807 34.4982908 5.72099304 31.8656311 C2.45259461 30.67378442 -0.8137069 29.4762584 -4.07974243 28.2779541 C-5.5827435 27.72828743 -7.08676684 27.18140653 -8.59188843 26.63757324 C-10.64466547 25.89569641 -12.69370173 25.14425481 -14.7421875 24.390625 C-15.88429687 23.97514404 -17.02640625 23.55966309 -18.203125 23.1315918 C-23.56865597 20.79535019 -28.08996257 18.32045607 -30.3671875 12.75390625 C-30.89975391 7.16195893 -30.59602016 3.54148571 -27.3671875 -1.24609375 C-18.41480657 -7.90299239 -9.47405046 -3.48134193 0 0 Z " fill="#000000" transform="translate(205.3671875,143.24609375)"/>
<path d="M0 0 C4.66130815 3.0666501 6.45098833 8.39407474 7.5703125 13.70703125 C9.20334736 26.22201662 9.16973753 39.24539371 2 50 C-2.11171519 52.05585759 -7.00855931 51.55004851 -11.34765625 50.3515625 C-18.38998537 47.52496728 -23.24604222 43.21558927 -26.875 36.5625 C-29.63825535 27.8121914 -29.59837915 20.00428577 -25.3125 11.75 C-18.70266269 3.88965293 -10.75158834 -1.83716461 0 0 Z " fill="#000000" transform="translate(413,210)"/>
<path d="M0 0 C5.61 0 11.22 0 17 0 C19.73616936 5.47233871 18.62274219 15.16507481 17.328125 21.05859375 C16.64485471 23.07295192 15.83790044 25.04489898 15 27 C9.07656316 25.94338694 3.84624591 24.93052094 0 20 C-1.31842076 13.45350641 -0.55727319 6.6005914 0 0 Z " fill="#000000" transform="translate(257,84)"/>
<path d="M0 0 C3.7922113 0.57862971 6.49543166 1.6496136 9.7734375 3.625 C10.67425049 4.16278076 11.57506348 4.70056152 12.50317383 5.25463867 C13.45087646 5.83060791 14.3985791 6.40657715 15.375 7 C16.34783936 7.58434814 17.32067871 8.16869629 18.32299805 8.77075195 C20.28875398 9.95202011 22.25288431 11.1359979 24.21533203 12.32275391 C26.71641949 13.82919533 29.22721614 15.31653479 31.74609375 16.79296875 C32.78854248 17.40688477 32.78854248 17.40688477 33.85205078 18.03320312 C35.13114356 18.78632276 36.41199457 19.53646649 37.69482422 20.28320312 C41.88678659 22.77357319 41.88678659 22.77357319 43 25 C31.40102742 26.90147091 21.67611385 24.86124437 12 18 C6.22981838 12.84943519 2.60617518 7.2527112 0 0 Z " fill="#000000" transform="translate(202,106)"/>
</svg>
