<?xml version="1.0" encoding="UTF-8"?>
<svg version="1.1" xmlns="http://www.w3.org/2000/svg" width="512" height="512">
<path d="M0 0 C3.79324815 -0.00217254 7.58619809 -0.02034312 11.37939453 -0.03930664 C32.68312078 -0.08986071 53.73479652 1.05745058 74.77392578 4.49780273 C75.44222412 4.60512726 76.11052246 4.71245178 76.79907227 4.82302856 C102.32442021 8.93867053 127.51442851 14.78766263 147.46142578 32.18530273 C148.05310547 32.6815918 148.64478516 33.17788086 149.25439453 33.68920898 C161.65857911 44.97377595 169.07605611 61.49837001 176.42089844 76.21435547 C177.30880628 78.13108009 177.30880628 78.13108009 178.46142578 79.18530273 C180.17118563 79.29447632 181.88501875 79.34114223 183.59814453 79.36108398 C184.65066406 79.38493164 185.70318359 79.4087793 186.78759766 79.43334961 C189.00876333 79.47594024 191.23017359 79.50739393 193.45166016 79.52709961 C199.72851806 79.69137526 203.71506271 79.92294379 208.46142578 84.18530273 C211.93051646 88.40446707 213.36857481 91.70709521 213.46142578 97.18530273 C212.49372763 101.38787755 211.54904562 105.09768289 208.46142578 108.18530273 C208.24252056 110.16545669 208.24252056 110.16545669 209.46142578 112.18530273 C211.79910625 113.7535827 214.05904497 115.1028791 216.52392578 116.43530273 C227.42941435 122.70615161 233.7459863 128.84950907 237.46142578 141.18530273 C239.23486044 147.77619809 240.41138781 154.44586549 241.46142578 161.18530273 C241.61385742 162.1432373 241.76628906 163.10117187 241.92333984 164.08813477 C247.0005844 197.85784236 247.87768074 235.77370076 240.46142578 269.18530273 C240.22584961 270.3096875 239.99027344 271.43407227 239.74755859 272.5925293 C234.57760294 297.07716896 234.57760294 297.07716896 227.39892578 302.49780273 C224.46142578 304.18530273 224.46142578 304.18530273 221.46142578 305.18530273 C220.65592759 307.12422969 220.65592759 307.12422969 220.14892578 309.43530273 C218.65664134 314.42016778 216.72301255 316.28379685 212.46142578 319.18530273 C209.63572442 320.59815341 207.24751589 320.33606303 204.08740234 320.36230469 C203.43350525 320.36887589 202.77960815 320.37544708 202.105896 320.38221741 C199.93794644 320.40195604 197.77006625 320.41361555 195.60205078 320.42358398 C194.86115959 320.42765951 194.1202684 320.43173504 193.35692596 320.43593407 C189.43375426 320.45679948 185.51061755 320.47109784 181.58740234 320.48046875 C177.54098165 320.49152067 173.49511279 320.52590442 169.44888687 320.56564045 C166.3329773 320.59182893 163.2171986 320.60016263 160.10118866 320.60375023 C158.61008741 320.60861226 157.11899186 320.62021544 155.62799835 320.63878822 C153.53590166 320.663224 151.44522403 320.66220747 149.35302734 320.65527344 C148.16437073 320.66113968 146.97571411 320.66700592 145.7510376 320.67304993 C140.47496542 319.8907724 137.42301636 317.34933344 134.08642578 313.31030273 C132.32585818 309.9245958 132.1036862 307.94156832 132.46142578 304.18530273 C131.89109619 304.21793213 131.3207666 304.25056152 130.7331543 304.28417969 C123.28014905 304.51761875 116.62493437 303.0648214 109.39892578 301.37280273 C98.39198023 298.9431974 87.50514609 297.32684193 76.27392578 296.37280273 C74.31024048 296.20590942 74.31024048 296.20590942 72.30688477 296.03564453 C29.8101092 292.67635274 -12.52580674 292.73722713 -55.03857422 295.56030273 C-55.92751373 295.61738403 -56.81645325 295.67446533 -57.73233032 295.73327637 C-73.2105595 296.74494178 -88.42776544 298.52295167 -103.47607422 302.37280273 C-110.24053025 304.09068616 -116.56948802 304.66870756 -123.53857422 304.18530273 C-123.50505859 305.11084961 -123.47154297 306.03639648 -123.43701172 306.98999023 C-123.57126862 311.21391895 -124.86698228 312.95127039 -127.53857422 316.18530273 C-131.9278842 319.64836121 -134.79831559 320.68781984 -140.36669922 320.70288086 C-141.34842102 320.71339478 -141.34842102 320.71339478 -142.34997559 320.72412109 C-144.49661678 320.74161439 -146.64192146 320.73011114 -148.78857422 320.71655273 C-150.29020438 320.71925019 -151.79183282 320.72313472 -153.29345703 320.72814941 C-156.4339264 320.73403266 -159.57393934 320.72552007 -162.71435547 320.70678711 C-166.72939387 320.68399751 -170.74336262 320.69712701 -174.75836182 320.72107697 C-177.85717757 320.73556719 -180.95574189 320.73091436 -184.05456543 320.7205658 C-185.53446582 320.71790738 -187.01438943 320.72113703 -188.4942627 320.73048401 C-190.56693529 320.74070385 -192.63790286 320.72507715 -194.71044922 320.70288086 C-195.88704102 320.69969849 -197.06363281 320.69651611 -198.27587891 320.6932373 C-203.52445642 319.87614171 -206.58899497 317.33479341 -209.91357422 313.31030273 C-211.67414182 309.9245958 -211.8963138 307.94156832 -211.53857422 304.18530273 C-212.40482422 304.12342773 -213.27107422 304.06155273 -214.16357422 303.99780273 C-218.30776855 303.00012632 -220.94348254 301.52165075 -223.53857422 298.18530273 C-226.70415182 291.25366683 -228.52338468 283.86159896 -230.10107422 276.43530273 C-230.29636719 275.5806543 -230.49166016 274.72600586 -230.69287109 273.84545898 C-234.79835351 254.88267701 -236.05886605 235.9760473 -235.91357422 216.62280273 C-235.90958618 215.53811707 -235.90559814 214.4534314 -235.90148926 213.33587646 C-235.59571847 142.15269832 -235.59571847 142.15269832 -220.22607422 125.06030273 C-214.11500426 119.45750358 -206.64156445 115.39192802 -199.53857422 111.18530273 C-200.09372205 108.64977178 -200.60188581 107.08769736 -202.03857422 104.87280273 C-204.74689125 100.02040139 -204.95635857 95.83326829 -203.47607422 90.56030273 C-201.56244016 85.3686844 -198.49627115 82.6641512 -193.53857422 80.18530273 C-191.83814232 80.25731157 -190.1398553 80.38349131 -188.44482422 80.53686523 C-177.3732478 81.55039071 -177.3732478 81.55039071 -167.57421875 77.50317383 C-164.31082991 72.98935675 -162.43659685 67.84979391 -160.52441406 62.65307617 C-159.07226511 59.01802872 -157.09074021 55.86131999 -154.91357422 52.62280273 C-154.54385498 52.06044922 -154.17413574 51.4980957 -153.79321289 50.91870117 C-150.34702076 45.74979596 -146.60481935 40.87842732 -142.53857422 36.18530273 C-142.02294922 35.57428711 -141.50732422 34.96327148 -140.97607422 34.33374023 C-117.09824359 8.1875157 -72.48477349 4.34208758 -39.53857422 1.18530273 C-38.51795898 1.08741455 -37.49734375 0.98952637 -36.44580078 0.88867188 C-24.31728516 -0.09115416 -12.16018909 -0.00077641 0 0 Z M-116.87451172 57.32202148 C-125.72945112 66.46406643 -131.59652352 77.9175655 -137.16357422 89.24780273 C-137.5187915 89.94977783 -137.87400879 90.65175293 -138.23999023 91.375 C-140.26791318 95.65765645 -141.10768468 98.48479356 -139.53857422 103.18530273 C-138.37694965 104.92633609 -138.37694965 104.92633609 -136.53857422 106.18530273 C-133.98841089 106.63494836 -133.98841089 106.63494836 -131.02294922 106.54858398 C-129.82790771 106.54922852 -128.63286621 106.54987305 -127.40161133 106.55053711 C-126.03059032 106.53364628 -124.65957808 106.51603232 -123.28857422 106.49780273 C-121.78800667 106.48897182 -120.28743683 106.48052492 -118.78686523 106.47241211 C-108.98353396 106.39106899 -99.19061411 106.08915294 -89.39404297 105.72827148 C-28.81802704 103.5053008 31.83815465 103.07587256 92.41821289 105.47338867 C99.43167297 105.7507614 106.4452242 105.98893252 113.46142578 106.18530273 C114.14995384 106.20546448 114.8384819 106.22562622 115.54787445 106.24639893 C119.97379321 106.37314535 124.3988212 106.46824799 128.82618523 106.52633667 C130.25541242 106.54878445 131.68453335 106.57982076 133.11337471 106.61990356 C135.09859716 106.67358482 137.0846798 106.69191757 139.07055664 106.70874023 C140.20923691 106.72855957 141.34791718 106.74837891 142.52110291 106.76879883 C145.6510066 106.42582878 145.6510066 106.42582878 147.85523987 103.84741211 C149.57519522 100.99674007 149.86285119 99.50815928 149.16015625 96.26049805 C147.6012664 91.63067145 145.31350912 87.36301926 143.02392578 83.06030273 C142.4833252 82.03928467 141.94272461 81.0182666 141.38574219 79.96630859 C130.21564458 59.31392989 117.39429012 48.9944738 94.91186523 42.1574707 C41.13308984 27.00519704 -72.58966639 16.81397735 -116.87451172 57.32202148 Z M-201.53857422 147.18530273 C-204.46573096 152.50740591 -203.73191984 158.41603468 -202.53857422 164.18530273 C-199.9278224 169.22675451 -197.13365421 172.04599932 -191.97607422 174.31030273 C-182.87848392 176.62605299 -173.53531285 176.26393086 -164.22607422 175.87280273 C-163.01435547 175.82357666 -161.80263672 175.77435059 -160.55419922 175.72363281 C-152.7089122 175.37942393 -144.8688576 174.97043809 -137.03857422 174.37280273 C-136.13196045 174.31503662 -135.22534668 174.25727051 -134.29125977 174.19775391 C-129.2160699 173.76655969 -129.2160699 173.76655969 -124.94482422 171.11108398 C-124.24873047 170.15782227 -124.24873047 170.15782227 -123.53857422 169.18530273 C-126.8597318 161.28908115 -136.52146415 157.9245222 -143.96435547 154.83764648 C-157.98391137 149.56351381 -173.45755526 144.04660177 -188.53857422 143.93530273 C-189.23724609 143.91467773 -189.93591797 143.89405273 -190.65576172 143.87280273 C-195.14797414 143.83889924 -197.98731287 144.39217583 -201.53857422 147.18530273 Z M174.46142578 148.18530273 C173.22803467 148.5067627 173.22803467 148.5067627 171.96972656 148.8347168 C157.67969702 152.61567204 143.70898917 157.26199375 132.46142578 167.18530273 C132.79142578 168.83530273 133.12142578 170.48530273 133.46142578 172.18530273 C135.18910305 172.50593473 136.91871184 172.81615421 138.64892578 173.12280273 C139.61185547 173.29682617 140.57478516 173.47084961 141.56689453 173.65014648 C152.14912625 175.10427461 162.85928533 175.46616927 173.52392578 175.87280273 C174.79558594 175.93274414 176.06724609 175.99268555 177.37744141 176.05444336 C188.14178732 176.45762307 200.31035329 176.82378585 208.71142578 169.12280273 C212.73930891 162.3617132 212.82763724 155.76885726 211.26220703 148.21655273 C210.54381379 145.82810766 210.54381379 145.82810766 207.46142578 144.18530273 C196.07757642 142.88515526 185.39316904 145.26513387 174.46142578 148.18530273 Z M-40.72607422 211.49780273 C-41.56548553 211.59845032 -42.40489685 211.6990979 -43.26974487 211.80279541 C-52.49331632 212.92256119 -61.62541302 214.28044644 -70.72607422 216.16577148 C-71.48192307 216.32088699 -72.23777191 216.4760025 -73.01652527 216.63581848 C-84.85630963 219.19548578 -98.86900365 223.25997612 -106.53857422 233.18530273 C-107.38303921 237.47799976 -107.49691843 239.59479773 -105.24169922 243.33764648 C-99.46812974 250.44867128 -92.4632264 253.62572353 -83.53857422 255.18530273 C-78.54200493 255.5908156 -73.54102161 255.69894768 -68.53076172 255.80249023 C-67.77010281 255.82092861 -67.00944389 255.83936699 -66.22573471 255.85836411 C-43.83785582 256.39944913 -21.43924836 256.33651992 0.95361328 256.31567383 C5.88624271 256.31110045 10.81883538 256.31112575 15.75146484 256.31567383 C48.51941173 256.38599573 48.51941173 256.38599573 81.28173828 255.86499023 C82.41771454 255.84300568 83.5536908 255.82102112 84.72409058 255.79837036 C95.31377324 255.44132446 104.20565317 253.01286152 112.46142578 246.18530273 C115.41360324 242.78582566 116.08142818 239.70323646 115.85986328 235.16967773 C115.13678558 231.5684672 113.23371384 229.39555517 110.46142578 227.18530273 C94.88713769 217.00563107 74.37779552 214.99718787 56.46142578 212.18530273 C55.43452637 212.02255859 54.40762695 211.85981445 53.34960938 211.69213867 C21.95254638 206.86182129 -9.30953782 207.67344519 -40.72607422 211.49780273 Z " fill="#000000" transform="translate(251.53857421875,95.814697265625)"/>
</svg>
