<?xml version="1.0" encoding="UTF-8"?>
<svg version="1.1" xmlns="http://www.w3.org/2000/svg" width="512" height="512">
<path d="M0 0 C6.86814054 4.27949498 10.73895646 9.80924859 12.8996582 17.50830078 C14.06747176 23.32789712 14.08084214 29.20701243 14.1875 35.125 C14.22166016 36.41535156 14.25582031 37.70570312 14.29101562 39.03515625 C14.37280832 42.19001717 14.44218232 45.3446241 14.5 48.5 C20.57874602 49.32053422 26.65786106 50.1382638 32.73730469 50.95361328 C34.79697371 51.23022305 36.85654742 51.50754357 38.91601562 51.78564453 C41.9098962 52.18978923 44.9041023 52.59142603 47.8984375 52.9921875 C49.37192657 53.19083405 49.37192657 53.19083405 50.87518311 53.39349365 C55.51765168 54.01036288 60.15577075 54.5839667 64.81738281 55.03613281 C65.63929108 55.11735382 66.46119934 55.19857483 67.30801392 55.28225708 C68.82518926 55.42750329 70.34341507 55.56234515 71.86264038 55.68429565 C76.11550754 56.09059868 79.07126731 56.91451747 82.5 59.5 C84.04586876 62.59173752 83.79359521 65.09429552 83.5 68.5 C81.43880586 71.21670747 80.28838667 72.36857766 76.88729858 72.93553162 C75.92337189 72.9006514 74.95944519 72.86577118 73.96630859 72.82983398 C72.90224792 72.79324677 71.83818726 72.75665955 70.74188232 72.71896362 C65.81343287 72.38608567 60.93560539 71.86987586 56.0390625 71.22265625 C54.48776138 71.02644936 54.48776138 71.02644936 52.90512085 70.82627869 C49.64414406 70.41199636 46.3846214 69.98730009 43.125 69.5625 C40.91805271 69.28124148 38.71102193 69.00063717 36.50390625 68.72070312 C32.46776325 68.20571954 28.43176655 67.68976479 24.39697266 67.16430664 C23.59377594 67.0599379 22.79057922 66.95556915 21.96304321 66.84803772 C19.13456417 66.44836248 16.31771052 65.96961842 13.5 65.5 C13.5 108.4 13.5 151.3 13.5 195.5 C16.14 195.5 18.78 195.5 21.5 195.5 C23.01178899 195.62393318 24.5218142 195.77979796 26.02441406 195.98730469 C26.82456436 196.09466446 27.62471466 196.20202423 28.44911194 196.31263733 C29.29606125 196.43118576 30.14301056 196.54973419 31.015625 196.671875 C32.90187877 196.92515624 34.78819342 197.17798433 36.67456055 197.43041992 C37.66273773 197.56419037 38.65091492 197.69796082 39.66903687 197.83578491 C93.97141652 205.13638021 148.71641103 208.81375873 203.5 209.5 C205.43166016 209.52489502 205.43166016 209.52489502 207.40234375 209.55029297 C216.10308961 209.64273269 224.7996187 209.61019674 233.5 209.5 C234.22028381 209.49139954 234.94056763 209.48279907 235.68267822 209.47393799 C292.19415514 208.77315007 348.66994273 204.71675832 404.66503906 197.02392578 C405.79739235 196.87007668 405.79739235 196.87007668 406.95262146 196.71311951 C408.95253272 196.43992734 410.95153092 196.16007344 412.95043945 195.87963867 C416.5 195.5 416.5 195.5 423.5 195.5 C423.5 152.6 423.5 109.7 423.5 65.5 C408.32 67.48 393.14 69.46 377.5 71.5 C368.97886031 72.45788544 360.47305681 73.39726532 351.9375 74.1875 C350.88766937 74.28639526 349.83783875 74.38529053 348.75619507 74.48718262 C277.72886418 81.12710351 206.39633254 81.94121042 135.1875 78.0625 C134.03068726 78.00114868 132.87387451 77.93979736 131.68200684 77.87658691 C128.41623684 77.69994808 125.15147893 77.51073245 121.88671875 77.31640625 C120.92044052 77.26426468 119.95416229 77.21212311 118.95860291 77.15840149 C113.44975696 76.81059109 108.40587006 76.34038437 103.625 73.3125 C101.76526597 70.31626183 102.07935611 67.92524311 102.5 64.5 C104.4212611 61.79600289 105.63957573 60.72318222 108.85435486 59.88931274 C111.39682584 59.51518231 113.58488739 59.47382121 116.14282227 59.64599609 C117.49327888 59.731399 117.49327888 59.731399 118.87101746 59.81852722 C119.84299576 59.88614761 120.81497406 59.95376801 121.81640625 60.0234375 C123.94317883 60.1587271 126.06997004 60.2937241 128.19677734 60.4284668 C129.31606628 60.50157074 130.43535522 60.57467468 131.58856201 60.6499939 C150.17737178 61.8539865 168.75045497 62.80643832 187.375 63.1875 C188.24174347 63.20601013 189.10848694 63.22452026 190.00149536 63.24359131 C267.82590159 64.85147598 345.47085456 59.53846233 422.5 48.5 C422.51458252 47.70416504 422.52916504 46.90833008 422.54418945 46.08837891 C422.61930496 42.43346534 422.71575508 38.77940249 422.8125 35.125 C422.83505859 33.87332031 422.85761719 32.62164062 422.88085938 31.33203125 C423.18167458 20.88553942 424.0330351 11.90824154 431.57421875 4.1953125 C438.17830342 -1.61842533 444.18278842 -2.13886594 452.9296875 -1.88671875 C460.21818377 -1.09726456 464.7500518 1.95839377 469.5 7.5 C474.09566163 13.75520611 474.64886508 17.98931828 474.63422108 25.61791229 C474.63657331 26.44694402 474.63892554 27.27597574 474.64134905 28.13012964 C474.6480406 30.92624367 474.64758078 33.72231125 474.64717102 36.51843262 C474.65046952 38.53606217 474.65419505 40.55369106 474.6583125 42.5713191 C474.66834167 48.12992984 474.67205075 53.68852977 474.67470181 59.24714828 C474.67860196 65.23630849 474.68818028 71.22546012 474.69691467 77.21461487 C474.71574958 90.99870787 474.72593466 104.78280152 474.73437535 118.56690372 C474.73858117 125.37586026 474.74380315 132.18481591 474.74905988 138.99377171 C474.7669472 162.29395419 474.7819452 185.59413693 474.78938007 208.89432526 C474.78985483 210.35696684 474.79033072 211.81960843 474.79080774 213.28225002 C474.7911623 214.3702686 474.7911623 214.3702686 474.79152403 215.48026735 C474.79272524 219.15530193 474.79394069 222.83033652 474.79516602 226.50537109 C474.79540617 227.23469459 474.79564632 227.96401808 474.79589374 228.71544229 C474.80379207 252.37815976 474.82723634 276.04082719 474.85972196 299.70352279 C474.89399273 324.71208776 474.9137285 349.72062344 474.91702431 374.72921228 C474.91744187 377.47255613 474.91792143 380.21589995 474.91844749 382.95924377 C474.91857069 383.63474867 474.91869388 384.31025356 474.9188208 385.00622829 C474.9211559 395.89173102 474.9368327 406.77717573 474.95728934 417.66265775 C474.9775097 428.59547815 474.98270821 439.52823811 474.97351871 450.46107519 C474.9689553 456.38759986 474.97097829 462.31393555 474.99028015 468.24043465 C475.00777893 473.65986483 475.00702311 479.07896629 474.99138286 484.49839932 C474.98898648 486.46469449 474.99343412 488.43101164 475.00521151 490.397273 C475.02017569 493.05928444 475.01076637 495.72010758 474.99498463 498.38208771 C475.00520683 499.15496118 475.01542904 499.92783466 475.02596101 500.72412854 C474.98001691 504.24696403 474.77562451 506.14251943 472.59406346 508.97196913 C470.3380661 510.6181626 469.26217334 511.06789487 466.5 511.0625 C465.84 511.08441406 465.18 511.10632813 464.5 511.12890625 C461.29445004 510.12091105 460.29157259 508.29321067 458.5 505.5 C458.11755793 502.64276936 457.96583326 500.17654584 458.00336456 497.32430267 C457.9982592 496.5011702 457.99315383 495.67803772 457.98789376 494.82996184 C457.9755983 492.05963035 457.99189729 489.29019935 458.00793457 486.51989746 C458.00492499 484.51861415 458.00014959 482.51733285 457.99375582 480.51605749 C457.98121562 475.00714064 457.99357304 469.49851395 458.00983071 463.98961711 C458.02297565 458.05225642 458.01304434 452.11493094 458.00572205 446.17756653 C457.99603089 435.88640058 458.00044149 425.59531307 458.0141449 415.30415344 C458.03372306 400.41933703 458.02715087 385.53461345 458.01357108 370.64979452 C458.00728094 363.71676387 458.00227184 356.78373229 457.99759674 349.85070038 C457.99712726 349.15664027 457.99665777 348.46258016 457.99617406 347.74748792 C457.98529632 331.2260262 457.98696578 314.70456945 457.99072266 298.18310547 C457.99088239 297.46017499 457.99104213 296.73724451 457.99120671 295.99240705 C457.99381616 284.26035215 457.99718632 272.5282975 458.00065076 260.79624283 C458.00388884 249.80312681 458.0068483 238.81001077 458.00927734 227.81689453 C458.00944165 227.09435036 458.00960595 226.37180619 458.00977523 225.62736674 C458.0134577 209.13467327 458.01355942 192.64199037 458.00240326 176.14929962 C458.00193599 175.45635079 458.00146872 174.76340196 458.00098729 174.04945468 C457.99624074 167.13200451 457.99086678 160.21455513 457.98455582 153.29710622 C457.97112939 138.42804558 457.96872678 123.55909828 457.98852597 108.69004245 C458.00279052 97.85253399 458.00314836 87.01510215 457.98978293 76.17759216 C457.98305127 70.30359579 457.98302921 64.42978969 458.0003643 58.55581093 C458.01611863 53.18324078 458.0136788 47.81100407 457.99651426 42.4384411 C457.99358464 40.49032935 457.99749499 38.54219341 458.00877243 36.5941121 C458.02310005 33.95422899 458.01300871 31.31554211 457.99663544 28.67569733 C458.00668254 27.91215409 458.01672964 27.14861086 458.02708119 26.36192995 C457.97810539 22.68699411 457.59797262 20.65274746 455.59396029 17.52832556 C453.71251899 15.40263365 453.71251899 15.40263365 451.5 14.87109375 C447.83495696 14.99278463 446.05352925 15.07420827 443.0625 17.375 C440.68458743 20.60896109 440.37506816 22.35875177 440.37530136 26.32642937 C440.37291041 27.35206297 440.37051946 28.37769657 440.36805606 29.43440998 C440.37048855 30.56979461 440.37292104 31.70517925 440.37542725 32.87496948 C440.3740171 34.07442046 440.37260695 35.27387144 440.37115407 36.50966942 C440.36875895 39.15078902 440.36820787 41.79183641 440.37071037 44.43294907 C440.37476117 48.72957782 440.37200553 53.02618677 440.36836243 57.32281494 C440.36426825 62.7513307 440.36203271 68.17984204 440.36194643 73.60835935 C440.36174395 84.27376724 440.3492988 94.93912953 440.33233643 105.60452271 C440.32973059 107.28227229 440.32713178 108.96002188 440.3245399 110.63777149 C440.3206014 113.18062269 440.3166549 115.72347388 440.31267868 118.26632502 C440.29772592 127.85804952 440.28410445 137.44977542 440.27197266 147.04150391 C440.2708591 147.9185644 440.26974553 148.7956249 440.26859823 149.69926299 C440.25101815 163.91633172 440.24815442 178.133372 440.24982306 192.35044979 C440.25110106 206.93678146 440.23339317 221.52300699 440.19880509 236.10929787 C440.17812515 245.11197893 440.17284014 254.1144061 440.1871334 263.11710073 C440.19557763 269.2844602 440.18590013 275.45162184 440.1618239 281.6189395 C440.14848539 285.18002652 440.14337995 288.7406394 440.15994453 292.30172348 C440.17768631 296.15843131 440.15704147 300.01437979 440.13250732 303.87106323 C440.1438627 305.00198643 440.15521808 306.13290962 440.16691756 307.29810321 C440.0733195 314.82313321 440.0733195 314.82313321 437.18703079 318.2307148 C433.51805867 319.96384418 431.36576283 319.57382301 427.5 318.5 C425.44061784 316.92114034 424.65428789 315.80857577 423.5 313.5 C423.40843895 312.13153259 423.37806056 310.75870253 423.37974548 309.38717651 C423.37768349 308.09568695 423.37768349 308.09568695 423.37557983 306.77810669 C423.37917511 305.83152191 423.38277039 304.88493713 423.38647461 303.90966797 C423.38632858 302.91451172 423.38618256 301.91935547 423.3860321 300.89404297 C423.38673069 297.59340257 423.39452056 294.29281808 423.40234375 290.9921875 C423.40420812 288.70818106 423.40563193 286.42417422 423.40663147 284.14016724 C423.41045513 278.11988222 423.42028414 272.09962121 423.43133545 266.0793457 C423.44155282 259.93961919 423.44612979 253.79988881 423.45117188 247.66015625 C423.46190652 235.60676027 423.47898115 223.55338213 423.5 211.5 C422.28050156 211.66735657 421.06100311 211.83471313 419.80455017 212.00714111 C396.92224283 215.13940086 374.07311438 218.21681738 351.0625 220.25 C348.81426186 220.45509147 346.56605275 220.66050129 344.31787109 220.86621094 C328.06348958 222.33818938 311.80220248 223.68552784 295.5 224.5 C294.72861694 224.538974 293.95723389 224.577948 293.16247559 224.61810303 C276.61442094 225.43917771 260.0654235 225.85178916 243.5 226.125 C242.83987915 226.13590164 242.1797583 226.14680328 241.49963379 226.15803528 C189.03716565 227.01268008 136.75501123 225.00512219 84.5 220.1875 C83.51416931 220.0987561 82.52833862 220.01001221 81.51263428 219.9185791 C65.98961108 218.50244823 50.56236017 216.48095283 35.1171875 214.40161133 C33.01360961 214.11958036 30.91001274 213.83769097 28.80639648 213.55594635 C23.70404415 212.87226153 18.6019519 212.18666642 13.5 211.5 C13.50151888 212.12019648 13.50303776 212.74039296 13.50460267 213.37938327 C13.59407779 250.12165228 13.6627274 286.8639052 13.70426132 323.60626082 C13.70926426 328.01607185 13.71444154 332.42588266 13.71972656 336.83569336 C13.7207758 337.71362255 13.72182505 338.59155174 13.72290608 339.49608485 C13.74032041 353.71909951 13.77186374 367.94204962 13.80861118 382.16502597 C13.84599205 396.75463619 13.8682298 411.34421256 13.87635398 425.93386871 C13.88184769 434.93948442 13.89921091 443.94491771 13.93166587 452.95047728 C13.95277854 459.12247579 13.95920743 465.29437972 13.95400551 471.46641173 C13.95143863 475.02960021 13.95542607 478.5924695 13.9768219 482.1556015 C13.99983565 486.01630346 13.9919697 489.87658727 13.98101807 493.73735046 C13.99266943 494.86672506 14.0043208 495.99609965 14.01632524 497.15969771 C13.95800771 504.73166449 13.95800771 504.73166449 11.59493637 508.69585896 C9.33313909 510.64369917 8.44379684 511.16024325 5.5 511.0625 C4.84 511.06378906 4.18 511.06507813 3.5 511.06640625 C0.50553595 510.21836467 -0.59641766 508.96448273 -2.5 506.5 C-2.89073887 503.68461139 -3.03528082 501.26141469 -2.99942875 498.4473505 C-3.00483371 497.62537187 -3.01023867 496.80339324 -3.01580742 495.95650616 C-3.02913174 493.18408658 -3.0138109 490.41255258 -2.99879456 487.64015198 C-3.00251918 485.63973112 -3.00800649 483.63931289 -3.01511139 481.63890117 C-3.02960836 476.12773129 -3.019164 470.61684273 -3.00482833 465.10568273 C-2.99374328 459.16761789 -3.00569702 453.22959601 -3.01501465 447.29153442 C-3.02812428 436.99762623 -3.02702155 426.70379285 -3.01642036 416.4098835 C-3.00128945 401.52106821 -3.01132171 386.63234641 -3.02793955 371.74353658 C-3.03563333 364.80963872 -3.04203699 357.87573967 -3.0480566 350.94184017 C-3.04865984 350.2476728 -3.04926308 349.55350544 -3.0498846 348.8383027 C-3.06392556 332.31171753 -3.06495837 315.78513506 -3.06420898 299.25854492 C-3.06418 298.53533156 -3.06415103 297.81211819 -3.06412117 297.06698927 C-3.0638538 290.47320473 -3.06349896 283.87942019 -3.06306899 277.28563565 C-3.06206713 261.14769889 -3.06341359 245.00976272 -3.06616211 228.87182617 C-3.06628087 228.14915048 -3.06639963 227.42647478 -3.06652199 226.68189982 C-3.06928895 210.18624692 -3.07503187 193.6906007 -3.08873653 177.19495296 C-3.0893104 176.50186973 -3.08988426 175.8087865 -3.09047552 175.09470075 C-3.09625664 168.17586605 -3.1024656 161.2570319 -3.10935917 154.33819822 C-3.12404528 139.46544588 -3.12993567 124.59276014 -3.11830606 109.72000366 C-3.10992202 98.87902171 -3.11174034 88.03808417 -3.12371845 77.19710536 C-3.12980751 71.32112225 -3.13083732 65.44524551 -3.11884117 59.56926918 C-3.1079346 54.19485651 -3.11065106 48.82063297 -3.12438463 43.44622838 C-3.12688993 41.49741554 -3.12426381 39.54858828 -3.11611075 37.59979088 C-3.10577317 34.95912422 -3.11374037 32.31913227 -3.12641239 29.67849064 C-3.11899231 28.91466156 -3.11157222 28.15083248 -3.10392728 27.36385706 C-3.14907609 22.90972305 -3.73769877 20.03786922 -6.5 16.5 C-9.63400885 14.93299558 -13.13155095 14.64835439 -16.5 15.5 C-19.49724853 18.38780453 -20.44098 20.05906063 -20.99860334 24.22507334 C-21.01837272 25.70848309 -21.01615496 27.19228427 -20.99663544 28.67569733 C-21.0017408 29.4988298 -21.00684617 30.32196228 -21.01210624 31.17003816 C-21.0244017 33.94036965 -21.00810271 36.70980065 -20.99206543 39.48010254 C-20.99507501 41.48138585 -20.99985041 43.48266715 -21.00624418 45.48394251 C-21.01878438 50.99285936 -21.00642696 56.50148605 -20.99016929 62.01038289 C-20.97702435 67.94774358 -20.98695566 73.88506906 -20.99427795 79.82243347 C-21.00396911 90.11359942 -20.99955851 100.40468693 -20.9858551 110.69584656 C-20.96627694 125.58066297 -20.97284913 140.46538655 -20.98642892 155.35020548 C-20.99271906 162.28323613 -20.99772816 169.21626771 -21.00240326 176.14929962 C-21.00310748 177.19038979 -21.00310748 177.19038979 -21.00382594 178.25251208 C-21.01470368 194.7739738 -21.01303422 211.29543055 -21.00927734 227.81689453 C-21.00911761 228.53982501 -21.00895787 229.26275549 -21.00879329 230.00759295 C-21.00634722 241.00506211 -21.00324752 252.00253106 -21 263 C-20.99653684 274.72770175 -20.99331401 286.45540349 -20.99072266 298.18310547 C-20.99055835 298.90564964 -20.99039405 299.62819381 -20.99022477 300.37263326 C-20.9865423 316.86532673 -20.98644058 333.35800963 -20.99759674 349.85070038 C-20.99829765 350.89012363 -20.99829765 350.89012363 -20.99901271 351.95054532 C-21.00375926 358.86799549 -21.00913322 365.78544487 -21.01544418 372.70289378 C-21.02887061 387.57195442 -21.03127322 402.44090172 -21.01147403 417.30995755 C-20.99720948 428.14746601 -20.99685164 438.98489785 -21.01021707 449.82240784 C-21.01694873 455.69640421 -21.01697079 461.57021031 -20.9996357 467.44418907 C-20.98388137 472.81675922 -20.9863212 478.18899593 -21.00348574 483.5615589 C-21.00641536 485.50967065 -21.00250501 487.45780659 -20.99122757 489.4058879 C-20.97689995 492.04577101 -20.98699129 494.68445789 -21.00336456 497.32430267 C-20.99331746 498.08784591 -20.98327036 498.85138914 -20.97291881 499.63807005 C-21.02189461 503.31300589 -21.40202738 505.34725254 -23.40603971 508.47167444 C-25.5 510.5 -25.5 510.5 -27.5 511.12890625 C-28.16 511.10699219 -28.82 511.08507812 -29.5 511.0625 C-30.16 511.06378906 -30.82 511.06507813 -31.5 511.06640625 C-34.49667719 510.21773791 -35.59622119 508.96802092 -37.5 506.5 C-37.89109978 503.66742908 -38.03597784 501.22464722 -38.00057125 498.39326096 C-38.00608542 497.56542762 -38.01159958 496.73759428 -38.01728085 495.88467509 C-38.03094782 493.09231307 -38.01594029 490.30083021 -38.00120544 487.50848389 C-38.00509575 485.49370183 -38.01073401 483.47892251 -38.01797634 481.46414971 C-38.03278828 475.91316548 -38.02251565 470.36246325 -38.00823963 464.81148791 C-37.99716597 458.83042143 -38.00906059 452.84939568 -38.01808167 446.86833191 C-38.03123417 435.82282414 -38.02621345 424.7773968 -38.01200638 413.7318971 C-37.99896396 403.52625586 -37.99375681 393.32064721 -37.99632454 383.11499786 C-37.99648495 382.43851024 -37.99664537 381.76202263 -37.99681065 381.06503538 C-37.99747422 378.31903331 -37.99817663 375.57303125 -37.99893599 372.8270292 C-38.00596407 347.05328521 -37.99045644 321.27959861 -37.96431253 295.50586923 C-37.94120703 272.60627108 -37.935805 249.70673608 -37.94604492 226.80712891 C-37.94864692 220.9457029 -37.95123193 215.08427689 -37.95364285 209.2228508 C-37.95394029 208.50124785 -37.95423774 207.7796449 -37.9545442 207.0361752 C-37.96216032 187.90649487 -37.95574557 168.77681972 -37.94494683 149.6471417 C-37.94379901 147.58847899 -37.94265584 145.52981627 -37.94152 143.47115356 C-37.94076475 142.10546834 -37.9399991 140.73978313 -37.93922299 139.37409793 C-37.93356463 129.17752175 -37.93489473 118.98096192 -37.93945122 108.78438568 C-37.94455989 97.18721221 -37.93840359 85.59009052 -37.91855692 73.99293032 C-37.90867779 68.07405124 -37.90358652 62.15527166 -37.91144943 56.23638725 C-37.91849858 50.81924778 -37.91171932 45.40230922 -37.8938458 39.98519626 C-37.88979627 38.02422125 -37.89080962 36.06322797 -37.89736467 34.10225973 C-37.90550924 31.43796726 -37.89520935 28.77435268 -37.88031673 26.11010361 C-37.88705439 25.34773819 -37.89379204 24.58537276 -37.90073386 23.79990536 C-37.82127901 16.45578188 -35.81536018 9.81536018 -30.5 4.5 C-21.83703669 -1.69033613 -10.2223672 -4.57687841 0 0 Z " fill="#000000" transform="translate(37.5,1.5)"/>
<path d="M0 0 C2.97726166 2.17313534 3.8964361 3.37407391 4.50336456 7.04226685 C4.50562672 8.84303177 4.50562672 8.84303177 4.50793457 10.68017578 C4.51729451 11.68562282 4.51729451 11.68562282 4.52684355 12.71138191 C4.54279259 14.95638377 4.53016303 17.20030269 4.51757812 19.4453125 C4.52299844 21.05516188 4.53012059 22.6650063 4.53881836 24.27484131 C4.55706558 28.64675795 4.54997852 33.01829734 4.53730202 37.39022064 C4.52718155 41.96344527 4.53656504 46.5366374 4.54284668 51.10986328 C4.55012587 58.79009811 4.54052827 66.47017914 4.52148438 74.15039062 C4.49971508 83.03235004 4.50676626 91.9139422 4.52879 100.79589272 C4.54693627 108.41893472 4.54950611 116.0418661 4.53903532 123.66492271 C4.53279612 128.21907955 4.53197641 132.7730637 4.54518127 137.32720947 C4.55672797 141.60861673 4.54873596 145.88955006 4.52560425 150.17090607 C4.52031079 151.74307722 4.52184184 153.31528818 4.53065491 154.88744354 C4.54156976 157.03211058 4.52789888 159.17525453 4.50793457 161.31982422 C4.50642647 162.52033417 4.50491837 163.72084412 4.50336456 164.95773315 C3.90070192 168.60014407 2.88377784 169.77110976 0 172 C-2 172.56640625 -2 172.56640625 -4 172.5625 C-4.99 172.59537109 -4.99 172.59537109 -6 172.62890625 C-9.15490061 171.63683789 -10.20306812 169.71301855 -12 167 C-12.50057125 163.88433075 -12.50057125 163.88433075 -12.50120544 160.32019043 C-12.50673984 159.6619942 -12.51227424 159.00379798 -12.51797634 158.32565641 C-12.5315534 156.12752357 -12.51663122 153.93053206 -12.50170898 151.73242188 C-12.50549327 150.15360533 -12.51099421 148.57479211 -12.51808167 146.99598694 C-12.53203943 142.71288475 -12.52086438 138.43018414 -12.50437045 134.14710426 C-12.490516 129.66378085 -12.49698048 125.18048065 -12.50050354 120.69714355 C-12.50320535 113.16830985 -12.48973258 105.6396356 -12.46655273 98.11083984 C-12.43994316 89.40785662 -12.438196 80.70514 -12.4499411 72.00213003 C-12.46072225 63.62838424 -12.45452916 55.25473484 -12.44038582 46.8809967 C-12.43462894 43.31809713 -12.43470635 39.75526816 -12.43945122 36.19236755 C-12.44422538 31.99636393 -12.43410125 27.80065204 -12.41249657 23.6047039 C-12.40693449 22.06520509 -12.4064581 20.52567821 -12.41144943 18.98617744 C-12.41741082 16.88373167 -12.40488217 14.78217527 -12.38768005 12.67980957 C-12.38525016 11.50364326 -12.38282026 10.32747696 -12.38031673 9.11566925 C-11.95876892 5.66222261 -11.06843633 3.77167898 -9 1 C-5.90826248 -0.54586876 -3.40570448 -0.29359521 0 0 Z " fill="#000000" transform="translate(473,340)"/>
<path d="M0 0 C4.52605609 0.71464044 5.56748945 2.1647794 8.5625 5.5625 C9.88849101 7.57704077 11.14325995 9.63984148 12.33203125 11.73828125 C12.82083015 12.5933149 12.82083015 12.5933149 13.31950378 13.46562195 C14.34562142 15.26454191 15.36043998 17.06954159 16.375 18.875 C17.07412848 20.10523928 17.77399174 21.3350613 18.47460938 22.56445312 C20.17908629 25.55903008 21.87349915 28.55916095 23.5625 31.5625 C23.5718457 30.76553711 23.58119141 29.96857422 23.59082031 29.14746094 C23.64451498 25.53517825 23.72816608 21.92419179 23.8125 18.3125 C23.82667969 17.05824219 23.84085937 15.80398437 23.85546875 14.51171875 C23.88769531 13.30644531 23.91992188 12.10117188 23.953125 10.859375 C23.9845459 9.19406738 23.9845459 9.19406738 24.01660156 7.49511719 C24.68111091 3.92531115 25.68552778 2.72312804 28.5625 0.5625 C32.58309163 -0.01187023 34.62618326 -0.1274176 37.9375 2.3125 C40.65227755 6.07142277 40.69160285 9.52355621 40.72363281 14.07788086 C40.73324036 15.18260239 40.7428479 16.28732391 40.75274658 17.42552185 C40.75699646 18.61412308 40.76124634 19.8027243 40.765625 21.02734375 C40.77132507 22.25280411 40.77702515 23.47826447 40.78289795 24.74085999 C40.79234216 27.33235817 40.79887963 29.92386833 40.80273438 32.51538086 C40.81245385 36.48116921 40.84348933 40.44644234 40.875 44.41210938 C40.88152883 46.92968442 40.88677977 49.44726317 40.890625 51.96484375 C40.9029718 53.15142075 40.9153186 54.33799774 40.92803955 55.56053162 C40.92503845 56.6684053 40.92203735 57.77627899 40.91894531 58.91772461 C40.92441376 60.37522377 40.92441376 60.37522377 40.92999268 61.86216736 C40.49325968 65.07127724 39.45362638 66.95517045 37.5625 69.5625 C34.42378812 71.13185594 32.02394178 70.91451103 28.5625 70.5625 C24.87872301 67.38351698 22.41679075 64.02747543 20.01171875 59.82421875 C19.39619141 58.75751953 18.78066406 57.69082031 18.14648438 56.59179688 C17.20772461 54.93760742 17.20772461 54.93760742 16.25 53.25 C15.60482422 52.12787109 14.95964844 51.00574219 14.29492188 49.84960938 C12.71031553 47.09122056 11.13314364 44.32885534 9.5625 41.5625 C9.54791748 42.26334717 9.53333496 42.96419434 9.51831055 43.6862793 C9.44364513 46.87473009 9.34704525 50.06215513 9.25 53.25 C9.22744141 54.35279297 9.20488281 55.45558594 9.18164062 56.59179688 C9.14619141 57.65849609 9.11074219 58.72519531 9.07421875 59.82421875 C9.04803467 60.80350342 9.02185059 61.78278809 8.99487305 62.79174805 C8.49371109 66.00331612 7.45481294 67.93961609 5.5625 70.5625 C3.6953125 71.4453125 3.6953125 71.4453125 1.6875 71.6875 C1.03007812 71.79320312 0.37265625 71.89890625 -0.3046875 72.0078125 C-2.91382324 71.46304789 -4.51913236 70.44019263 -6.35717773 68.5168457 C-8.94130889 63.84205025 -8.11858307 57.83853784 -8.06640625 52.65234375 C-8.06723549 51.27901522 -8.06969694 49.90568679 -8.07371521 48.53236389 C-8.07656842 45.65986106 -8.06191895 42.78814006 -8.03442383 39.91577148 C-8.00030777 36.23785633 -8.0063734 32.56133556 -8.0250864 28.88335323 C-8.03566436 26.04965125 -8.02671229 23.2162727 -8.01170158 20.38260078 C-8.00401568 18.36851933 -8.0113674 16.35439867 -8.01893616 14.34031677 C-8.00309982 13.11547073 -7.98726349 11.89062469 -7.97094727 10.62866211 C-7.96474869 9.55120224 -7.95855011 8.47374237 -7.9521637 7.3636322 C-7.05977716 2.50668836 -4.75063661 0.7773769 0 0 Z " fill="#000000" transform="translate(343.4375,107.4375)"/>
<path d="M0 0 C1.20527344 -0.00644531 2.41054688 -0.01289062 3.65234375 -0.01953125 C5.53759766 0.00947266 5.53759766 0.00947266 7.4609375 0.0390625 C9.31138672 0.01005859 9.31138672 0.01005859 11.19921875 -0.01953125 C20.12045764 0.02787172 27.16465647 1.48623428 33.94140625 7.54711914 C41.31044572 15.06154667 43.92438487 24.88122601 44.1484375 35.1640625 C44.03934831 45.5820803 41.64373843 54.79916568 34.75 62.79296875 C26.46972364 70.88736136 16.76801351 72.02222202 5.5859375 72.0390625 C4.71453125 72.06355469 3.843125 72.08804688 2.9453125 72.11328125 C-1.28069491 72.1326075 -3.55174083 72.045586 -7.2109375 69.765625 C-10.3057084 66.43565151 -10.29908475 64.47069766 -10.34106445 60.00854492 C-10.36031731 58.23111153 -10.36031731 58.23111153 -10.37995911 56.41777039 C-10.38734604 55.13135147 -10.39473297 53.84493256 -10.40234375 52.51953125 C-10.4104155 51.20245682 -10.41848724 49.88538239 -10.42680359 48.52839661 C-10.44183111 45.73662443 -10.45166863 42.94487771 -10.45922852 40.15307617 C-10.47028626 36.58182946 -10.50467806 33.011207 -10.54440022 29.44018078 C-10.57687628 26.02915595 -10.58134618 22.61819875 -10.58984375 19.20703125 C-10.60735184 17.92668503 -10.62485992 16.64633881 -10.64289856 15.32719421 C-10.63997299 14.13278214 -10.63704742 12.93837006 -10.6340332 11.70776367 C-10.63989944 10.65900558 -10.64576569 9.6102475 -10.65180969 8.52970886 C-9.56171121 2.12508615 -6.16430193 0.03193939 0 0 Z M5.8359375 16.6640625 C5.8359375 29.5340625 5.8359375 42.4040625 5.8359375 55.6640625 C16.17138158 55.84070782 16.17138158 55.84070782 24.1484375 50.3515625 C28.50280027 43.41683661 28.82748568 36.07174965 27.37109375 28.12890625 C26.28858923 24.29210029 24.92181518 21.77479951 22.4609375 18.6015625 C17.61013484 15.64274508 17.61013484 15.64274508 5.8359375 16.6640625 Z " fill="#000000" transform="translate(405.1640625,102.3359375)"/>
<path d="M0 0 C2.66796875 1.80078125 2.66796875 1.80078125 5 5 C5.61834125 8.95858906 5.46987758 12.81845212 5.3125 16.8125 C5.209375 20.504375 5.10625 24.19625 5 28 C12.59 28 20.18 28 28 28 C27.92118043 21.31392016 27.92118043 21.31392016 27.81982422 14.62817383 C27.8148291 13.78794678 27.80983398 12.94771973 27.8046875 12.08203125 C27.78897705 10.80162964 27.78897705 10.80162964 27.77294922 9.49536133 C28.03081255 6.66136009 28.76754951 4.55710084 30 2 C32.6597357 -0.16719206 34.08837596 0.00465137 37.5625 0.1875 C42.03575564 1.24481497 42.03575564 1.24481497 44 4 C44.39440918 6.80149841 44.39440918 6.80149841 44.41992188 10.24389648 C44.43583374 11.532108 44.45174561 12.82031952 44.46813965 14.14756775 C44.46940687 15.55540919 44.46958379 16.96325198 44.46875 18.37109375 C44.47585059 19.81454261 44.48354943 21.25798865 44.49182129 22.70143127 C44.50527066 25.72689662 44.50683302 28.75210101 44.50097656 31.77758789 C44.49508052 35.65291306 44.52566346 39.52698534 44.56609344 43.40206814 C44.59195668 46.38327264 44.5948492 49.36417493 44.59120178 52.34547615 C44.59289444 53.77402965 44.60255125 55.2025969 44.62034607 56.63104057 C44.64250125 58.62947463 44.62963537 60.62820401 44.61523438 62.62670898 C44.61728882 63.76349594 44.61934326 64.9002829 44.62145996 66.07151794 C44 69 44 69 41.68811035 71.40223694 C39 73 39 73 35.375 72.9375 C30.85714286 71.68253968 30.85714286 71.68253968 29 69 C27.98026871 65.94080612 27.88466398 63.87581975 27.90234375 60.67578125 C27.90484131 59.74934814 27.90733887 58.82291504 27.90991211 57.8684082 C27.91901611 56.6949585 27.92812012 55.52150879 27.9375 54.3125 C27.958125 50.579375 27.97875 46.84625 28 43 C20.41 43 12.82 43 5 43 C5.05800781 44.74667969 5.11601562 46.49335938 5.17578125 48.29296875 C5.22268228 50.59111911 5.26818206 52.88929837 5.3125 55.1875 C5.35439453 56.33798828 5.39628906 57.48847656 5.43945312 58.67382812 C5.56272693 67.17972101 5.56272693 67.17972101 2.73828125 71.296875 C-0.0078384 73.00487524 -1.00202514 73.60748973 -4.125 73.0625 C-5.11886719 72.92521484 -5.11886719 72.92521484 -6.1328125 72.78515625 C-8.73881381 71.68932725 -9.54204024 70.41602821 -11 68 C-11.39440918 65.16090393 -11.39440918 65.16090393 -11.41992188 61.84204102 C-11.43583374 60.59717422 -11.45174561 59.35230743 -11.46813965 58.06971741 C-11.46940692 56.7144476 -11.46958376 55.35917639 -11.46875 54.00390625 C-11.47585384 52.60912266 -11.48355317 51.21434199 -11.49182129 49.81956482 C-11.50525756 46.89842604 -11.50683886 43.97755749 -11.50097656 41.05639648 C-11.49508075 37.31906355 -11.52566827 33.58302987 -11.56609344 29.84594822 C-11.59198567 26.9659277 -11.59484661 24.08621942 -11.59120178 21.20609856 C-11.59289163 19.82860994 -11.60252143 18.4511067 -11.62034607 17.07373238 C-11.7598889 4.95784348 -11.7598889 4.95784348 -8.65039062 1.65600586 C-5.35260196 -0.40450451 -3.81589859 -0.79497887 0 0 Z " fill="#000000" transform="translate(133,106)"/>
<path d="M0 0 C2.18423185 -0.01721586 4.3669505 -0.06110433 6.55078125 -0.10522461 C7.94139513 -0.11535175 9.33202186 -0.12386779 10.72265625 -0.13061523 C12.62023682 -0.15248901 12.62023682 -0.15248901 14.55615234 -0.17480469 C18.37514652 0.37439326 19.52972699 1.25843212 21.82421875 4.29516602 C22.53304178 7.20301483 22.16393664 9.23770502 21.82421875 12.29516602 C20.01258608 14.96948091 18.94660798 15.25436961 15.82421875 16.29516602 C14.41596982 16.375386 13.00424644 16.40282579 11.59375 16.39282227 C10.79130859 16.38959961 9.98886719 16.38637695 9.16210938 16.38305664 C7.91204102 16.37048828 7.91204102 16.37048828 6.63671875 16.35766602 C5.79173828 16.3531543 4.94675781 16.34864258 4.07617188 16.34399414 C1.9921572 16.33222005 -0.09182102 16.31428492 -2.17578125 16.29516602 C-2.17578125 20.25516602 -2.17578125 24.21516602 -2.17578125 28.29516602 C-0.995 28.27196289 0.18578125 28.24875977 1.40234375 28.22485352 C2.95962908 28.20609104 4.51692127 28.18789135 6.07421875 28.17016602 C6.85152344 28.1534082 7.62882812 28.13665039 8.4296875 28.11938477 C15.69438261 28.05729335 15.69438261 28.05729335 18.82421875 30.29516602 C20.90580895 32.97149627 20.82009466 34.41270269 20.69921875 37.85766602 C19.82421875 41.29516602 19.82421875 41.29516602 18.34765625 42.99829102 C14.49516212 44.9782106 10.83449208 44.61247122 6.57421875 44.48266602 C5.73375 44.46913086 4.89328125 44.4555957 4.02734375 44.44165039 C1.95935937 44.40640066 -0.10829396 44.35259622 -2.17578125 44.29516602 C-2.17578125 48.58516602 -2.17578125 52.87516602 -2.17578125 57.29516602 C-0.07976562 57.22555664 -0.07976562 57.22555664 2.05859375 57.15454102 C3.89711404 57.11702019 5.73565745 57.08062037 7.57421875 57.04516602 C8.49460937 57.01165039 9.415 56.97813477 10.36328125 56.94360352 C17.15667616 56.84514852 17.15667616 56.84514852 20.4375 59.05688477 C22.73132827 62.75931743 22.30292837 64.98677942 21.82421875 69.29516602 C20.40826909 71.489888 19.52865122 72.07192416 17.07006836 72.85107422 C12.25989625 73.80223229 7.27221948 73.47989489 2.38671875 73.48266602 C1.25427734 73.49491211 0.12183594 73.5071582 -1.04492188 73.51977539 C-2.68557617 73.52267578 -2.68557617 73.52267578 -4.359375 73.52563477 C-5.35509521 73.52974365 -6.35081543 73.53385254 -7.37670898 73.53808594 C-11.48283326 73.18173237 -14.25189004 72.21905722 -17.17578125 69.29516602 C-18.29320381 66.0791518 -18.31388665 62.99596955 -18.33691406 59.61206055 C-18.34652161 58.47052521 -18.35612915 57.32898987 -18.36602783 56.15286255 C-18.37027771 54.92365082 -18.37452759 53.69443909 -18.37890625 52.42797852 C-18.38745636 50.52675735 -18.38745636 50.52675735 -18.3961792 48.58712769 C-18.40562525 45.90562349 -18.41252434 43.2242311 -18.41601562 40.54272461 C-18.4214983 37.1174717 -18.44553018 33.6926167 -18.47398758 30.26748848 C-18.49716013 26.98768223 -18.49906633 23.70785516 -18.50390625 20.42797852 C-18.51625305 19.20281525 -18.52859985 17.97765198 -18.5413208 16.71536255 C-18.513195 5.95799819 -18.513195 5.95799819 -15.17578125 1.29516602 C-10.7816926 -0.90187831 -4.88252006 0.02684509 0 0 Z " fill="#000000" transform="translate(302.17578125,109.704833984375)"/>
<path d="M0 0 C2.18423185 -0.01721586 4.3669505 -0.06110433 6.55078125 -0.10522461 C7.94139513 -0.11535175 9.33202186 -0.12386779 10.72265625 -0.13061523 C12.62023682 -0.15248901 12.62023682 -0.15248901 14.55615234 -0.17480469 C17.82421875 0.29516602 17.82421875 0.29516602 20.24072266 2.10302734 C22.5351186 5.27931183 22.30205561 7.47247113 21.82421875 11.29516602 C20.06406744 14.48020171 19.32530959 15.12813574 15.82421875 16.29516602 C14.41596982 16.375386 13.00424644 16.40282579 11.59375 16.39282227 C10.79130859 16.38959961 9.98886719 16.38637695 9.16210938 16.38305664 C7.91204102 16.37048828 7.91204102 16.37048828 6.63671875 16.35766602 C5.79173828 16.3531543 4.94675781 16.34864258 4.07617188 16.34399414 C1.9921572 16.33222005 -0.09182102 16.31428492 -2.17578125 16.29516602 C-2.17578125 20.25516602 -2.17578125 24.21516602 -2.17578125 28.29516602 C-0.42201172 28.22555664 -0.42201172 28.22555664 1.3671875 28.15454102 C2.91533895 28.11701007 4.46351814 28.08061133 6.01171875 28.04516602 C6.78064453 28.01165039 7.54957031 27.97813477 8.34179688 27.94360352 C12.2906259 27.87581246 14.35540991 28.02068208 17.83984375 30.06079102 C19.92523012 32.40890323 20.4888585 33.21895694 20.38671875 36.29516602 C20.38865234 37.28516602 20.38865234 37.28516602 20.390625 38.29516602 C19.51660451 41.3813625 18.47274533 42.45625048 15.82421875 44.29516602 C12.72499014 44.77872828 9.7010897 44.67219515 6.57421875 44.54516602 C5.31351563 44.5180957 5.31351563 44.5180957 4.02734375 44.49047852 C1.9591448 44.44347399 -0.10846566 44.37173326 -2.17578125 44.29516602 C-2.17578125 48.58516602 -2.17578125 52.87516602 -2.17578125 57.29516602 C-0.07976562 57.22555664 -0.07976562 57.22555664 2.05859375 57.15454102 C3.89711404 57.11702019 5.73565745 57.08062037 7.57421875 57.04516602 C8.49460938 57.01165039 9.415 56.97813477 10.36328125 56.94360352 C17.17042571 56.84494925 17.17042571 56.84494925 20.43359375 59.09204102 C22.48040366 62.33473987 22.35998336 64.54481371 21.82421875 68.29516602 C19.60558846 71.20233675 18.30476946 72.13498244 14.82421875 73.29516602 C10.70310417 73.52936498 6.57628165 73.48034222 2.44921875 73.48266602 C1.31226563 73.49491211 0.1753125 73.5071582 -0.99609375 73.51977539 C-2.094375 73.52170898 -3.19265625 73.52364258 -4.32421875 73.52563477 C-5.82734619 73.5317981 -5.82734619 73.5317981 -7.36083984 73.53808594 C-11.27762953 73.20008024 -14.04261606 72.48634213 -16.79663086 69.59133911 C-18.55711424 66.66027764 -18.55628574 64.73021 -18.56396484 61.32080078 C-18.57342133 60.11597549 -18.58287781 58.91115021 -18.59262085 57.66981506 C-18.58654816 56.37184494 -18.58047546 55.07387482 -18.57421875 53.73657227 C-18.57624085 52.38663068 -18.57915342 51.03669017 -18.58291626 49.68675232 C-18.5873348 46.85974714 -18.58092511 44.03302671 -18.56689453 41.20605469 C-18.54981885 37.59007576 -18.5596358 33.97476568 -18.57761192 30.35881138 C-18.58847676 27.57145695 -18.58499087 24.78425984 -18.57722855 21.99690056 C-18.57426543 20.01775044 -18.58334681 18.03859411 -18.59262085 16.0594635 C-18.58316437 14.85148605 -18.57370789 13.64350861 -18.56396484 12.39892578 C-18.56157806 11.33843521 -18.55919128 10.27794464 -18.55673218 9.18531799 C-18.11954712 5.86853575 -17.14445451 3.97749413 -15.17578125 1.29516602 C-10.7816926 -0.90187831 -4.88252006 0.02684509 0 0 Z " fill="#000000" transform="translate(207.17578125,109.704833984375)"/>
<path d="M0 0 C1.24033241 -0.00006042 1.24033241 -0.00006042 2.50572205 -0.00012207 C4.24811432 0.00522392 5.99050673 0.02276746 7.73266602 0.05175781 C10.39739709 0.09367219 13.05960367 0.09281937 15.72460938 0.0859375 C17.42059045 0.09642883 19.11655853 0.10936663 20.8125 0.125 C21.6073732 0.12520142 22.4022464 0.12540283 23.22120667 0.12561035 C26.47001465 0.19505985 28.92197591 0.37211662 31.81811523 1.90820312 C34.23501365 4.58528746 34.2164154 7.07604204 34.33984375 10.59375 C33.54565283 13.26511945 32.94026548 14.21798495 30.5859375 15.69140625 C27.92990531 16.75843831 25.94146987 16.79379279 23.08984375 16.71875 C22.1978125 16.70070313 21.30578125 16.68265625 20.38671875 16.6640625 C19.71125 16.64085938 19.03578125 16.61765625 18.33984375 16.59375 C18.34428497 17.22379944 18.3487262 17.85384888 18.353302 18.50299072 C18.39752557 25.0564955 18.42770617 31.60995793 18.44970703 38.16357422 C18.45976879 40.60988079 18.47341956 43.05617533 18.49072266 45.50244141 C18.51496294 49.01728282 18.52632513 52.5319653 18.53515625 56.046875 C18.54547882 57.1417926 18.55580139 58.23671021 18.56643677 59.36480713 C18.56666336 60.89594147 18.56666336 60.89594147 18.56689453 62.45800781 C18.57133575 63.35513489 18.57577698 64.25226196 18.58035278 65.17657471 C18.32098473 67.7832878 17.71306254 69.37772148 16.33984375 71.59375 C13.66351349 73.6753402 12.22230707 73.58962591 8.77734375 73.46875 C5.33984375 72.59375 5.33984375 72.59375 3.64628601 70.86578369 C2.07773878 68.13792326 1.97645354 66.49933864 1.99926758 63.36621094 C1.99949417 62.32543396 1.99972076 61.28465698 1.99995422 60.21234131 C2.01543808 59.09554993 2.03092194 57.97875854 2.046875 56.828125 C2.05111984 55.67959045 2.05536469 54.53105591 2.05973816 53.34771729 C2.07653042 49.6794897 2.11418477 46.01181153 2.15234375 42.34375 C2.16738983 39.85677877 2.18107836 37.36979892 2.19335938 34.8828125 C2.22643579 28.78627088 2.27664119 22.69004969 2.33984375 16.59375 C1.58276123 16.61840332 0.82567871 16.64305664 0.0456543 16.66845703 C-1.44260864 16.69721924 -1.44260864 16.69721924 -2.9609375 16.7265625 C-3.94489502 16.75121582 -4.92885254 16.77586914 -5.94262695 16.80126953 C-8.66015625 16.59375 -8.66015625 16.59375 -11.84765625 14.46875 C-14.00679593 11.04390775 -14.48646491 9.56003159 -13.66015625 5.59375 C-9.57322618 0.17181271 -6.33931655 -0.13109025 0 0 Z " fill="#000000" transform="translate(76.66015625,100.40625)"/>
</svg>
