<?xml version="1.0" encoding="UTF-8"?>
<svg version="1.1" xmlns="http://www.w3.org/2000/svg" width="512" height="512">
<path d="M0 0 C1.09457962 -0.00538554 2.18915924 -0.01077108 3.31690794 -0.01631981 C6.98568331 -0.03063046 10.65409945 -0.02348778 14.32289124 -0.01637268 C16.95278209 -0.02207459 19.58267047 -0.02903815 22.21255493 -0.03717041 C28.61499101 -0.05435827 35.01732894 -0.05519848 41.41978209 -0.04995751 C46.62410886 -0.0459146 51.82840663 -0.04736079 57.03273201 -0.05270576 C57.77369482 -0.05345419 58.51465763 -0.05420261 59.27807387 -0.05497371 C60.78338055 -0.0565052 62.28868723 -0.05804355 63.7939939 -0.05958868 C77.90742298 -0.07331363 92.02079661 -0.06787604 106.13422442 -0.05640347 C119.04282249 -0.04647069 131.95127724 -0.05941249 144.8598532 -0.08333766 C158.11852737 -0.10772633 171.37713478 -0.11733713 184.63583094 -0.11068493 C192.0779411 -0.10719224 199.51994103 -0.10942805 206.96203423 -0.12693596 C213.95934484 -0.14319348 220.95637712 -0.1384799 227.95368004 -0.11963081 C230.5227732 -0.11593736 233.09188655 -0.11907529 235.66096115 -0.1295166 C239.16613779 -0.14267558 242.67040007 -0.13122279 246.17553711 -0.11352539 C247.19382864 -0.1231304 248.21212018 -0.1327354 249.26126903 -0.14263147 C255.421219 -0.07857515 259.13804147 0.72396621 264.15126038 4.38768005 C267.13322995 8.7540295 267.52009231 12.27671575 267.49183655 17.49461365 C267.49227463 18.17823975 267.49271271 18.86186584 267.49316406 19.56620789 C267.49108837 21.8064771 267.46781661 24.04598048 267.44422913 26.28611755 C267.4386288 27.84695527 267.43436076 29.40779829 267.43136597 30.96864319 C267.41995151 35.06224818 267.39051404 39.15553016 267.35725403 43.24900818 C267.3264795 47.43190645 267.3128449 51.61485728 267.29774475 55.7978363 C267.26564069 63.99459856 267.21448598 72.19109904 267.15126038 80.38768005 C268.09594177 80.35625916 268.09594177 80.35625916 269.05970764 80.32420349 C271.94422609 80.24047906 274.82848806 80.18884384 277.71376038 80.13768005 C278.70440491 80.10416443 279.69504944 80.0706488 280.7157135 80.03611755 C287.09569263 79.95133378 291.08385207 80.36571603 296.15126038 84.38768005 C300.29565392 90.19060617 299.55971142 96.65867771 299.51202393 103.48542786 C299.51333275 104.83529296 299.5159606 106.18515731 299.51979142 107.53501761 C299.52649325 111.23847253 299.51450804 114.94166672 299.49945724 118.64508843 C299.48649672 122.64093016 299.49088635 126.6367573 299.49316406 130.63261414 C299.49473679 137.55375525 299.48532768 144.47481148 299.46845055 151.39593124 C299.444065 161.4026834 299.43625573 171.40939453 299.43248657 181.41617317 C299.42592139 197.65165316 299.40595841 213.88708791 299.37757874 230.12254333 C299.3500399 245.89337437 299.32880545 261.66419311 299.3160553 277.43504333 C299.31526713 278.40722755 299.31447896 279.37941177 299.3136669 280.38105612 C299.30975178 285.25823946 299.30596066 290.13542289 299.30223119 295.01260638 C299.27113321 335.47099574 299.21829558 375.92933531 299.15126038 416.38768005 C300.26573547 416.36673279 301.38021057 416.34578552 302.52845764 416.32420349 C306.68620316 416.25148598 310.84389311 416.2057656 315.00209045 416.16795349 C316.7974342 416.14791004 318.59271324 416.12066755 320.38783264 416.08592224 C322.97710687 416.03708156 325.56551378 416.01463886 328.15516663 415.99705505 C328.95024124 415.97640991 329.74531586 415.95576477 330.56448364 415.93449402 C336.23447162 415.93224079 339.48372037 417.13467029 344.15126038 420.38768005 C348.2137583 425.62961286 347.90756432 432.04832336 347.15126038 438.38768005 C345.89810961 442.42325032 344.07891943 444.82683449 340.40382957 447.04872608 C336.89696165 448.49236477 334.50964637 448.75792725 330.7351532 448.7484436 C329.4647821 448.7525676 328.19441101 448.75669159 326.88554382 448.76094055 C325.49055266 448.7503252 324.09556366 448.7394208 322.70057678 448.72825623 C321.22187823 448.7274094 319.74317841 448.72788617 318.26448059 448.72958374 C314.26072018 448.73044297 310.25723049 448.71282901 306.25353289 448.69186187 C302.06551525 448.673083 297.87749111 448.67134367 293.68943787 448.66778564 C285.76348448 448.65846873 277.83765552 448.63385975 269.91175687 448.60373718 C260.88641403 448.57018215 251.86106519 448.55370439 242.83567548 448.53865087 C224.27413329 448.50730987 205.71270684 448.45455626 187.15126038 448.38768005 C187.14629516 447.40922497 187.14629516 447.40922497 187.14122963 446.41100311 C187.05991194 430.51885403 186.96779094 414.62680951 186.86373329 398.73479462 C186.81367014 391.04944843 186.76722664 383.36411257 186.72938538 375.67869568 C186.6963831 368.97794189 186.65650672 362.27726977 186.60847032 355.57660627 C186.58328695 352.03060754 186.56148189 348.48466242 186.54791641 344.93859863 C186.53262177 340.97426207 186.50197619 337.0101228 186.47010803 333.04588318 C186.46794785 331.87775085 186.46578766 330.70961853 186.46356201 329.50608826 C186.42109858 318.90709384 186.42109858 318.90709384 182.02626038 309.51268005 C175.95160412 305.02271673 168.83053488 305.09450681 161.55751038 305.12889099 C160.63284973 305.12538635 159.70818909 305.12188171 158.75550842 305.11827087 C155.72068109 305.10951971 152.68608979 305.11527929 149.65126038 305.12205505 C147.52951513 305.1207065 145.40777019 305.11876439 143.286026 305.11625671 C138.84784491 305.11331441 134.40974455 305.11757436 129.97157288 305.12693787 C124.29576694 305.1383318 118.6201502 305.13176755 112.9443512 305.11979294 C108.56563402 305.11255023 104.18696135 305.11487335 99.8082428 305.12004852 C97.71595741 305.12137835 95.62366792 305.11976078 93.53138733 305.11508942 C90.60248681 305.10998452 87.67388852 305.11778999 84.74501038 305.12889099 C83.88867004 305.12484253 83.03232971 305.12079407 82.15003967 305.11662292 C75.68171358 305.16181534 69.63212115 305.55400035 64.27626038 309.51268005 C59.19582575 316.38620926 59.84755556 324.85731345 59.83241272 333.04588318 C59.8223671 334.29550842 59.81232147 335.54513367 59.80197144 336.83262634 C59.77648798 340.23703873 59.75956721 343.64128658 59.74654341 347.04575539 C59.73084645 350.61188553 59.70407739 354.1779327 59.67851257 357.7440033 C59.63184046 364.48690567 59.59504062 371.22982385 59.5618397 377.97280455 C59.52353626 385.65366925 59.4741478 393.33445038 59.42385554 401.01524448 C59.32070787 416.80599581 59.23139202 432.59679413 59.15126038 448.38768005 C39.71462823 448.48116495 20.27804178 448.55167963 0.84123135 448.59492874 C-8.18383873 448.61554476 -17.20876903 448.64364697 -26.23374939 448.68943787 C-34.10089285 448.72933507 -41.96793507 448.75511985 -49.83517689 448.76403403 C-53.99999237 448.76924392 -58.16451823 448.78146886 -62.3292408 448.81060028 C-66.25185784 448.83781509 -70.17406684 448.84611291 -74.09676933 448.84011078 C-75.5338653 448.84120832 -76.97097537 448.84912636 -78.4079895 448.86450195 C-91.95900808 449.00234242 -91.95900808 449.00234242 -97.84873962 444.38768005 C-102.12398857 439.00914105 -101.58909768 431.92612308 -100.84873962 425.38768005 C-98.54519631 420.2490065 -95.99227251 418.45533753 -90.84873962 416.38768005 C-87.87372226 416.00300377 -84.94589672 416.0367492 -81.95030212 416.0947113 C-81.1153421 416.09895615 -80.28038208 416.10320099 -79.42012024 416.10757446 C-76.77098927 416.12427673 -74.12263803 416.1619123 -71.47373962 416.20018005 C-69.67036525 416.21523786 -67.86697886 416.22892434 -66.06358337 416.24119568 C-61.65833812 416.27415243 -57.25367077 416.32587536 -52.84873962 416.38768005 C-52.85025851 415.6980363 -52.85177739 415.00839254 -52.85334229 414.29785049 C-52.94282293 373.43874584 -53.01146983 332.57965255 -53.05300094 291.72046965 C-53.05800387 286.81624535 -53.06318115 281.91202124 -53.06846619 277.00779724 C-53.06951543 276.03144007 -53.07056467 275.05508291 -53.07164571 274.04913916 C-53.08905867 258.23280474 -53.12060128 242.41652837 -53.15735081 226.60022841 C-53.19473541 210.37548502 -53.21697022 194.15077206 -53.2250936 177.92598736 C-53.23058653 167.91157661 -53.24794556 157.89732995 -53.28040549 147.88296969 C-53.30152276 141.01901703 -53.307946 134.15514939 -53.30274513 127.29116659 C-53.300179 123.3288893 -53.3041576 119.36689908 -53.32556152 115.40467262 C-53.34501329 111.77737697 -53.34601897 108.1505617 -53.3323352 104.52324404 C-53.32984233 102.58905901 -53.34710677 100.65487971 -53.36506486 98.72077644 C-53.32096094 92.34670429 -53.2780359 88.16415181 -48.84873962 83.38768005 C-43.50127865 79.46346639 -37.8208815 80.04047777 -31.47373962 80.20018005 C-29.94039978 80.22048279 -29.94039978 80.22048279 -28.37608337 80.24119568 C-25.86641913 80.27637789 -23.35785872 80.32560466 -20.84873962 80.38768005 C-20.85762207 79.51151031 -20.86650452 78.63534058 -20.87565613 77.73262024 C-20.95589885 69.46407038 -21.01675318 61.19565183 -21.05598831 52.92680168 C-21.0768379 48.67596157 -21.10510696 44.42544395 -21.15049744 40.17478943 C-21.1940498 36.0704495 -21.2178965 31.96641922 -21.2282486 27.861866 C-21.2356232 26.29818474 -21.25002429 24.73451988 -21.27165985 23.17097092 C-21.30082025 20.9757488 -21.30469059 18.78179604 -21.30284119 16.58641052 C-21.31172363 15.33842682 -21.32060608 14.09044312 -21.32975769 12.80464172 C-20.74192153 8.62888667 -19.58587791 6.58084194 -16.84873962 3.38768005 C-11.39502975 -0.25060913 -6.32135683 -0.03722765 0 0 Z M47.15126038 53.38768005 C41.77614577 60.43093368 42.96501067 69.64281669 42.96595764 78.07273865 C42.96377357 80.2495334 42.94558957 82.4258186 42.926651 84.6025238 C42.69936946 96.45727385 42.69936946 96.45727385 47.02626038 107.26268005 C50.76291271 110.99933239 53.78312382 111.69597348 59.02626038 111.76268005 C64.21287288 111.66791856 67.26852564 111.07130018 71.15126038 107.38768005 C76.52637498 100.34442643 75.33751008 91.13254342 75.33656311 82.70262146 C75.33874719 80.52582671 75.35693119 78.3495415 75.37586975 76.1728363 C75.60315129 64.31808626 75.60315129 64.31808626 71.27626038 53.51268005 C67.53960804 49.77602772 64.51939693 49.07938663 59.27626038 49.01268005 C54.08964787 49.10744155 51.03399511 49.70405992 47.15126038 53.38768005 Z M111.15126038 53.38768005 C105.77614577 60.43093368 106.96501067 69.64281669 106.96595764 78.07273865 C106.96377357 80.2495334 106.94558957 82.4258186 106.926651 84.6025238 C106.69936946 96.45727385 106.69936946 96.45727385 111.02626038 107.26268005 C114.76291271 110.99933239 117.78312382 111.69597348 123.02626038 111.76268005 C128.21287288 111.66791856 131.26852564 111.07130018 135.15126038 107.38768005 C140.52637498 100.34442643 139.33751008 91.13254342 139.33656311 82.70262146 C139.33874719 80.52582671 139.35693119 78.3495415 139.37586975 76.1728363 C139.60315129 64.31808626 139.60315129 64.31808626 135.27626038 53.51268005 C131.53960804 49.77602772 128.51939693 49.07938663 123.27626038 49.01268005 C118.08964787 49.10744155 115.03399511 49.70405992 111.15126038 53.38768005 Z M175.15126038 53.38768005 C169.77614577 60.43093368 170.96501067 69.64281669 170.96595764 78.07273865 C170.96377357 80.2495334 170.94558957 82.4258186 170.926651 84.6025238 C170.69936946 96.45727385 170.69936946 96.45727385 175.02626038 107.26268005 C178.76291271 110.99933239 181.78312382 111.69597348 187.02626038 111.76268005 C192.21287288 111.66791856 195.26852564 111.07130018 199.15126038 107.38768005 C204.52637498 100.34442643 203.33751008 91.13254342 203.33656311 82.70262146 C203.33874719 80.52582671 203.35693119 78.3495415 203.37586975 76.1728363 C203.60315129 64.31808626 203.60315129 64.31808626 199.27626038 53.51268005 C195.53960804 49.77602772 192.51939693 49.07938663 187.27626038 49.01268005 C182.08964787 49.10744155 179.03399511 49.70405992 175.15126038 53.38768005 Z M15.15126038 133.38768005 C9.77614577 140.43093368 10.96501067 149.64281669 10.96595764 158.07273865 C10.96377357 160.2495334 10.94558957 162.4258186 10.926651 164.6025238 C10.69936946 176.45727385 10.69936946 176.45727385 15.02626038 187.26268005 C18.76291271 190.99933239 21.78312382 191.69597348 27.02626038 191.76268005 C32.21287288 191.66791856 35.26852564 191.07130018 39.15126038 187.38768005 C44.52637498 180.34442643 43.33751008 171.13254342 43.33656311 162.70262146 C43.33874719 160.52582671 43.35693119 158.3495415 43.37586975 156.1728363 C43.60315129 144.31808626 43.60315129 144.31808626 39.27626038 133.51268005 C35.53960804 129.77602772 32.51939693 129.07938663 27.27626038 129.01268005 C22.08964787 129.10744155 19.03399511 129.70405992 15.15126038 133.38768005 Z M79.15126038 133.38768005 C73.77614577 140.43093368 74.96501067 149.64281669 74.96595764 158.07273865 C74.96377357 160.2495334 74.94558957 162.4258186 74.926651 164.6025238 C74.69936946 176.45727385 74.69936946 176.45727385 79.02626038 187.26268005 C82.76291271 190.99933239 85.78312382 191.69597348 91.02626038 191.76268005 C96.21287288 191.66791856 99.26852564 191.07130018 103.15126038 187.38768005 C108.52637498 180.34442643 107.33751008 171.13254342 107.33656311 162.70262146 C107.33874719 160.52582671 107.35693119 158.3495415 107.37586975 156.1728363 C107.60315129 144.31808626 107.60315129 144.31808626 103.27626038 133.51268005 C99.53960804 129.77602772 96.51939693 129.07938663 91.27626038 129.01268005 C86.08964787 129.10744155 83.03399511 129.70405992 79.15126038 133.38768005 Z M143.15126038 133.38768005 C137.77614577 140.43093368 138.96501067 149.64281669 138.96595764 158.07273865 C138.96377357 160.2495334 138.94558957 162.4258186 138.926651 164.6025238 C138.69936946 176.45727385 138.69936946 176.45727385 143.02626038 187.26268005 C146.76291271 190.99933239 149.78312382 191.69597348 155.02626038 191.76268005 C160.21287288 191.66791856 163.26852564 191.07130018 167.15126038 187.38768005 C172.52637498 180.34442643 171.33751008 171.13254342 171.33656311 162.70262146 C171.33874719 160.52582671 171.35693119 158.3495415 171.37586975 156.1728363 C171.60315129 144.31808626 171.60315129 144.31808626 167.27626038 133.51268005 C163.53960804 129.77602772 160.51939693 129.07938663 155.27626038 129.01268005 C150.08964787 129.10744155 147.03399511 129.70405992 143.15126038 133.38768005 Z M207.15126038 133.38768005 C201.77614577 140.43093368 202.96501067 149.64281669 202.96595764 158.07273865 C202.96377357 160.2495334 202.94558957 162.4258186 202.926651 164.6025238 C202.69936946 176.45727385 202.69936946 176.45727385 207.02626038 187.26268005 C210.76291271 190.99933239 213.78312382 191.69597348 219.02626038 191.76268005 C224.21287288 191.66791856 227.26852564 191.07130018 231.15126038 187.38768005 C236.52637498 180.34442643 235.33751008 171.13254342 235.33656311 162.70262146 C235.33874719 160.52582671 235.35693119 158.3495415 235.37586975 156.1728363 C235.60315129 144.31808626 235.60315129 144.31808626 231.27626038 133.51268005 C227.53960804 129.77602772 224.51939693 129.07938663 219.27626038 129.01268005 C214.08964787 129.10744155 211.03399511 129.70405992 207.15126038 133.38768005 Z M15.15126038 229.38768005 C9.77614577 236.43093368 10.96501067 245.64281669 10.96595764 254.07273865 C10.96377357 256.2495334 10.94558957 258.4258186 10.926651 260.6025238 C10.69936946 272.45727385 10.69936946 272.45727385 15.02626038 283.26268005 C18.76291271 286.99933239 21.78312382 287.69597348 27.02626038 287.76268005 C32.21287288 287.66791856 35.26852564 287.07130018 39.15126038 283.38768005 C44.52637498 276.34442643 43.33751008 267.13254342 43.33656311 258.70262146 C43.33874719 256.52582671 43.35693119 254.3495415 43.37586975 252.1728363 C43.60315129 240.31808626 43.60315129 240.31808626 39.27626038 229.51268005 C35.53960804 225.77602772 32.51939693 225.07938663 27.27626038 225.01268005 C22.08964787 225.10744155 19.03399511 225.70405992 15.15126038 229.38768005 Z M79.15126038 229.38768005 C73.77614577 236.43093368 74.96501067 245.64281669 74.96595764 254.07273865 C74.96377357 256.2495334 74.94558957 258.4258186 74.926651 260.6025238 C74.69936946 272.45727385 74.69936946 272.45727385 79.02626038 283.26268005 C82.76291271 286.99933239 85.78312382 287.69597348 91.02626038 287.76268005 C96.21287288 287.66791856 99.26852564 287.07130018 103.15126038 283.38768005 C108.52637498 276.34442643 107.33751008 267.13254342 107.33656311 258.70262146 C107.33874719 256.52582671 107.35693119 254.3495415 107.37586975 252.1728363 C107.60315129 240.31808626 107.60315129 240.31808626 103.27626038 229.51268005 C99.53960804 225.77602772 96.51939693 225.07938663 91.27626038 225.01268005 C86.08964787 225.10744155 83.03399511 225.70405992 79.15126038 229.38768005 Z M143.15126038 229.38768005 C137.77614577 236.43093368 138.96501067 245.64281669 138.96595764 254.07273865 C138.96377357 256.2495334 138.94558957 258.4258186 138.926651 260.6025238 C138.69936946 272.45727385 138.69936946 272.45727385 143.02626038 283.26268005 C146.76291271 286.99933239 149.78312382 287.69597348 155.02626038 287.76268005 C160.21287288 287.66791856 163.26852564 287.07130018 167.15126038 283.38768005 C172.52637498 276.34442643 171.33751008 267.13254342 171.33656311 258.70262146 C171.33874719 256.52582671 171.35693119 254.3495415 171.37586975 252.1728363 C171.60315129 240.31808626 171.60315129 240.31808626 167.27626038 229.51268005 C163.53960804 225.77602772 160.51939693 225.07938663 155.27626038 225.01268005 C150.08964787 225.10744155 147.03399511 225.70405992 143.15126038 229.38768005 Z M207.15126038 229.38768005 C201.77614577 236.43093368 202.96501067 245.64281669 202.96595764 254.07273865 C202.96377357 256.2495334 202.94558957 258.4258186 202.926651 260.6025238 C202.69936946 272.45727385 202.69936946 272.45727385 207.02626038 283.26268005 C210.76291271 286.99933239 213.78312382 287.69597348 219.02626038 287.76268005 C224.21287288 287.66791856 227.26852564 287.07130018 231.15126038 283.38768005 C236.52637498 276.34442643 235.33751008 267.13254342 235.33656311 258.70262146 C235.33874719 256.52582671 235.35693119 254.3495415 235.37586975 252.1728363 C235.60315129 240.31808626 235.60315129 240.31808626 231.27626038 229.51268005 C227.53960804 225.77602772 224.51939693 225.07938663 219.27626038 225.01268005 C214.08964787 225.10744155 211.03399511 225.70405992 207.15126038 229.38768005 Z M-0.84873962 325.38768005 C-6.22385423 332.43093368 -5.03498933 341.64281669 -5.03404236 350.07273865 C-5.03622643 352.2495334 -5.05441043 354.4258186 -5.073349 356.6025238 C-5.30063054 368.45727385 -5.30063054 368.45727385 -0.97373962 379.26268005 C2.76291271 382.99933239 5.78312382 383.69597348 11.02626038 383.76268005 C16.21287288 383.66791856 19.26852564 383.07130018 23.15126038 379.38768005 C28.52637498 372.34442643 27.33751008 363.13254342 27.33656311 354.70262146 C27.33874719 352.52582671 27.35693119 350.3495415 27.37586975 348.1728363 C27.60315129 336.31808626 27.60315129 336.31808626 23.27626038 325.51268005 C19.53960804 321.77602772 16.51939693 321.07938663 11.27626038 321.01268005 C6.08964787 321.10744155 3.03399511 321.70405992 -0.84873962 325.38768005 Z M223.15126038 325.38768005 C217.77614577 332.43093368 218.96501067 341.64281669 218.96595764 350.07273865 C218.96377357 352.2495334 218.94558957 354.4258186 218.926651 356.6025238 C218.69936946 368.45727385 218.69936946 368.45727385 223.02626038 379.26268005 C226.76291271 382.99933239 229.78312382 383.69597348 235.02626038 383.76268005 C240.21287288 383.66791856 243.26852564 383.07130018 247.15126038 379.38768005 C252.52637498 372.34442643 251.33751008 363.13254342 251.33656311 354.70262146 C251.33874719 352.52582671 251.35693119 350.3495415 251.37586975 348.1728363 C251.60315129 336.31808626 251.60315129 336.31808626 247.27626038 325.51268005 C243.53960804 321.77602772 240.51939693 321.07938663 235.27626038 321.01268005 C230.08964787 321.10744155 227.03399511 321.70405992 223.15126038 325.38768005 Z " fill="#000000" transform="translate(132.84873962402344,31.612319946289063)"/>
<path d="M0 0 C21.12 0 42.24 0 64 0 C64 36.96 64 73.92 64 112 C42.88 112 21.76 112 0 112 C0 75.04 0 38.08 0 0 Z " fill="#000000" transform="translate(224,368)"/>
</svg>
