<?xml version="1.0" encoding="UTF-8"?>
<svg version="1.1" xmlns="http://www.w3.org/2000/svg" width="512" height="512">
<path d="M0 0 C0.88351135 0.00021149 1.76702271 0.00042297 2.67730713 0.00064087 C16.67680535 0.03405067 29.99869066 0.95039845 43.625 4.375 C44.42969727 4.56755371 45.23439453 4.76010742 46.06347656 4.95849609 C76.78603388 12.39979539 105.26866207 27.89360418 128.40625 49.3671875 C129.95813242 50.77153181 131.56448628 52.11692411 133.20703125 53.4140625 C135.32965149 55.13547666 137.04572317 56.8039197 138.8125 58.875 C139.70001953 59.91527344 139.70001953 59.91527344 140.60546875 60.9765625 C141.27191406 61.76804688 141.93835938 62.55953125 142.625 63.375 C143.42550781 64.31085938 144.22601563 65.24671875 145.05078125 66.2109375 C176.37178551 103.1877832 193.66907403 151.64491414 190.23120117 200.30297852 C187.46445511 231.08193287 177.50524039 260.41762032 162.625 287.375 C162.18945801 288.16729004 161.75391602 288.95958008 161.30517578 289.77587891 C152.90822399 304.81678562 142.97674146 318.9766811 133.38671875 333.26953125 C126.19318761 343.99137717 119.09484766 354.77520565 112 365.5625 C103.29111563 378.79856558 94.55343583 392.01412235 85.75 405.1875 C79.40903711 414.6776876 73.10624759 424.18905366 66.89086914 433.76220703 C59.87177603 444.56095788 52.77607099 455.3092869 45.6875 466.0625 C45.05262665 467.02588287 44.4177533 467.98926575 43.76364136 468.98184204 C40.22085164 474.35747867 36.67534335 479.73130261 33.12579346 485.10247803 C31.78485351 487.13294762 30.44655041 489.16512546 29.10888672 491.19775391 C28.41166504 492.25269043 27.71444336 493.30762695 26.99609375 494.39453125 C26.42689209 495.25796143 25.85769043 496.1213916 25.27124023 497.01098633 C20.72048161 503.54591081 15.69179903 510.39114552 7.625 512.375 C0.78096965 513.13633827 -6.47059811 513.59639394 -12.52734375 509.8671875 C-19.08857189 504.56826752 -23.65527886 498.15825259 -27.98828125 491.03125 C-32.73368093 483.33750735 -37.68767971 475.8034235 -42.72711182 468.29995728 C-45.33837499 464.41100097 -47.94067417 460.51605492 -50.54296875 456.62109375 C-51.09303589 455.79796188 -51.64310303 454.97483002 -52.20983887 454.12675476 C-58.85221526 444.17713117 -65.42465663 434.18148871 -72 424.1875 C-80.70945488 410.95180626 -89.44656115 397.73588217 -98.25 384.5625 C-104.59487319 375.06646007 -110.90920238 365.55395995 -117.11791992 355.96801758 C-120.85935232 350.20184559 -124.63875031 344.46281661 -128.44465637 338.73902893 C-131.00751021 334.88439652 -133.56549052 331.02653718 -136.12374878 327.16885376 C-137.39163376 325.2600112 -138.66182491 323.35269791 -139.93460083 321.44711304 C-173.28456818 271.50609232 -197.6001004 216.44896681 -186.3828125 155.19921875 C-179.36567794 120.17892297 -163.7152489 87.81172575 -139.3828125 61.59375 C-137.97846819 60.04186758 -136.63307589 58.43551372 -135.3359375 56.79296875 C-133.61452334 54.67034851 -131.9460803 52.95427683 -129.875 51.1875 C-129.18148437 50.59582031 -128.48796875 50.00414062 -127.7734375 49.39453125 C-126.98195312 48.72808594 -126.19046875 48.06164063 -125.375 47.375 C-124.43914062 46.57449219 -123.50328125 45.77398437 -122.5390625 44.94921875 C-96.45255819 22.85280957 -65.96277388 8.57339628 -32.375 2.375 C-31.01181641 2.10792236 -31.01181641 2.10792236 -29.62109375 1.83544922 C-19.75453592 0.0840726 -9.98864111 -0.02205384 0 0 Z M-100.375 57.375 C-101.303125 58.08011719 -102.23125 58.78523438 -103.1875 59.51171875 C-137.18433235 86.24469303 -157.08735677 124.19066871 -164.375 166.375 C-164.5507959 167.3227832 -164.7265918 168.27056641 -164.90771484 169.24707031 C-169.65407793 201.01844121 -160.96140742 233.26910913 -147.9375 262 C-147.51976318 262.92216309 -147.10202637 263.84432617 -146.67163086 264.79443359 C-140.41240654 278.08361204 -132.21460136 290.33698601 -124.125 302.5625 C-123.22881483 303.9217781 -122.33291002 305.28124108 -121.43725586 306.64086914 C-119.48240377 309.60734784 -117.52571838 312.5726067 -115.56787109 315.53710938 C-112.150073 320.71360093 -108.74098464 325.8958063 -105.33203125 331.078125 C-93.64679673 348.83691181 -81.93142273 366.57431664 -70.12164307 384.25054932 C-64.23532935 393.06244525 -58.39508848 401.90105721 -52.62329102 410.78857422 C-44.50921219 423.26959384 -36.31150874 435.69607566 -28.10351562 448.11547852 C-26.85285558 450.00796931 -25.60220442 451.90046597 -24.3515625 453.79296875 C-23.74391052 454.71229691 -23.13625854 455.63162506 -22.51019287 456.57881165 C-19.41421543 461.26776367 -16.33382489 465.96571806 -13.28816223 470.68751526 C-12.14337314 472.46176471 -10.99349077 474.23258335 -9.84155273 476.00219727 C-8.53036262 478.02017738 -7.22961766 480.04500025 -5.94165039 482.07788086 C-5.10234985 483.36190796 -5.10234985 483.36190796 -4.24609375 484.671875 C-3.78130615 485.39729492 -3.31651855 486.12271484 -2.83764648 486.87011719 C-2.35497314 487.36672852 -1.8722998 487.86333984 -1.375 488.375 C2.46325224 488.84330699 2.46325224 488.84330699 3.96047974 487.05690002 C4.35395599 486.43685593 4.74743225 485.81681183 5.15283203 485.17797852 C5.60955292 484.47487045 6.0662738 483.77176239 6.53683472 483.04734802 C7.02225739 482.26988724 7.50768005 481.49242645 8.0078125 480.69140625 C9.08226086 479.0248405 10.15680904 477.35833911 11.23144531 475.69189453 C12.06778503 474.37841034 12.06778503 474.37841034 12.92102051 473.03839111 C15.68907375 468.71180828 18.53299744 464.43575691 21.3671875 460.15234375 C22.53685265 458.37626193 23.70595156 456.59980709 24.87451172 454.82299805 C35.03879043 439.37312139 45.2243466 423.93856291 55.5 408.5625 C61.85126703 399.05694174 68.16237734 389.52896948 74.38989258 379.94165039 C80.48397993 370.56907258 86.62969239 361.23066432 92.7802124 351.89505005 C94.05122947 349.96578777 95.321941 348.03632418 96.59234619 346.10665894 C102.98921578 336.3914094 109.39621025 326.6842155 115.8984375 317.0390625 C135.57841259 287.83632681 153.85298161 258.8702887 162.625 224.375 C162.84945801 223.49440918 163.07391602 222.61381836 163.30517578 221.70654297 C168.98541478 198.34476187 168.40376147 173.64559166 162.625 150.375 C162.43776367 149.60913574 162.25052734 148.84327148 162.05761719 148.05419922 C159.36106038 137.34481688 155.42022821 127.30940734 150.625 117.375 C150.32754883 116.75415527 150.03009766 116.13331055 149.72363281 115.49365234 C141.82399244 99.25455378 131.20268911 85.25384505 118.625 72.375 C117.59246094 71.23224609 117.59246094 71.23224609 116.5390625 70.06640625 C104.95750973 57.59220415 89.72271406 48.0315527 74.625 40.375 C73.51769531 39.81296875 72.41039062 39.2509375 71.26953125 38.671875 C15.7704891 11.90254407 -51.91965564 19.8826773 -100.375 57.375 Z " fill="#000000" transform="translate(255.375,-0.375)"/>
<path d="M0 0 C1.15242187 0.37382813 2.30484375 0.74765625 3.4921875 1.1328125 C15.41306778 5.36823114 25.40196324 11.8572022 35 20 C35.66386719 20.51820312 36.32773437 21.03640625 37.01171875 21.5703125 C54.81723603 35.94474633 66.4050385 59.50050429 69 82 C71.95546458 109.82115213 65.73965911 136.85367398 48 159 C30.06662478 180.53326085 6.51914186 193.49846022 -21.4296875 196.68359375 C-46.61280096 198.91535763 -73.68069569 191.93847105 -93.45727539 175.80004883 C-96.03523685 173.59721454 -98.52166931 171.31476797 -101 169 C-101.99193359 168.12794922 -101.99193359 168.12794922 -103.00390625 167.23828125 C-121.65814516 150.05560643 -130.94003429 123.79789786 -132 99 C-132.343103 70.96971024 -122.10829608 44.9235169 -102.74853516 24.73242188 C-76.21557605 -1.55602797 -35.6872939 -11.79299345 0 0 Z M-87 43 C-87.59296875 43.5878125 -88.1859375 44.175625 -88.796875 44.78125 C-103.67432044 60.23534061 -108.56956355 80.38759515 -108.26953125 101.27734375 C-107.6218618 120.59576017 -98.79119502 138.61153294 -85 152 C-70.00047497 165.80757294 -50.54338152 174.19043691 -30 174 C-7.92936582 172.74266987 11.05539077 164.19465369 26.62890625 148.3203125 C42.01924584 130.97974667 47.52831311 110.40565732 46.21875 87.54150391 C44.6812045 69.67783354 35.02579857 52.09538438 22 40 C21.4121875 39.40703125 20.824375 38.8140625 20.21875 38.203125 C4.975965 23.52910063 -15.08827329 18.40249914 -35.7578125 18.73046875 C-55.17672069 19.44642196 -73.85578183 28.84468812 -87 43 Z " fill="#000000" transform="translate(287,93)"/>
</svg>
