<?xml version="1.0" encoding="UTF-8"?>
<svg version="1.1" xmlns="http://www.w3.org/2000/svg" width="512" height="512">
<path d="M0 0 C7.21159597 5.32629757 12.62201617 11.23900695 15 20 C16.86657867 40.9881578 9.79255231 61.61904194 -3.44140625 77.95507812 C-10.90170707 86.83340559 -18.97200011 95.02594105 -27.30078125 103.08203125 C-28.95267496 104.68924656 -30.6043655 106.29667071 -32.25585938 107.90429688 C-34.80197584 110.38212764 -37.35401094 112.85204143 -39.92651367 115.30249023 C-42.44721303 117.70840754 -44.93829184 120.141855 -47.42578125 122.58203125 C-48.20262772 123.30928909 -48.97947418 124.03654694 -49.77986145 124.7858429 C-53.5884796 128.38238009 -53.5884796 128.38238009 -55.27500916 133.14389038 C-55.05383702 135.54999994 -55.05383702 135.54999994 -54 139 C-53.84136475 139.8146875 -53.68272949 140.629375 -53.51928711 141.46875 C-53.27577515 142.47421875 -53.27577515 142.47421875 -53.02734375 143.5 C-52.85009766 144.24121094 -52.67285156 144.98242188 -52.49023438 145.74609375 C-52.30783203 146.48988281 -52.12542969 147.23367187 -51.9375 148 C-51.6580957 149.16208984 -51.6580957 149.16208984 -51.37304688 150.34765625 C-50.91923822 152.23270759 -50.46017508 154.1164927 -50 156 C-49.01 155.67 -48.02 155.34 -47 155 C-40.1888214 154.29365555 -34.27813066 154.19001532 -28.625 158.39453125 C-23.66044553 163.29941559 -22.55931541 168.60642986 -22.46875 175.41015625 C-23.76029972 181.70646116 -27.37781884 185.62419943 -32.02758789 189.72705078 C-37.41430738 194.34503966 -37.41430738 194.34503966 -40.765625 200.39453125 C-40.5191829 203.10065512 -39.81088207 205.39981618 -39 208 C-38.45868226 210.48431874 -37.96584569 212.97635888 -37.47045898 215.47021484 C-36.6966487 219.32473294 -35.84740559 223.1610556 -35 227 C-32.23408664 227 -31.17081796 225.64455906 -29 224 C-23.01039198 222.00346399 -16.27852945 221.92287699 -10.5625 224.625 C-5.08078709 229.70561197 -2.31548634 233.21416394 -1.6875 240.75 C-1.80053978 245.55099977 -3.20342316 249.10044871 -6 253 C-8.20376587 254.88903809 -8.20376587 254.88903809 -10.7512207 256.76855469 C-16.5449626 261.12443728 -21.7477031 265.39290956 -25 272 C-26.28262345 282.45220802 -22.68761329 293.07097979 -19.8147583 303.02813721 C-18.76826847 306.7349942 -17.83946382 310.47082707 -16.90429688 314.20703125 C-15.84892748 318.41078096 -14.78449847 322.60844183 -13.62187195 326.78399658 C-13.28025528 328.0234906 -12.93863861 329.26298462 -12.58666992 330.54003906 C-12.12764534 332.16283783 -12.12764534 332.16283783 -11.65934753 333.81842041 C-10.38522149 339.96651866 -10.67633772 344.54661705 -13.65380859 349.97412109 C-16.11328149 353.67537356 -19.1427998 356.71819405 -22.3125 359.8125 C-22.95123047 360.46669922 -23.58996094 361.12089844 -24.24804688 361.79492188 C-29.2109238 366.71757284 -33.43616606 369.62485959 -40.5625 370.375 C-46.90277848 369.68333326 -50.28012406 367.13293014 -54.3293457 362.29516602 C-57.39972255 358.07704344 -59.72546301 353.44730481 -62.11920166 348.82189941 C-63.74667835 345.6785685 -65.40439224 342.5511995 -67.05859375 339.421875 C-67.39149414 338.79037537 -67.72439453 338.15887573 -68.06738281 337.50823975 C-71.14191373 331.69162567 -74.36053722 325.96205953 -77.625 320.25 C-82.65113404 311.43693659 -87.52568178 302.5512441 -92.34082031 293.62133789 C-96.6920263 285.55451748 -101.12015884 277.53396472 -105.58789062 269.53125 C-110.04803957 261.53629421 -114.49061003 253.53153521 -118.93162537 245.52593994 C-121.07609665 241.66121017 -123.22588853 237.79948167 -125.37823486 233.93913269 C-126.87236721 231.25732134 -128.36292794 228.57353596 -129.85272217 225.88931274 C-130.5734313 224.59255942 -131.29563059 223.29663313 -132.01934814 222.0015564 C-133.02592341 220.19979308 -134.02722879 218.39519885 -135.02734375 216.58984375 C-135.60218506 215.55722412 -136.17702637 214.52460449 -136.76928711 213.46069336 C-138 211 -138 211 -138 209 C-144.01472159 213.77639655 -149.76874417 218.60974703 -155.125 224.1171875 C-157.53495814 226.53718713 -160.09672516 228.74130934 -162.68359375 230.96875 C-165.58549173 233.51341602 -168.41852662 236.12748072 -171.25 238.75 C-171.80558594 239.2644165 -172.36117187 239.77883301 -172.93359375 240.30883789 C-174.06536145 241.3569943 -175.19703438 242.40525305 -176.32861328 243.45361328 C-182.49311365 249.15708178 -188.68507875 254.83048997 -194.9375 260.4375 C-199.33412982 264.38246962 -203.67940312 268.38038492 -208.00756836 272.40014648 C-208.5103833 272.86622314 -209.01319824 273.3322998 -209.53125 273.8125 C-210.02971939 274.29232834 -210.52818878 274.77215668 -211.04176331 275.26652527 C-213 277 -213 277 -215.46362305 278.68869019 C-219.76317723 281.8773474 -222.53877311 284.36763369 -224.02185059 289.61651611 C-224.62573081 294.00199521 -224.69891999 298.40013677 -224.78125 302.8203125 C-224.84742774 304.44996372 -224.91810443 306.07943781 -224.99304199 307.70870972 C-225.17846857 311.97625935 -225.30817151 316.24362287 -225.42431641 320.5135498 C-225.57453394 325.69678162 -225.78473079 330.87785237 -225.99242401 336.05904961 C-226.15382611 340.09084922 -226.30443702 344.12190752 -226.42004395 348.15530396 C-226.45666138 349.27074585 -226.45666138 349.27074585 -226.49401855 350.40872192 C-226.55964984 352.40879832 -226.61759206 354.40912293 -226.67492676 356.40945435 C-227.32559478 363.59630618 -229.17279279 367.94590625 -234.4375 372.8125 C-234.92798828 373.28880859 -235.41847656 373.76511719 -235.92382812 374.25585938 C-239.8061421 377.98099464 -242.40898024 380.29192979 -247.875 380.375 C-248.71804687 380.40335937 -249.56109375 380.43171875 -250.4296875 380.4609375 C-254.06918251 379.8082621 -255.446475 378.70084375 -258 376 C-259.69351413 372.91258726 -260.89125463 369.66847515 -262.125 366.375 C-262.52533447 365.34552246 -262.92566895 364.31604492 -263.33813477 363.25537109 C-266.10824446 356.08935816 -268.79449621 348.8913153 -271.49981689 341.70065308 C-272.77844541 338.30444781 -274.05971511 334.90924753 -275.34130859 331.51416016 C-277.06799032 326.93992554 -278.78128838 322.36096806 -280.48681641 317.77880859 C-281.29167774 315.63627508 -282.09684074 313.49385486 -282.90234375 311.3515625 C-283.27075882 310.3525592 -283.63917389 309.35355591 -284.01875305 308.32427979 C-284.36697617 307.40338562 -284.71519928 306.48249146 -285.07397461 305.53369141 C-285.37468369 304.72751373 -285.67539276 303.92133606 -285.98521423 303.09072876 C-288.11681906 298.69905549 -290.91662433 297.42297137 -295.39501953 295.75097656 C-296.50112579 295.33334045 -297.60723206 294.91570435 -298.74685669 294.4854126 C-299.94672211 294.04163269 -301.14658752 293.59785278 -302.3828125 293.140625 C-303.63847015 292.66922631 -304.89382622 292.19702364 -306.14889526 291.72406006 C-309.46388816 290.47688781 -312.78229313 289.23907246 -316.10168457 288.00366211 C-326.74786075 284.03808191 -337.37931431 280.03331246 -348 276 C-348.95547729 275.63962646 -349.91095459 275.27925293 -350.89538574 274.90795898 C-353.3094596 273.99148942 -355.71459821 273.0554616 -358.1171875 272.109375 C-359.11119064 271.73622162 -359.11119064 271.73622162 -360.12527466 271.35552979 C-364.28423381 269.67992258 -366.53950985 267.73632743 -369 264 C-370.06929076 260.48492815 -369.94470832 257.54265619 -369 254 C-366.4092091 250.21261499 -363.31018896 247.15896206 -360 244 C-359.12326843 242.98065342 -358.24781985 241.960198 -357.375 240.9375 C-352.81594032 237.2182671 -346.30280772 237.84577091 -340.61523438 237.63037109 C-339.16230494 237.57257542 -337.70938374 237.51457249 -336.25646973 237.45639038 C-335.11701653 237.41236147 -335.11701653 237.41236147 -333.95454407 237.36744308 C-329.04666924 237.17201408 -324.14035271 236.93987132 -319.23371124 236.7159481 C-314.93378372 236.52183129 -310.63395437 236.33964366 -306.33251953 236.18212891 C-302.15365413 236.02838188 -297.97735415 235.8420589 -293.80085754 235.63393021 C-292.2162287 235.56081178 -290.63101071 235.49943002 -289.04545593 235.45032883 C-279.04419832 235.42600274 -279.04419832 235.42600274 -270.67382812 230.63134766 C-269.74754345 229.44747393 -268.8545542 228.23664765 -268 227 C-266.94845158 225.78212414 -265.88693503 224.5727333 -264.8125 223.375 C-264.23628906 222.70726562 -263.66007812 222.03953125 -263.06640625 221.3515625 C-260.50785986 218.43994638 -257.88356296 215.59369656 -255.25 212.75 C-254.73566406 212.19449463 -254.22132813 211.63898926 -253.69140625 211.06665039 C-252.64316522 209.93480431 -251.59482511 208.80304999 -250.54638672 207.67138672 C-244.84291822 201.50688635 -239.16951003 195.31492125 -233.5625 189.0625 C-230.11421706 185.22083005 -226.6291309 181.41560408 -223.125 177.625 C-222.61880127 177.07682617 -222.11260254 176.52865234 -221.59106445 175.96386719 C-219.08952016 173.25601406 -216.58361948 170.55240793 -214.0703125 167.85546875 C-208.42890486 161.78010667 -203.06811756 155.56386573 -198 149 C-198.87712646 148.73010254 -199.75425293 148.46020508 -200.65795898 148.18212891 C-203.83550309 147.05818497 -206.54214035 145.73862566 -209.47265625 144.0859375 C-210.52179199 143.49820557 -211.57092773 142.91047363 -212.65185547 142.30493164 C-214.34012451 141.34961548 -214.34012451 141.34961548 -216.0625 140.375 C-217.26153679 139.70177825 -218.46092589 139.02918363 -219.66064453 138.35717773 C-221.5372783 137.30594884 -223.4137068 136.25437239 -225.28912354 135.20097351 C-231.36761934 131.78729035 -237.46918098 128.41615546 -243.57589722 125.05328369 C-245.39017746 124.05414162 -247.20406078 123.05428265 -249.01782227 122.05419922 C-251.45936268 120.70797094 -253.90101502 119.36194611 -256.34277344 118.01611328 C-261.79260606 115.0120725 -267.24100684 112.00543653 -272.68951416 108.99899292 C-275.70961729 107.33255534 -278.72981335 105.66628621 -281.75 104 C-282.95833378 103.33333414 -284.16666711 102.66666747 -285.375 102 C-285.973125 101.67 -286.57125 101.34 -287.1875 101 C-292.625 98 -292.625 98 -294.43717957 97.00015259 C-295.64655372 96.33292782 -296.85595521 95.6657526 -298.06538391 94.99862671 C-301.07051781 93.34090236 -304.07518491 91.68234362 -307.07885742 90.02197266 C-312.70293592 86.91424806 -318.33126501 83.81509235 -323.97549438 80.74407959 C-326.6203222 79.3043918 -329.26263936 77.86013 -331.90478516 76.41552734 C-333.15630998 75.73290656 -334.40904035 75.05249046 -335.66308594 74.37451172 C-356.25310257 63.2406923 -356.25310257 63.2406923 -359 55 C-359.51881222 48.77425334 -358.66304431 45.18313761 -355 40 C-352.67393542 37.27568655 -350.17953302 34.75927554 -347.625 32.25 C-346.97789062 31.59128906 -346.33078125 30.93257812 -345.6640625 30.25390625 C-341.12320543 25.74051404 -337.33056087 22.30398955 -330.70458984 21.69921875 C-324.83716692 21.78506437 -319.33514901 23.61883865 -313.7277298 25.20404816 C-309.48923827 26.37970411 -305.21867605 27.43504388 -300.95434952 28.51236343 C-297.23093777 29.46017467 -293.52771065 30.44718702 -289.84033203 31.52734375 C-273.69046458 36.7998764 -273.69046458 36.7998764 -257.73071289 34.3215332 C-251.80829185 29.72176844 -247.46935239 24.1681258 -242.98861694 18.21437073 C-239.43837752 14.26109743 -235.4959005 13.19443984 -230.2421875 12.78515625 C-223.43643508 13.58252988 -219.32750381 15.35796865 -214.6875 20.625 C-211.04452821 25.75214548 -211.53536636 30.86363155 -212 37 C-213.32924031 40.50436082 -214.3834084 42.3834084 -217 45 C-212.0648439 46.75577669 -207.10333329 47.98811882 -202 49.125 C-201.21882812 49.30675781 -200.43765625 49.48851562 -199.6328125 49.67578125 C-193.34789612 51.21400999 -193.34789612 51.21400999 -187 51 C-184.36623779 49.00165595 -182.21018025 46.63655344 -180 44.1875 C-171.33274359 34.75381589 -171.33274359 34.75381589 -164.5078125 33.56640625 C-158.56575127 33.55666517 -153.76021108 34.23414412 -149 38 C-144.68943118 42.84670923 -143.10183333 47.58450049 -143 54 C-143.62359636 56.34521139 -144.28458058 58.6811503 -145 61 C-141.60833365 61.87132361 -138.21117918 62.71898318 -134.8125 63.5625 C-133.85279297 63.80935547 -132.89308594 64.05621094 -131.90429688 64.31054688 C-130.97294922 64.53935547 -130.04160156 64.76816406 -129.08203125 65.00390625 C-127.80162964 65.32597046 -127.80162964 65.32597046 -126.49536133 65.65454102 C-123.5914642 66.05655789 -121.81469579 65.83822313 -119 65 C-116.63563812 63.19278774 -116.63563812 63.19278774 -114.40014648 60.80664062 C-113.07737953 59.46889587 -113.07737953 59.46889587 -111.72789001 58.10412598 C-111.26299604 57.6243782 -110.79810207 57.14463043 -110.31912041 56.65034485 C-108.85018246 55.13467343 -107.36924321 53.63168593 -105.88478088 52.13122559 C-102.72429944 48.93190884 -99.5804904 45.71648602 -96.4375 42.5 C-92.81501548 38.7965497 -89.18561529 35.10017762 -85.54420662 31.41532898 C-84.10418752 29.95256395 -82.67422448 28.48049216 -81.24473572 27.00744629 C-63.98897971 9.50089636 -25.09469465 -17.37718163 0 0 Z " fill="#000000" transform="translate(433,68)"/>
</svg>
