<?xml version="1.0" encoding="UTF-8"?>
<svg version="1.1" xmlns="http://www.w3.org/2000/svg" width="512" height="512">
<path d="M0 0 C1.2261087 -0.00085442 2.45221741 -0.00170885 3.71548092 -0.00258917 C7.11101697 -0.00395013 10.50649522 -0.00083 13.90202427 0.0041889 C17.56657471 0.00851119 21.23112339 0.00704571 24.89567566 0.00628662 C31.24220069 0.00576252 37.58871544 0.00889749 43.93523788 0.01452446 C53.11122035 0.02265479 62.28719786 0.02525625 71.46318354 0.02651245 C86.35095696 0.02870056 101.23872491 0.03535411 116.12649536 0.04481506 C130.58775811 0.05399542 145.04901936 0.06106174 159.51028442 0.06532288 C160.41090984 0.06559087 161.31153526 0.06585887 162.23945236 0.06613499 C169.28303493 0.06821444 176.32661754 0.07017135 183.37020016 0.07208955 C217.88923067 0.0815216 252.40824747 0.1016403 286.92727661 0.12025452 C286.92727661 59.52025452 286.92727661 118.92025452 286.92727661 180.12025452 C324.18856777 179.92262709 324.18856777 179.92262709 361.44949341 179.66981506 C368.69058228 179.64723206 368.69058228 179.64723206 372.09092712 179.64303589 C374.44290408 179.63540695 376.79486268 179.61792393 379.14671326 179.59237671 C397.94330324 179.39857653 411.39166957 180.25828991 425.59915161 193.70228577 C432.22280396 200.7185773 437.06582805 210.36229603 437.040802 220.07240295 C437.04072647 221.05311768 437.04065094 222.0338324 437.04057312 223.04426575 C437.03541183 224.09543579 437.03025055 225.14660583 437.02493286 226.22962952 C437.02351791 227.31157593 437.02210297 228.39352234 437.02064514 229.508255 C437.01504979 232.96228302 437.00249812 236.41624611 436.98977661 239.87025452 C436.98476101 242.2127015 436.98019821 244.55514949 436.97610474 246.89759827 C436.96508189 252.63850582 436.94834835 258.37937553 436.92727661 264.12025452 C436.38947571 263.7121907 435.8516748 263.30412689 435.2975769 262.88369751 C434.58595398 262.34631454 433.87433105 261.80893158 433.1411438 261.25526428 C432.4383429 260.72345047 431.73554199 260.19163666 431.01144409 259.64370728 C410.9887848 245.00785108 387.12982008 238.82536243 362.58352661 242.27259827 C340.10321173 246.00829765 319.92198666 258.18087218 305.98587036 276.18275452 C294.21528505 292.97873204 289.50171438 309.65256347 287.92727661 330.12025452 C217.30727661 330.12025452 146.68727661 330.12025452 73.92727661 330.12025452 C72.93727661 321.70525452 72.93727661 321.70525452 71.92727661 313.12025452 C70.93727661 308.83025452 69.94727661 304.54025452 68.92727661 300.12025452 C81.13727661 300.12025452 93.34727661 300.12025452 105.92727661 300.12025452 C105.92727661 220.92025452 105.92727661 141.72025452 105.92727661 60.12025452 C65.99727661 60.12025452 26.06727661 60.12025452 -15.07272339 60.12025452 C-15.07272339 89.82025452 -15.07272339 119.52025452 -15.07272339 150.12025452 C-34.87272339 150.12025452 -54.67272339 150.12025452 -75.07272339 150.12025452 C-75.23315863 128.71997647 -75.23315863 128.71997647 -75.26803589 119.52259827 C-75.29184835 113.2729465 -75.31986631 107.02353152 -75.3744812 100.77406311 C-75.41828471 95.72953337 -75.44193262 90.68525793 -75.45223236 85.64055252 C-75.4595623 83.7262332 -75.47387396 81.81192609 -75.49564362 79.89771652 C-75.65254109 65.51569232 -74.16331425 53.03131338 -67.51022339 39.99525452 C-67.00640137 39.00042053 -67.00640137 39.00042053 -66.49240112 37.98548889 C-62.75105783 30.97984675 -57.7500589 25.60068822 -52.07272339 20.12025452 C-51.36631714 19.38291077 -50.65991089 18.64556702 -49.93209839 17.88587952 C-36.61130749 4.76845947 -18.10284935 -0.04601621 0 0 Z M135.92727661 60.12025452 C135.92727661 109.62025452 135.92727661 159.12025452 135.92727661 210.12025452 C155.72727661 210.12025452 175.52727661 210.12025452 195.92727661 210.12025452 C195.92727661 220.02025452 195.92727661 229.92025452 195.92727661 240.12025452 C176.12727661 240.12025452 156.32727661 240.12025452 135.92727661 240.12025452 C135.92727661 259.92025452 135.92727661 279.72025452 135.92727661 300.12025452 C143.08415161 300.16150452 150.24102661 300.20275452 157.61477661 300.24525452 C160.96122314 300.27256653 160.96122314 300.27256653 164.37527466 300.3004303 C183.45100693 300.3934177 199.19947625 299.44853544 213.73587036 285.54212952 C223.91087362 274.29702788 226.10573117 261.27111717 226.04753113 246.63500977 C226.04838555 245.83102723 226.04923998 245.0270447 226.05012029 244.19869906 C226.05175418 241.53182109 226.04628831 238.86500745 226.040802 236.19813538 C226.04051965 234.27565004 226.0406788 232.3531646 226.04124451 230.43067932 C226.04153061 225.23095537 226.03566403 220.03125463 226.02867055 214.83153605 C226.02240595 209.39030625 226.02183076 203.94907587 226.02064514 198.50784302 C226.01754098 188.21271593 226.00933993 177.91759951 225.99929565 167.62247711 C225.98601254 153.70458036 225.98062722 139.78668068 225.97479343 125.86877918 C225.96539942 103.95259631 225.94547438 82.03643594 225.92727661 60.12025452 C196.22727661 60.12025452 166.52727661 60.12025452 135.92727661 60.12025452 Z " fill="#000000" transform="translate(75.07272338867188,60.87974548339844)"/>
<path d="M0 0 C0.85207031 0.32742188 1.70414062 0.65484375 2.58203125 0.9921875 C16.84636987 7.14719345 26.40698003 19.98075232 32.703125 33.65625 C37.86040532 46.95333421 38.26103807 63.7886246 33.25390625 77.1875 C25.96278346 93.54142029 14.71451157 106.0228415 -2 113 C-2.76054687 113.32097656 -3.52109375 113.64195312 -4.3046875 113.97265625 C-19.22157904 119.0958698 -36.79797095 117.00742874 -50.875 110.71484375 C-64.67313221 103.83494172 -75.09169906 92.1539517 -81 78 C-81.48146484 76.85917969 -81.48146484 76.85917969 -81.97265625 75.6953125 C-86.61337175 62.18327575 -85.60899908 45.01956408 -80 32 C-79.67257812 31.14792969 -79.34515625 30.29585938 -79.0078125 29.41796875 C-72.85280655 15.15363013 -60.01924768 5.59301997 -46.34375 -0.703125 C-31.87200808 -6.31599686 -14.26250164 -6.14447289 0 0 Z M-39 41 C-39 50.9 -39 60.8 -39 71 C-29.1 71 -19.2 71 -9 71 C-9 61.1 -9 51.2 -9 41 C-18.9 41 -28.8 41 -39 41 Z " fill="#000000" transform="translate(476,335)"/>
<path d="M0 0 C0.85207031 0.32742188 1.70414062 0.65484375 2.58203125 0.9921875 C16.84636987 7.14719345 26.40698003 19.98075232 32.703125 33.65625 C37.86040532 46.95333421 38.26103807 63.7886246 33.25390625 77.1875 C25.96278346 93.54142029 14.71451157 106.0228415 -2 113 C-2.76054688 113.32097656 -3.52109375 113.64195312 -4.3046875 113.97265625 C-19.22157904 119.0958698 -36.79797095 117.00742874 -50.875 110.71484375 C-64.67313221 103.83494172 -75.09169906 92.1539517 -81 78 C-81.48146484 76.85917969 -81.48146484 76.85917969 -81.97265625 75.6953125 C-86.61337175 62.18327575 -85.60899908 45.01956408 -80 32 C-79.67257813 31.14792969 -79.34515625 30.29585938 -79.0078125 29.41796875 C-72.85280655 15.15363013 -60.01924768 5.59301997 -46.34375 -0.703125 C-31.87200808 -6.31599686 -14.26250164 -6.14447289 0 0 Z M-39 41 C-39 50.9 -39 60.8 -39 71 C-29.1 71 -19.2 71 -9 71 C-9 61.1 -9 51.2 -9 41 C-18.9 41 -28.8 41 -39 41 Z " fill="#000000" transform="translate(84,335)"/>
<path d="M0 0 C5.76377529 3.84251686 10.21232949 6.84084597 15.0625 11.4375 C18.33480581 14.51661838 21.61429064 17.55457087 25.0625 20.4375 C50.77222565 42.91363129 68.41846641 74.97600129 79.3125 106.875 C79.72137451 108.05570068 80.13024902 109.23640137 80.55151367 110.45288086 C84.135886 121.33135134 85.80301855 131.4658474 88 143 C58.96 143 29.92 143 0 143 C0 95.81 0 48.62 0 0 Z " fill="#000000" transform="translate(392,68)"/>
<path d="M0 0 C20.6353125 -0.1546875 20.6353125 -0.1546875 41.6875 -0.3125 C46.00674561 -0.35802002 50.32599121 -0.40354004 54.77612305 -0.45043945 C60.11291504 -0.47302246 60.11291504 -0.47302246 62.62336731 -0.47721863 C64.35036185 -0.48482007 66.07733242 -0.50224413 67.80415344 -0.52787781 C84.33636438 -0.76069418 96.26540486 1.84226394 108.671875 13.58203125 C115.29552735 20.59832279 120.13855144 30.24204151 120.11352539 39.95214844 C120.11341209 41.42322052 120.11341209 41.42322052 120.11329651 42.92401123 C120.10813522 43.97518127 120.10297394 45.02635132 120.09765625 46.109375 C120.0962413 47.19132141 120.09482635 48.27326782 120.09336853 49.38800049 C120.08777318 52.8420285 120.0752215 56.29599159 120.0625 59.75 C120.0574844 62.09244698 120.0529216 64.43489498 120.04882812 66.77734375 C120.03780528 72.5182513 120.02107174 78.25912101 120 84 C119.4621991 83.59193619 118.92439819 83.18387238 118.37030029 82.76344299 C117.65867737 82.22606003 116.94705444 81.68867706 116.21386719 81.13500977 C115.15966583 80.33728905 115.15966583 80.33728905 114.08416748 79.52345276 C94.30114403 65.06276189 70.57573058 58.63029683 46.296875 62.21875 C30.05241177 64.97752063 15.26805685 71.79638687 2.7578125 82.53125 C1 84 1 84 0 84 C0 56.28 0 28.56 0 0 Z " fill="#000000" transform="translate(0,241)"/>
</svg>
