<?xml version="1.0" encoding="UTF-8"?>
<svg version="1.1" xmlns="http://www.w3.org/2000/svg" width="512" height="512">
<path d="M0 0 C0.65339355 0.05687988 1.30678711 0.11375977 1.97998047 0.17236328 C4.53288327 0.41402836 7.07762274 0.70554966 9.625 1 C10.83994141 1.1350293 12.05488281 1.27005859 13.30664062 1.40917969 C16.75468868 1.7954775 20.20004347 2.2013044 23.64434814 2.61962891 C25.04079342 2.78898822 26.43756449 2.9556839 27.83465576 3.11962891 C29.83131651 3.35698544 31.82587127 3.61185152 33.8203125 3.8671875 C35.56852295 4.08544189 35.56852295 4.08544189 37.35205078 4.30810547 C40.8629856 5.05030965 43.53903816 6.18133373 46.625 8 C48.15346661 11.05693322 47.85742445 13.62984547 47.625 17 C46.625 19.375 46.625 19.375 44.625 21 C31.68727936 22.61721508 18.55620131 19.6685421 5.625 18 C5.295 65.85 4.965 113.7 4.625 163 C9.575 163.33 14.525 163.66 19.625 164 C23.36261673 164.39188287 27.08466762 164.80538412 30.8125 165.26953125 C32.8885398 165.51954568 34.96463261 165.76912016 37.04077148 166.01831055 C38.11237518 166.14797211 39.18397888 166.27763367 40.28805542 166.41122437 C75.49708176 170.64519471 110.72209184 173.66007963 146.125 175.6875 C147.71004837 175.77890762 147.71004837 175.77890762 149.32711792 175.87216187 C180.66026773 177.65377445 211.93711396 178.20802281 243.3125 178.1875 C244.2309885 178.18723312 245.14947701 178.18696625 246.09579849 178.18669128 C276.97766674 178.17546503 307.78785954 177.81681238 338.625 176 C339.74106628 175.93447937 340.85713257 175.86895874 342.00701904 175.80145264 C384.17050852 173.29365542 426.30831234 169.79279079 468.17993164 164.16796875 C469.92197876 163.9359375 469.92197876 163.9359375 471.69921875 163.69921875 C472.68494873 163.56346436 473.67067871 163.42770996 474.6862793 163.2878418 C477.98479043 162.96475925 481.31070399 163 484.625 163 C484.13 91.225 484.13 91.225 483.625 18 C459.37 20.97 459.37 20.97 434.625 24 C425.43722365 24.95602217 416.26285185 25.88994852 407.0625 26.6875 C405.95071381 26.78639526 404.83892761 26.88529053 403.69345093 26.98718262 C387.12248821 28.45894145 370.54083948 29.70675171 353.9375 30.75 C353.00203339 30.80916595 352.06656677 30.86833191 351.10275269 30.92929077 C326.45273212 32.46391068 301.77834364 33.11958402 277.08642578 33.50268555 C273.23072997 33.56280044 269.3751378 33.62779115 265.51953125 33.69335938 C241.08169355 34.09790733 216.74228043 33.98950153 192.3125 33.1875 C191.64200245 33.16572441 190.9715049 33.14394882 190.28068924 33.12151337 C163.69536101 32.25664588 137.15316257 30.97593245 110.625 29 C109.58297424 28.92245483 108.54094849 28.84490967 107.46734619 28.76501465 C101.10561345 28.2867866 94.74637516 27.78408788 88.38894653 27.25164795 C86.40102251 27.08566723 84.41280205 26.92319453 82.42428589 26.76446533 C79.69297777 26.54378009 76.96374027 26.30590495 74.234375 26.0625 C73.43163651 26.00001068 72.62889801 25.93752136 71.80183411 25.87313843 C67.36215387 25.45398961 64.17476701 24.75742314 60.625 22 C58.625 19 58.625 19 58.8125 15.5 C59.88664151 10.8729289 59.88664151 10.8729289 62.625 9 C65.1326362 8.71807073 67.35187065 8.63038086 69.85546875 8.6953125 C70.59895065 8.7055545 71.34243256 8.71579651 72.10844421 8.72634888 C81.36184898 8.92764218 90.57690814 9.77362916 99.79165649 10.59555054 C105.20324601 11.07626923 110.61712808 11.52929402 116.03125 11.98046875 C117.10925369 12.07038589 118.18725739 12.16030304 119.29792786 12.25294495 C128.83742424 13.03796048 138.38002853 13.66980872 147.9375 14.1875 C149.22889893 14.25888184 150.52029785 14.33026367 151.85083008 14.40380859 C155.29948067 14.58270613 158.74795719 14.74427377 162.19799805 14.89285278 C163.88243105 14.96721709 165.56667063 15.0460438 167.25073242 15.12838745 C190.51304079 16.25239182 213.7874814 16.18746427 237.07128906 16.18530273 C241.65824372 16.18522203 246.24509731 16.19208976 250.83203125 16.20581055 C292.94770322 16.32972207 334.94822301 15.06640784 376.953125 11.90625 C377.87998108 11.83692261 378.80683716 11.76759521 379.76177979 11.69616699 C410.89182401 9.32273688 441.91812214 6.07281992 472.85498047 1.87963867 C473.79193756 1.75411621 474.72889465 1.62859375 475.69424438 1.49926758 C477.42356366 1.26674748 479.15229148 1.02975922 480.88021851 0.78710938 C493.97516417 -0.97393328 493.97516417 -0.97393328 498.31961823 1.59069061 C501.37786554 4.78680505 501.24898244 6.48931986 501.24645996 10.86999512 C501.25284878 11.5607109 501.2592376 12.25142669 501.26582003 12.96307325 C501.2810801 15.27740413 501.26060473 17.59002566 501.24023438 19.90429688 C501.24373531 21.56340604 501.24939358 23.22251186 501.25704956 24.88160706 C501.27131136 29.38791587 501.2542226 33.89361551 501.23076439 38.3998661 C501.21067559 43.11321424 501.21653392 47.82653658 501.21887207 52.53991699 C501.21881848 60.45558739 501.19904881 68.37101925 501.16699219 76.28662109 C501.13009844 85.44119563 501.1213164 94.59545763 501.1282897 103.7500968 C501.13459261 112.55260284 501.12384434 121.35500157 501.10432434 130.15748596 C501.09614463 133.90541613 501.09344185 137.65329151 501.09501648 141.40122986 C501.09589474 145.81391152 501.08169515 150.22629567 501.05578995 154.63889885 C501.04862122 156.25944006 501.04654792 157.8800129 501.04990768 159.50056648 C501.05361609 161.71070319 501.03889847 163.91996859 501.01940918 166.13000488 C501.01568047 167.36738655 501.01195175 168.60476822 501.00811005 169.8796463 C500.59616911 173.23482176 499.97173816 174.61635513 497.625 177 C495.77148438 177.72949219 495.77148438 177.72949219 493.71875 178.046875 C492.60306641 178.23056641 492.60306641 178.23056641 491.46484375 178.41796875 C490.69269531 178.52753906 489.92054688 178.63710937 489.125 178.75 C488.35285156 178.87503906 487.58070313 179.00007812 486.78515625 179.12890625 C483.70604906 179.61451934 480.74585418 180 477.625 180 C477.62960896 181.16528827 477.63421793 182.33057653 477.63896656 183.53117657 C477.74723566 211.18741831 477.8296924 238.84363884 477.88032665 266.50004871 C477.88658025 269.90343454 477.89305185 273.30681992 477.8996582 276.71020508 C477.90096976 277.38776308 477.90228131 278.06532108 477.9036326 278.76341114 C477.92539429 289.73703147 477.96481994 300.71052095 478.01076398 311.68406364 C478.05750752 322.94238917 478.08491661 334.20064929 478.09544247 345.4590767 C478.10196965 351.7834735 478.11734535 358.10757343 478.15365028 364.43187523 C478.18753013 370.38180563 478.19806898 376.33131622 478.19053841 382.28133392 C478.19191652 384.46749717 478.20189628 386.65367413 478.22102737 388.8397541 C478.24583964 391.8206651 478.23994789 394.79998309 478.22627258 397.78092957 C478.24083679 398.64961062 478.255401 399.51829168 478.27040654 400.4132964 C478.21675797 404.72817488 478.01146083 406.48836459 475.33121014 410.03674793 C471.68678585 412.68063852 468.52305149 412.70353049 464.18359375 412.62890625 C463.37890152 412.63131821 462.57420929 412.63373016 461.74513245 412.63621521 C460.04984593 412.63523872 458.35452675 412.62189208 456.65942383 412.59692383 C454.06676941 412.56255659 451.47751493 412.57628638 448.88476562 412.59570312 C447.23436052 412.58880571 445.58396419 412.57913426 443.93359375 412.56640625 C443.16059433 412.57136612 442.38759491 412.57632599 441.59117126 412.58143616 C438.25103087 412.50840897 436.1145416 412.3747181 433.4210434 410.31298828 C431.20840086 407.46349352 431.12257479 406.03621739 431.11706543 402.45874023 C431.10014648 400.76791824 431.10014648 400.76791824 431.08288574 399.04293823 C431.09503113 397.19443771 431.09503113 397.19443771 431.10742188 395.30859375 C431.09690796 393.35688766 431.09690796 393.35688766 431.08618164 391.36575317 C431.06795013 387.79956785 431.07501472 384.23384552 431.08769798 380.66765213 C431.09782671 376.93524174 431.08843267 373.20287093 431.08215332 369.47045898 C431.07487651 363.20256433 431.08446536 356.93485822 431.10351562 350.66699219 C431.12528461 343.42095169 431.11823325 336.17536137 431.09621 328.92933178 C431.07805683 322.70754487 431.07549722 316.48589347 431.08596468 310.26408863 C431.09220014 306.5482883 431.09303403 302.83269957 431.07981873 299.11691284 C431.06611617 294.97480618 431.08510839 290.83347535 431.10742188 286.69140625 C431.09932495 285.45907257 431.09122803 284.22673889 431.08288574 282.95706177 C431.09416504 281.82984711 431.10544434 280.70263245 431.11706543 279.54125977 C431.11932758 278.07234032 431.11932758 278.07234032 431.12163544 276.57374573 C431.77348158 273.2408011 432.95987005 272.04852084 435.625 270 C439.37849462 269.53081317 441.66348453 269.46863619 445 271.3125 C447.80366036 274.22399345 447.74926816 277.07537377 447.74525452 280.91642761 C447.74731651 282.43716133 447.74731651 282.43716133 447.74942017 283.98861694 C447.74582489 285.09991974 447.74222961 286.21122253 447.73852539 287.35620117 C447.73867142 288.52706772 447.73881744 289.69793427 447.7389679 290.90428162 C447.73839025 294.11476276 447.73337198 297.32520043 447.72639394 300.5356729 C447.72014631 303.89091157 447.71955548 307.24615107 447.71836853 310.60139465 C447.71525938 316.95492753 447.70705158 323.30844322 447.69701904 329.66196853 C447.68584501 336.89527173 447.6803442 344.12857575 447.67532361 351.36188543 C447.66486864 366.24126678 447.64707599 381.12063103 447.625 396 C452.245 396 456.865 396 461.625 396 C461.625 325.38 461.625 254.76 461.625 182 C457.335 182.66 453.045 183.32 448.625 184 C448.61041748 186.09432373 448.59583496 188.18864746 448.58081055 190.34643555 C448.53043879 197.27161823 448.4638392 204.19657666 448.38928509 211.12153912 C448.34458683 215.31953188 448.30532963 219.51742773 448.27856445 223.71557617 C448.25252584 227.76820995 448.21211983 231.82047065 448.16181374 235.87287331 C448.14514872 237.41774665 448.13363215 238.96268452 448.12738609 240.50763512 C448.11774068 242.6743504 448.08967831 244.84011205 448.05737305 247.0065918 C448.04626999 248.23903122 448.03516693 249.47147064 448.02372742 250.74125671 C447.58955129 254.28971733 446.78396074 256.17596594 444.625 259 C441.8125 260.5 441.8125 260.5 438.625 261 C433.07848837 258.90697674 433.07848837 258.90697674 431.625 256 C431.50404959 253.78463271 431.44750828 251.56565996 431.41967773 249.34716797 C431.40977814 248.66412598 431.39987854 247.98108398 431.38967896 247.27734375 C431.35804691 245.01566047 431.33329989 242.75395618 431.30859375 240.4921875 C431.28802569 238.92562305 431.26702925 237.35906417 431.24562073 235.79251099 C431.19038478 231.66616318 431.14098225 227.53976517 431.09277344 223.41333008 C431.04256952 219.20389326 430.98687767 214.9945295 430.93164062 210.78515625 C430.82404042 202.52349924 430.72259961 194.26178118 430.625 186 C429.97751801 186.05819916 429.33003601 186.11639832 428.66293335 186.17636108 C369.4432461 191.49341108 310.55051137 195.38823254 251.06152344 195.26074219 C245.69836445 195.24934896 240.33540416 195.25615289 234.97225189 195.26761723 C196.68485381 195.33694289 158.44498296 194.25676708 120.26318359 191.30493164 C117.05755433 191.05728967 113.85118845 190.82181456 110.64453125 190.58789062 C98.34353946 189.67520789 86.06249032 188.59475444 73.78320312 187.43139648 C72.30292481 187.29178983 70.8226392 187.15226052 69.34234619 187.01280975 C65.76981327 186.67609414 62.19737896 186.33834554 58.625 186 C58.62353344 187.1404414 58.62206688 188.2808828 58.62055588 189.45588303 C58.5839929 217.18011868 58.52458547 244.90423323 58.44109726 272.62836838 C58.43317201 275.2952142 58.42527926 277.96206006 58.41748047 280.62890625 C58.41456841 281.62320711 58.41456841 281.62320711 58.41159752 282.63759485 C58.3805621 293.37578802 58.36359258 304.11395981 58.35180578 314.85218939 C58.33940217 325.8676317 58.31162064 336.8829579 58.27038693 347.89832997 C58.24771107 354.08678671 58.23209299 360.27508293 58.23311615 366.4635849 C58.23385914 372.28468875 58.21605376 378.10543694 58.18383217 383.92644882 C58.17529183 386.06622828 58.17361105 388.20604743 58.17919731 390.34583664 C58.18579656 393.26131242 58.16801453 396.17564303 58.14398193 399.09100342 C58.15562256 400.36921215 58.15562256 400.36921215 58.16749835 401.67324328 C58.1145208 405.28886901 57.95388377 407.53790868 55.82826614 410.52446365 C52.49929214 412.75389116 49.18746487 412.57179811 45.31640625 412.53125 C44.51267075 412.5350769 43.70893524 412.53890381 42.88084412 412.54284668 C41.18381495 412.54556418 39.48674379 412.53821418 37.78979492 412.52148438 C35.19940178 412.50009826 32.61179065 412.52127471 30.02148438 412.546875 C28.36978557 412.54423114 26.71808849 412.53910497 25.06640625 412.53125 C24.29543106 412.53934692 23.52445587 412.54744385 22.7301178 412.55578613 C19.34503321 412.49711599 16.91239465 412.15518742 13.91878986 410.5387001 C10.55361282 406.81421973 10.94282156 403.72663989 11.02372742 398.86322021 C11.01945529 397.92875258 11.01518317 396.99428494 11.01078159 396.0315001 C11.00252966 392.89258652 11.03007357 389.7550019 11.05737305 386.61621094 C11.05878304 384.3693444 11.0579925 382.12247555 11.05516052 379.87561035 C11.05372307 373.76840311 11.08316676 367.66168461 11.11803031 361.55459118 C11.14923863 355.17511139 11.1522202 348.79562101 11.15815735 342.41607666 C11.17194359 331.7059928 11.20319681 320.99612309 11.24780273 310.28613281 C11.29369885 299.25489195 11.32909045 288.22369987 11.3503418 277.19238281 C11.35165541 276.51239871 11.35296903 275.83241462 11.35432246 275.13182494 C11.36084765 271.72053954 11.36716619 268.30925379 11.37338197 264.89796782 C11.42521443 236.5985215 11.51365087 208.29927038 11.625 180 C10.45582031 179.89042969 9.28664063 179.78085938 8.08203125 179.66796875 C6.53378806 179.50845279 4.98561442 179.34826086 3.4375 179.1875 C2.28411133 179.08211914 2.28411133 179.08211914 1.10742188 178.97460938 C-3.3965699 178.49134845 -6.68260654 177.84636932 -10.375 175 C-11.82027909 172.10944181 -11.51437165 169.60150987 -11.52890015 166.37051392 C-11.5332824 165.68150698 -11.53766465 164.99250005 -11.5421797 164.28261411 C-11.55558612 161.962658 -11.56175062 159.64273988 -11.56787109 157.32275391 C-11.57577049 155.66394376 -11.58403934 154.00513534 -11.59265137 152.34632874 C-11.61888603 146.88975672 -11.63417849 141.43317697 -11.6484375 135.9765625 C-11.65379622 134.10012176 -11.65917372 132.22368108 -11.66456985 130.34724045 C-11.68619895 122.54429858 -11.70493739 114.74135881 -11.71619225 106.93839455 C-11.73244321 95.74430413 -11.76564833 84.55056018 -11.82259309 73.3566004 C-11.86124381 65.49159439 -11.88081903 57.62668125 -11.88611281 49.76158273 C-11.88977242 45.06086473 -11.90185824 40.36051614 -11.93421555 35.65990067 C-11.96421145 31.23899154 -11.97063861 26.81867698 -11.95883179 22.39768791 C-11.95861035 20.77388611 -11.96697322 19.1500574 -11.98448563 17.52635002 C-12.00707804 15.3113294 -11.99893192 13.09848309 -11.98300171 10.88345337 C-11.98631186 9.64347406 -11.989622 8.40349476 -11.99303246 7.12594032 C-11.375 4 -11.375 4 -9.01815224 1.58931541 C-5.64211089 -0.44068289 -3.91345875 -0.35177157 0 0 Z M27.625 182 C27.625 252.62 27.625 323.24 27.625 396 C32.245 396 36.865 396 41.625 396 C41.64832546 368.37590526 41.66597744 340.75181198 41.67681217 313.12770939 C41.68197588 300.30234003 41.68902 287.47697677 41.70043945 274.65161133 C41.71038401 263.47743251 41.71685288 252.30325811 41.71908849 241.12907499 C41.72039599 235.20846633 41.72348429 229.28787032 41.73073006 223.3672657 C41.73748668 217.80157696 41.7396177 212.23590615 41.73810768 206.6702137 C41.73838417 204.62107242 41.74039141 202.57193057 41.74420547 200.52279282 C41.74913713 197.7380375 41.74800025 194.95335107 41.74525452 192.16859436 C41.74816736 191.34662616 41.7510802 190.52465797 41.75408131 189.67778164 C42.088721 186.03999382 42.088721 186.03999382 40.625 183 C36.335 182.67 32.045 182.34 27.625 182 Z " fill="#000000" transform="translate(11.375,50)"/>
<path d="M0 0 C7.51833599 -0.33295488 14.08046623 0.97470801 19.93359375 5.95703125 C25.06558903 11.42255243 27.90382162 17.04301122 28.234375 24.56640625 C27.90173582 32.60518639 25.86586341 39.03287676 19.96875 44.62109375 C18.64238294 46.13867093 18.64238294 46.13867093 19.03515625 48.140625 C19.91913305 50.34009334 20.98153999 52.15785527 22.296875 54.12890625 C25.53940478 58.99754051 27.11281292 63.347344 27.671875 69.19140625 C27.78144531 70.20203125 27.89101563 71.21265625 28.00390625 72.25390625 C27.83286014 75.73030287 26.92733936 77.4275398 24.859375 80.19140625 C21.76763748 81.73727501 19.26507948 81.48500146 15.859375 81.19140625 C11.94677555 78.22125777 11.25378392 75.6235946 10.484375 70.87890625 C9.20091015 64.85337652 7.88369095 60.90110102 2.859375 57.19140625 C0.97996693 56.39679866 -0.92982612 55.67145172 -2.859375 55.0078125 C-3.84873047 54.66306885 -4.83808594 54.3183252 -5.85742188 53.96313477 C-6.98760742 53.58112915 -6.98760742 53.58112915 -8.140625 53.19140625 C-8.12491455 53.89225342 -8.1092041 54.59310059 -8.09301758 55.31518555 C-8.03050088 58.50300976 -7.99158119 61.69070476 -7.953125 64.87890625 C-7.92798828 65.98169922 -7.90285156 67.08449219 -7.87695312 68.22070312 C-7.86728516 69.28740234 -7.85761719 70.35410156 -7.84765625 71.453125 C-7.8319458 72.43240967 -7.81623535 73.41169434 -7.80004883 74.4206543 C-8.20167771 77.68809955 -9.21261621 79.54680279 -11.140625 82.19140625 C-13.99386937 83.61802844 -15.97517049 83.50174493 -19.140625 83.19140625 C-21.79940796 81.62084961 -21.79940796 81.62084961 -24.140625 79.19140625 C-24.77554321 75.92797852 -24.77554321 75.92797852 -24.78759766 72.0078125 C-24.79635925 71.29188934 -24.80512085 70.57596619 -24.81414795 69.83834839 C-24.83612142 67.47624771 -24.82159884 65.1160253 -24.8046875 62.75390625 C-24.80805628 61.11010377 -24.81290942 59.46630372 -24.81918335 57.82250977 C-24.82655181 54.37915304 -24.81585076 50.93644529 -24.79248047 47.49316406 C-24.7639918 43.0808802 -24.78039605 38.67011687 -24.81034279 34.25788879 C-24.82841701 30.86401934 -24.82265737 27.47050998 -24.80970383 24.07662964 C-24.80637011 22.44993917 -24.81045575 20.82321592 -24.82210159 19.19656372 C-24.83481355 16.9218294 -24.81543403 14.64955144 -24.78759766 12.375 C-24.78361969 11.08134521 -24.77964172 9.78769043 -24.77554321 8.45483398 C-24.140625 5.19140625 -24.140625 5.19140625 -21.82528687 2.78051758 C-18.40743934 0.75741728 -15.38934085 0.52009542 -11.515625 0.44140625 C-10.45384033 0.40237183 -10.45384033 0.40237183 -9.37060547 0.36254883 C-7.94981086 0.31402839 -6.52870175 0.27390187 -5.10742188 0.24267578 C-3.40360602 0.19826152 -1.70123809 0.10368242 0 0 Z M-8.140625 17.19140625 C-8.140625 23.79140625 -8.140625 30.39140625 -8.140625 37.19140625 C-6.09875 37.10890625 -4.056875 37.02640625 -1.953125 36.94140625 C-0.80457031 36.895 0.34398437 36.84859375 1.52734375 36.80078125 C5.38713989 36.09488653 7.07336029 34.90185094 9.859375 32.19140625 C11.57416372 29.22949847 11.87430637 27.5572247 11.734375 24.12890625 C10.71078234 20.69255947 9.71580357 19.33372768 6.859375 17.19140625 C2.0746008 15.36193376 -3.18558482 16.59680143 -8.140625 17.19140625 Z " fill="#000000" transform="translate(317.140625,113.80859375)"/>
<path d="M0 0 C5.73092902 5.89012149 8.36290824 12.63616785 8.39526367 20.75195312 C8.40164352 21.83988159 8.40802338 22.92781006 8.41459656 24.04870605 C8.41570938 25.21857056 8.4168222 26.38843506 8.41796875 27.59375 C8.42296135 29.40220398 8.42296135 29.40220398 8.42805481 31.24719238 C8.43311651 33.79581318 8.43546337 36.34444059 8.43530273 38.89306641 C8.43749148 42.797311 8.45566175 46.70127407 8.47460938 50.60546875 C8.47754295 53.0807282 8.47952799 55.55598899 8.48046875 58.03125 C8.48765427 59.2011145 8.49483978 60.370979 8.50224304 61.57629395 C8.49916641 62.66422241 8.49608978 63.75215088 8.49291992 64.87304688 C8.49434494 65.8291687 8.49576996 66.78529053 8.49723816 67.77038574 C8.23727029 70.44338742 7.66692285 72.0485328 6.25 74.3125 C3.57366974 76.3940902 2.13246332 76.30837591 -1.3125 76.1875 C-4.75 75.3125 -4.75 75.3125 -6.4465332 73.63769531 C-8.11704863 70.65773859 -8.09304939 68.63985822 -8.04296875 65.234375 C-8.0284668 63.49414062 -8.0284668 63.49414062 -8.01367188 61.71875 C-7.98853516 60.5121875 -7.96339844 59.305625 -7.9375 58.0625 C-7.92396484 56.84046875 -7.91042969 55.6184375 -7.89648438 54.359375 C-7.86114281 51.34356179 -7.8073365 48.32797523 -7.75 45.3125 C-14.02 45.3125 -20.29 45.3125 -26.75 45.3125 C-26.72679687 47.07078125 -26.70359375 48.8290625 -26.6796875 50.640625 C-26.66092907 52.94791242 -26.64272895 55.25520444 -26.625 57.5625 C-26.60824219 58.72136719 -26.59148437 59.88023437 -26.57421875 61.07421875 C-26.56777344 62.18925781 -26.56132812 63.30429688 -26.5546875 64.453125 C-26.54421387 65.47954102 -26.53374023 66.50595703 -26.52294922 67.56347656 C-26.75659126 70.39230387 -27.1429783 71.98663424 -28.75 74.3125 C-32.88890213 76.14316825 -34.83385195 76.65181409 -39.125 75.0625 C-41.75 73.3125 -41.75 73.3125 -42.75 71.3125 C-42.86630438 69.51758875 -42.91964284 67.71844726 -42.94287109 65.91992188 C-42.95893402 64.79114624 -42.97499695 63.66237061 -42.99154663 62.49938965 C-43.036058 57.30983304 -43.07754109 52.12036455 -43.10009766 46.93066406 C-43.11337527 44.19919887 -43.14110777 41.46849178 -43.18212891 38.73730469 C-43.24135255 34.79364339 -43.25881422 30.85034051 -43.2734375 26.90625 C-43.29610687 25.69545776 -43.31877625 24.48466553 -43.34213257 23.23718262 C-43.32115184 14.74198835 -41.84225516 7.87271066 -36.04013062 1.40710449 C-25.2874273 -8.87241026 -11.85820952 -7.27662857 0 0 Z M-24.75 13.3125 C-27.02277626 16.67590379 -26.96165122 19.57654387 -26.875 23.5625 C-26.83375 25.46 -26.7925 27.3575 -26.75 29.3125 C-20.48 29.3125 -14.21 29.3125 -7.75 29.3125 C-7.36742131 20.42470823 -7.36742131 20.42470823 -11 12.5625 C-15.85397299 9.09537644 -20.04931049 10.21431828 -24.75 13.3125 Z " fill="#000000" transform="translate(266.75,121.6875)"/>
<path d="M0 0 C0.67772461 0.07001221 1.35544922 0.14002441 2.05371094 0.2121582 C6.23319473 0.7317445 9.23558694 1.66765546 12.625 4.1875 C14.05162219 7.04074437 13.93533868 9.02204549 13.625 12.1875 C11.9765625 14.86328125 11.9765625 14.86328125 9.625 17.1875 C6.84765625 17.7109375 6.84765625 17.7109375 3.6875 17.5625 C2.54667969 17.52125 1.40585938 17.48 0.23046875 17.4375 C-4.4206387 17.11499634 -9.06090874 16.72083522 -13.6953125 16.2109375 C-16.60428222 15.93449762 -16.60428222 15.93449762 -19.375 18.1875 C-20.66620385 20.86923108 -20.32557542 22.75094023 -20.0625 25.75 C-18.78491345 29.24334844 -18.78491345 29.24334844 -16.36328125 30.1640625 C-13.71634483 30.92033005 -11.05301004 31.55077034 -8.375 32.1875 C0.0421998 34.90594379 6.83266484 38.26357979 11 46.375 C14.00644567 53.00225198 14.81823272 59.56552026 12.9765625 66.69921875 C10.44864805 73.06221709 6.46199109 77.25577345 0.359375 80.328125 C-8.13668597 82.99831559 -18.52334502 81.43949949 -27.1875 79.9375 C-27.86272705 79.82833252 -28.5379541 79.71916504 -29.23364258 79.60668945 C-32.22477361 79.02390233 -34.09835147 78.45031611 -36.328125 76.33203125 C-37.49583567 73.93996722 -37.67037667 72.74102803 -37.3125 70.125 C-37.23902344 69.45339844 -37.16554688 68.78179687 -37.08984375 68.08984375 C-36.09485174 65.44196884 -34.80281131 64.58402863 -32.375 63.1875 C-30.359375 62.859375 -30.359375 62.859375 -28.125 62.9375 C-27.26390625 62.96328125 -26.4028125 62.9890625 -25.515625 63.015625 C-20.24785554 63.30391089 -14.98216894 63.60901075 -9.71875 63.96875 C-7.93981091 64.08512919 -6.15774182 64.1875 -4.375 64.1875 C-3.30059451 59.23988868 -3.30059451 59.23988868 -4.5 54.4375 C-7.72203432 50.57105881 -10.76994065 49.23774574 -15.625 48.375 C-23.67544871 46.72740401 -29.64202606 41.88714749 -34.22265625 35.1875 C-37.43211861 29.61717889 -38.22891075 23.49168063 -37.375 17.1875 C-35.27499944 10.2177684 -31.85882532 5.56669778 -25.8125 1.4375 C-17.94563753 -2.59678845 -8.48480253 -0.96100203 0 0 Z " fill="#000000" transform="translate(123.375,107.8125)"/>
<path d="M0 0 C2.42681391 3.1063218 2.95101383 6.09962591 2.5625 10 C0.9375 12.875 0.9375 12.875 -2.4375 15 C-8.75555645 16.56112391 -14.94965521 17.03794724 -21.4375 17 C-21.43305878 17.74058151 -21.42861755 18.48116302 -21.42404175 19.2441864 C-21.38392228 26.23277642 -21.35349385 33.22134917 -21.33387566 40.21002483 C-21.32345059 43.80274568 -21.30931484 47.39537115 -21.28662109 50.98803711 C-21.26484697 54.45693203 -21.25292177 57.92573537 -21.24774551 61.39469337 C-21.24226666 63.35834908 -21.22666097 65.32196808 -21.21090698 67.28556824 C-21.21068039 69.08686943 -21.21068039 69.08686943 -21.21044922 70.92456055 C-21.206008 71.97935104 -21.20156677 73.03414154 -21.19699097 74.12089539 C-21.44931686 77.14145819 -22.09779868 79.29154345 -23.4375 82 C-26.0972357 84.16719206 -27.52587596 83.99534863 -31 83.8125 C-35.45762943 82.7588785 -35.45762943 82.7588785 -37.4375 80 C-37.79826355 77.32344055 -37.79826355 77.32344055 -37.77807617 74.05981445 C-37.77784958 72.83877518 -37.77762299 71.6177359 -37.77738953 70.35969543 C-37.76190567 69.04087875 -37.74642181 67.72206207 -37.73046875 66.36328125 C-37.72487243 64.99993862 -37.7206025 63.63658996 -37.71760559 62.27323914 C-37.70615949 58.68756408 -37.67669486 55.10225446 -37.64349365 51.51672363 C-37.61278739 47.8569025 -37.5990991 44.19702223 -37.58398438 40.53710938 C-37.55182449 33.35790644 -37.50063153 26.17900446 -37.4375 19 C-38.32228027 19.14655029 -39.20706055 19.29310059 -40.11865234 19.4440918 C-41.28348145 19.63140869 -42.44831055 19.81872559 -43.6484375 20.01171875 C-44.80134277 20.19951904 -45.95424805 20.38731934 -47.14208984 20.58081055 C-51.85489245 21.18029803 -56.23020367 21.42406215 -60.375 18.75 C-61.78649329 16.42518752 -62.24316 14.72075998 -62.4375 12 C-61.5013375 8.90346249 -60.73326678 7.29576678 -58.4375 5 C-56.0246582 4.44189453 -56.0246582 4.44189453 -52.92578125 4.0078125 C-51.7548291 3.84313477 -50.58387695 3.67845703 -49.37744141 3.50878906 C-42.90415947 2.67285403 -36.42772266 1.87897121 -29.94262695 1.14013672 C-27.61021297 0.87330836 -25.27876457 0.59891456 -22.94726562 0.32421875 C-21.43755266 0.1505832 -19.9277887 -0.02260969 -18.41796875 -0.1953125 C-17.73445847 -0.27653351 -17.05094818 -0.35775452 -16.34672546 -0.44143677 C-4.34785 -1.78373333 -4.34785 -1.78373333 0 0 Z " fill="#000000" transform="translate(423.4375,106)"/>
<path d="M0 0 C1.15306641 0.03625488 2.30613281 0.07250977 3.49414062 0.10986328 C5.37649414 0.20823486 5.37649414 0.20823486 7.296875 0.30859375 C8.63216076 0.37094605 9.96744723 0.43328295 11.30273438 0.49560547 C14.83121078 0.67163337 18.35667312 0.88295103 21.88232422 1.1081543 C24.0580002 1.24680272 26.23400988 1.37872833 28.41015625 1.50976562 C48.47413826 2.73771519 48.47413826 2.73771519 52.359375 5.43359375 C54.82556119 9.09309583 55.08385733 10.98019092 54.296875 15.30859375 C51.44377529 18.3396751 49.83739408 19.2451744 45.66796875 19.734375 C44.36988281 19.69699219 43.07179687 19.65960938 41.734375 19.62109375 C40.43371094 19.59660156 39.13304687 19.57210937 37.79296875 19.546875 C35.07266789 19.36146902 32.8909482 19.01496945 30.296875 18.30859375 C30.30575745 19.04917526 30.31463989 19.78975677 30.3237915 20.55278015 C30.40402965 27.54130181 30.46488624 34.52975438 30.50412369 41.51861858 C30.5249747 45.11148968 30.55324549 48.7039793 30.59863281 52.29663086 C30.64218141 55.76555427 30.66603081 59.2341114 30.67638397 62.70328712 C30.6873422 64.66703508 30.71855425 66.63063622 30.75006104 68.59416199 C30.75036316 69.79502945 30.75066528 70.99589691 30.75097656 72.2331543 C30.75985901 73.28794479 30.76874146 74.34273529 30.77789307 75.42948914 C30.17382059 79.04512848 28.8263958 80.7042287 26.296875 83.30859375 C22.82233366 84.77155852 21.57606842 84.42134494 18.046875 82.99609375 C15.296875 81.30859375 15.296875 81.30859375 14.296875 79.30859375 C14.2055084 77.3375283 14.17935532 75.36331459 14.18334961 73.39013672 C14.18342514 72.14900116 14.18350067 70.9078656 14.18357849 69.62911987 C14.1886855 68.26967326 14.1939015 66.91022706 14.19921875 65.55078125 C14.20108358 64.16358491 14.20250718 62.77638791 14.20350647 61.38919067 C14.20732652 57.73624863 14.21715245 54.08334627 14.22821045 50.43041992 C14.23843556 46.70361874 14.24300645 42.97681116 14.24804688 39.25 C14.25877517 31.93617981 14.27584546 24.62239234 14.296875 17.30859375 C13.08559937 17.32273315 13.08559937 17.32273315 11.84985352 17.3371582 C10.24775024 17.34815552 10.24775024 17.34815552 8.61328125 17.359375 C7.03075562 17.3735144 7.03075562 17.3735144 5.41625977 17.38793945 C0.63381976 17.26629173 -4.52966069 16.9880889 -8.421875 13.98046875 C-10.24331892 11.60370657 -10.11503343 9.25656212 -10.19921875 6.34375 C-8.88145977 0.93782535 -5.04742839 -0.18982264 0 0 Z " fill="#000000" transform="translate(159.703125,111.69140625)"/>
</svg>
