<?xml version="1.0" encoding="UTF-8"?>
<svg version="1.1" xmlns="http://www.w3.org/2000/svg" width="512" height="512">
<path d="M0 0 C1.00988731 -0.01708511 1.00988731 -0.01708511 2.04017639 -0.03451538 C9.09586419 -0.14529781 16.15260975 -0.1926267 23.20898438 -0.23535156 C26.55683775 -0.25761155 29.90357359 -0.29934923 33.25097656 -0.35839844 C37.29175065 -0.42954373 41.33147454 -0.46619183 45.37284279 -0.47846985 C46.91148458 -0.48886379 48.45009505 -0.51127315 49.98837852 -0.54606628 C62.03067761 -0.80429251 62.03067761 -0.80429251 65.83413696 1.76147461 C67.88712259 4.10340626 69.17263189 6.45805674 70.5559082 9.22460938 C71.25668488 9.23047562 71.95746155 9.23634186 72.67947388 9.24238586 C79.30008585 9.30041201 85.92037861 9.37254496 92.54066658 9.46032429 C95.94383477 9.50495514 99.34688527 9.54422667 102.75024414 9.57104492 C106.66749388 9.60215167 110.58424396 9.6569383 114.5012207 9.71289062 C115.71705841 9.71928055 116.93289612 9.72567047 118.18557739 9.73225403 C129.00158381 9.91993543 129.00158381 9.91993543 133.5559082 13.22460938 C137.58275973 19.80843507 139.94610859 27.28048456 142.6809082 34.47460938 C154.85526728 66.01219268 172.01323387 94.96182911 194.5559082 120.22460938 C195.01739258 120.74249023 195.47887695 121.26037109 195.9543457 121.79394531 C205.18296483 132.09966156 214.67774008 141.64423612 225.5559082 150.22460938 C226.52012695 151.00578125 227.4843457 151.78695312 228.4777832 152.59179688 C260.97260802 178.40621354 300.16198753 195.15111221 340.8918457 202.49804688 C344.5559082 203.22460938 344.5559082 203.22460938 345.5559082 204.22460938 C345.66586917 206.2944895 345.70503669 208.36815386 345.71704102 210.44091797 C345.72200592 211.08973434 345.72697083 211.73855072 345.73208618 212.4070282 C345.74674097 214.56237839 345.75351551 216.71765496 345.7590332 218.87304688 C345.76478227 220.36658735 345.77054003 221.8601278 345.77630615 223.35366821 C345.78682581 226.48936305 345.79266203 229.62503218 345.79614258 232.76074219 C345.80162709 236.78160367 345.82564979 240.80212646 345.85411453 244.8228817 C345.87272647 247.90950517 345.87794574 250.99604686 345.87947845 254.08272171 C345.88250919 255.56511918 345.8905519 257.04751506 345.90366364 258.52985764 C345.9206936 260.60333847 345.91885193 262.67598959 345.91235352 264.74951172 C345.91599915 265.93008148 345.91964478 267.11065125 345.92340088 268.32699585 C345.5559082 271.22460938 345.5559082 271.22460938 344.45916653 272.88106751 C341.5907264 274.90594734 339.22133534 274.60849649 335.73628235 274.61889267 C335.0354413 274.62505057 334.33460025 274.63120847 333.61252159 274.63755298 C331.24624451 274.65461892 328.8804882 274.65018479 326.51416016 274.64593506 C324.8076123 274.6536829 323.10106989 274.66272151 321.39453506 274.67294526 C316.6908694 274.69720305 311.98734094 274.7025266 307.28362012 274.70473766 C302.21589281 274.71028127 297.14823717 274.73291952 292.08055115 274.75314331 C280.99151088 274.79393206 269.90250308 274.81197437 258.81340027 274.82517529 C251.89028227 274.83345791 244.96717687 274.84616929 238.04406738 274.85968781 C218.87992135 274.89627445 199.71578543 274.92716836 180.55160522 274.93731308 C179.3244191 274.93797178 178.09723298 274.93863048 176.8328594 274.93930914 C175.60271033 274.93996397 174.37256127 274.9406188 173.10513496 274.94129348 C170.6123263 274.94262388 168.11951764 274.94396357 165.62670898 274.9453125 C164.39018577 274.94597679 163.15366256 274.94664108 161.87966895 274.9473255 C141.85060724 274.95916547 121.82187326 275.01151121 101.79293811 275.08139107 C81.23446133 275.1525398 60.67614893 275.18991911 40.11754704 275.19341683 C28.5727003 275.19616708 17.02828023 275.21342199 5.48355103 275.26787567 C-4.349316 275.31409072 -14.1816246 275.32943405 -24.01457959 275.30466136 C-29.03094412 275.2929441 -34.04618435 275.29571333 -39.06241035 275.3378334 C-43.65873996 275.37607413 -48.25310164 275.37244544 -52.84942877 275.33606127 C-54.50835828 275.33019342 -56.16742751 275.33941363 -57.82616079 275.36559436 C-67.57702627 275.50970145 -73.88885723 274.53188703 -81.28962326 267.47198319 C-82.00059788 266.73034983 -82.71157249 265.98871647 -83.4440918 265.22460938 C-84.62818803 264.13755673 -85.81486457 263.05329079 -87.0065918 261.97460938 C-96.17795694 252.44879534 -105.32071701 241.29610879 -105.67874146 227.54216003 C-105.70468384 226.60329956 -105.73062622 225.66443909 -105.75735474 224.6971283 C-105.78046722 223.67261063 -105.80357971 222.64809296 -105.82739258 221.5925293 C-105.85484558 220.50676605 -105.88229858 219.42100281 -105.9105835 218.30233765 C-106.1535359 208.13095397 -106.29674099 197.95783802 -106.40703011 187.78423595 C-106.48249466 180.98493054 -106.59099698 174.18999405 -106.78149414 167.39282227 C-107.74434814 132.11017058 -104.88319336 103.41988484 -90.52642822 71.00247192 C-87.67688484 64.55068792 -85.32070561 57.95133176 -82.9519043 51.31054688 C-82.2047563 49.29728161 -81.45365263 47.28547851 -80.69799805 45.27539062 C-79.21719411 41.32998427 -77.74440089 37.3817254 -76.27612305 33.43164062 C-75.54354262 31.47442497 -74.81049229 29.51738511 -74.0769043 27.56054688 C-73.58953293 26.24550674 -73.58953293 26.24550674 -73.09231567 24.90390015 C-68.77094391 13.45318447 -68.77094391 13.45318447 -62.4440918 10.22460938 C-59.86869812 9.82588196 -59.86869812 9.82588196 -57.10302734 9.79223633 C-56.0623259 9.77244217 -55.02162445 9.75264801 -53.9493866 9.73225403 C-52.28194145 9.72266914 -52.28194145 9.72266914 -50.58081055 9.71289062 C-49.43369095 9.69493942 -48.28657135 9.67698822 -47.10469055 9.65849304 C-43.44702816 9.60438538 -39.78949633 9.57049187 -36.1315918 9.53710938 C-33.64915176 9.50393682 -31.16672894 9.46944722 -28.68432617 9.43359375 C-22.60436511 9.34865847 -16.52438717 9.28031031 -10.4440918 9.22460938 C-10.23913086 8.65871094 -10.03416992 8.0928125 -9.82299805 7.50976562 C-9.55358398 6.77628906 -9.28416992 6.0428125 -9.0065918 5.28710938 C-8.73975586 4.55621094 -8.47291992 3.8253125 -8.19799805 3.07226562 C-6.57883005 -0.89595439 -4.00934842 0.06192477 0 0 Z M-61.28656006 28.94766235 C-62.48687464 31.30876627 -63.53403561 33.62918132 -64.46533203 36.10986328 C-65.01621742 37.56255112 -65.01621742 37.56255112 -65.57823181 39.04458618 C-66.15958641 40.6070961 -66.15958641 40.6070961 -66.75268555 42.20117188 C-67.16067886 43.2815976 -67.56867218 44.36202332 -67.98902893 45.47518921 C-69.29266316 48.93106342 -70.58737982 52.39019688 -71.8815918 55.84960938 C-73.17412083 59.28686317 -74.46846888 62.72342623 -75.76344299 66.15975952 C-76.56780404 68.29613216 -77.37042797 70.43315994 -78.17100525 72.57095337 C-80.25511396 78.12640451 -82.40050441 83.64392446 -84.68251038 89.12142944 C-85.72039356 91.98764312 -85.94498327 94.21926051 -85.4440918 97.22460938 C-84.53703376 99.50463346 -84.53703376 99.50463346 -82.4440918 101.22460938 C-79.51192133 101.60564274 -76.95682223 101.73062364 -74.02539062 101.67871094 C-73.16663834 101.67929504 -72.30788605 101.67987915 -71.42311096 101.68048096 C-68.58203842 101.67769217 -65.7420125 101.64656304 -62.90112305 101.61523438 C-60.93243483 101.6077748 -58.96373919 101.60208053 -56.99504089 101.5980835 C-51.81136606 101.58280484 -46.62813895 101.54350371 -41.44464111 101.49926758 C-36.15610817 101.45836303 -30.86750293 101.44008277 -25.57885742 101.41992188 C-15.20040541 101.3770117 -4.82228582 101.30873331 5.5559082 101.22460938 C8.78897933 84.10826741 12.01575784 66.99255907 14.99926758 49.83056641 C15.45019527 47.23875237 15.90528904 44.64768869 16.3605957 42.05664062 C16.65249716 40.38610872 16.94417419 38.71553757 17.2355957 37.04492188 C17.36988983 36.28067902 17.50418396 35.51643616 17.64254761 34.72903442 C18.31695089 30.998685 18.31695089 30.998685 18.5559082 27.22460938 C8.43786213 27.13200721 -1.68008346 27.06089421 -11.79846668 27.01736069 C-16.49665587 26.99646871 -21.19455557 26.96812191 -25.89257812 26.92285156 C-30.42483561 26.87945089 -34.95681432 26.8554844 -39.48926353 26.8451004 C-41.22009357 26.8376986 -42.95090801 26.8232448 -44.68161964 26.80168915 C-47.10253727 26.77273111 -49.52229696 26.76865005 -51.94335938 26.77050781 C-52.66193115 26.75612671 -53.38050293 26.74174561 -54.12084961 26.72692871 C-57.2231805 26.75275841 -58.97086467 26.78205336 -61.28656006 28.94766235 Z M32.5559082 27.22460938 C29.32283707 44.34095134 26.09605857 61.45665968 23.11254883 78.61865234 C22.66162113 81.21046638 22.20652736 83.80153006 21.7512207 86.39257812 C21.45931925 88.06311003 21.16764222 89.73368118 20.8762207 91.40429688 C20.67477951 92.55066116 20.67477951 92.55066116 20.4692688 93.72018433 C19.79486551 97.45053375 19.79486551 97.45053375 19.5559082 101.22460938 C33.40331357 101.29475412 47.2506913 101.34742469 61.09823799 101.38004589 C67.52820116 101.39570234 73.95804497 101.41694061 80.38793945 101.45092773 C86.59302824 101.48352136 92.79800222 101.50146254 99.00317001 101.5092411 C101.3706531 101.51478456 103.7381299 101.5256095 106.10556412 101.54179955 C109.42134435 101.56357337 112.73665002 101.56657625 116.05249023 101.56518555 C117.52092628 101.58136429 117.52092628 101.58136429 119.01902771 101.59786987 C124.27194637 101.57402671 128.03975142 101.2347982 132.5559082 98.22460938 C137.68513555 87.96615468 132.0000785 73.79019418 128.7383728 63.87533569 C127.54746615 60.34036149 126.33325907 56.81391674 125.1184082 53.28710938 C124.30573174 50.86399444 123.49516717 48.44017014 122.68676758 46.015625 C121.21358598 41.62534301 119.73611302 37.23676587 118.22998047 32.85766602 C117.78030663 31.54772423 117.78030663 31.54772423 117.32154846 30.21131897 C116.72207042 28.25559526 116.72207042 28.25559526 115.5559082 27.22460938 C112.96951782 27.12953116 110.4099226 27.09904562 107.82324219 27.11108398 C107.0135498 27.11093796 106.20385742 27.11079193 105.36962891 27.11064148 C102.68039312 27.11134084 99.99122571 27.11913428 97.30200195 27.12695312 C95.44255104 27.12881722 93.58309965 27.13024116 91.72364807 27.13124084 C86.81961725 27.13506667 81.91561585 27.14489749 77.01159668 27.15594482 C72.01139728 27.16615757 67.01119314 27.17073817 62.01098633 27.17578125 C52.192614 27.18651971 42.37426354 27.20359689 32.5559082 27.22460938 Z M160.5559082 105.22460938 C160.13711105 115.44646772 159.81819915 125.66625984 159.62328911 135.89497757 C159.52968355 140.64630167 159.40302861 145.39172357 159.19799805 150.13964844 C157.40224913 169.72010575 157.40224913 169.72010575 162.26693726 188.09143066 C166.30436461 192.28215019 170.85305128 194.5621398 176.31486511 196.41192627 C179.73173576 197.65100688 182.56046411 199.52138762 185.6184082 201.47460938 C188.40739676 203.3484977 188.40739676 203.3484977 191.5559082 204.22460938 C191.88272584 196.12255984 192.13020898 188.02333333 192.28127861 179.91628838 C192.35385444 176.14996847 192.451934 172.38820678 192.61206055 168.62451172 C194.16595925 149.69350301 194.16595925 149.69350301 186.72622681 133.25491333 C184.35597109 131.12063766 181.89894508 129.2503852 179.25358582 127.47160339 C176.55549928 125.48977966 174.69366509 123.0931161 172.6184082 120.47460938 C171.92875977 119.60707031 171.23911133 118.73953125 170.52856445 117.84570312 C167.86787027 114.31040451 165.33577405 110.69788192 162.8684082 107.02539062 C162.4352832 106.43113281 162.0021582 105.836875 161.5559082 105.22460938 C161.2259082 105.22460938 160.8959082 105.22460938 160.5559082 105.22460938 Z M201.5559082 150.22460938 C201.5559082 169.69460937 201.5559082 189.16460937 201.5559082 209.22460938 C214.16118039 216.56722408 214.16118039 216.56722408 228.5559082 220.22460938 C228.96450909 213.18319301 229.24288248 206.14485943 229.43481445 199.09423828 C229.51486371 196.70147564 229.62375773 194.30948576 229.76293945 191.91943359 C230.98140849 178.92738731 230.98140849 178.92738731 227.02044678 166.98083496 C223.3233556 163.25122707 219.11646086 160.67159628 214.47543335 158.27093506 C211.78860787 156.80635695 209.51346352 154.94319879 207.1809082 152.97460938 C204.67454418 150.74117483 204.67454418 150.74117483 201.5559082 150.22460938 Z M-78.8190918 175.91210938 C-81.52853847 181.4352122 -82.05727547 185.96349458 -80.4440918 191.91210938 C-77.50340681 196.78261889 -73.89817133 200.40658286 -68.4440918 202.22460938 C-62.45489125 202.8117859 -58.34928064 201.53028011 -53.4440918 198.22460938 C-48.80103226 193.34344422 -48.08681166 189.25760331 -48.1628418 182.72851562 C-48.7193391 177.77414382 -51.4670277 175.08535631 -55.0690918 171.91210938 C-63.2127924 166.12579579 -72.52882451 168.79417534 -78.8190918 175.91210938 Z M87.2434082 175.84960938 C83.92355328 180.52199778 83.95757897 184.60368541 84.5559082 190.22460938 C86.31647601 195.56667512 89.70150623 198.53919552 94.5559082 201.22460938 C99.17689935 202.76493976 103.00360116 202.76316488 107.6184082 201.16210938 C112.14578282 198.17596867 115.65796683 195.14173109 117.29418945 189.82617188 C118.10685078 184.49051673 117.52735238 180.58400338 114.80200195 175.91601562 C112.24467103 172.44477961 109.60691512 170.57494501 105.5559082 169.22460938 C97.45590575 168.37417883 92.78651579 169.5574332 87.2434082 175.84960938 Z M238.5559082 175.22460938 C238.5559082 191.39460938 238.5559082 207.56460938 238.5559082 224.22460938 C244.18555578 226.67452222 244.18555578 226.67452222 249.88793945 228.61132812 C250.99105469 228.93520508 250.99105469 228.93520508 252.11645508 229.265625 C252.85959961 229.47896484 253.60274414 229.69230469 254.3684082 229.91210938 C255.13088867 230.13705078 255.89336914 230.36199219 256.67895508 230.59375 C260.55279851 231.79365011 260.55279851 231.79365011 264.5559082 232.22460938 C264.5559082 217.70460938 264.5559082 203.18460938 264.5559082 188.22460938 C259.2759082 185.58460938 253.9959082 182.94460938 248.5559082 180.22460938 C245.2559082 178.57460938 241.9559082 176.92460937 238.5559082 175.22460938 Z M272.5559082 192.22460938 C272.5559082 206.08460938 272.5559082 219.94460938 272.5559082 234.22460938 C286.6156232 238.4267224 286.6156232 238.4267224 293.5559082 238.22460938 C293.5559082 225.68460938 293.5559082 213.14460937 293.5559082 200.22460938 C286.60093534 197.44262023 279.59565171 194.7845161 272.5559082 192.22460938 Z M300.5559082 202.22460938 C300.5559082 214.76460937 300.5559082 227.30460938 300.5559082 240.22460938 C306.8259082 241.21460938 313.0959082 242.20460938 319.5559082 243.22460938 C319.5559082 231.34460938 319.5559082 219.46460938 319.5559082 207.22460938 C313.2859082 205.57460938 307.0159082 203.92460937 300.5559082 202.22460938 Z M324.5559082 209.22460938 C324.5312563 214.04841739 324.51307128 218.87218904 324.50097656 223.69604492 C324.49593646 225.33830402 324.48910442 226.98055861 324.48046875 228.62280273 C324.46838895 230.97836416 324.46267682 233.33386646 324.45825195 235.68945312 C324.45309067 236.42800034 324.44792938 237.16654755 324.44261169 237.92747498 C324.4424157 239.69359025 324.49396102 241.45958083 324.5559082 243.22460938 C327.88924154 246.55794271 333.85574828 244.86305861 338.5559082 245.22460938 C338.5559082 234.00460937 338.5559082 222.78460938 338.5559082 211.22460938 C329.60186092 209.09386528 329.60186092 209.09386528 324.5559082 209.22460938 Z " fill="#323232" transform="translate(135.444091796875,81.775390625)"/>
<path d="M0 0 C14.52 0 29.04 0 44 0 C44 7.26 44 14.52 44 22 C82.94 22 121.88 22 162 22 C162 14.74 162 7.48 162 0 C246.15 0 330.3 0 417 0 C417 4.29 417 8.58 417 13 C415.99662598 13.01981934 414.99325195 13.03963867 413.95947266 13.06005859 C322.81293551 10.68524161 322.81293551 10.68524161 241.48170471 41.07404518 C236.4158606 44.89225942 231.92126083 44.82612904 225.74975586 44.7215271 C224.07953873 44.72921692 224.07953873 44.72921692 222.37557983 44.7370621 C218.65474003 44.74692354 214.93553331 44.71397925 211.21484375 44.68115234 C208.54370985 44.67945945 205.87267513 44.68014669 203.20155334 44.68380737 C197.45621931 44.68694752 191.71129535 44.66818597 185.96606445 44.63438034 C177.65958593 44.58553594 169.3533049 44.56998334 161.04669833 44.56245239 C147.56861759 44.54933342 134.09075521 44.50943869 120.61279297 44.45263672 C107.52328582 44.39752936 94.43383807 44.35507512 81.34423828 44.32958984 C80.53686427 44.3280135 79.72949025 44.32643716 78.89765036 44.32481305 C74.8471325 44.3169826 70.79661422 44.30940041 66.74609566 44.30194163 C33.16389887 44.23978115 -0.41800846 44.13248144 -34 44 C-34 36.74 -34 29.48 -34 22 C-22.78 22 -11.56 22 0 22 C0 14.74 0 7.48 0 0 Z " fill="#323232" transform="translate(64,385)"/>
</svg>
