<?xml version="1.0" encoding="UTF-8"?>
<svg version="1.1" xmlns="http://www.w3.org/2000/svg" width="500" height="500">
<path d="M0 0 C17.04707596 14.64621793 30.16668574 31.69482653 41.46484375 51.02734375 C42.0784375 52.04957031 42.69203125 53.07179688 43.32421875 54.125 C66.29006977 95.79011045 66.10876039 145.83849139 53.4296875 190.33203125 C52.77733274 192.56456145 52.12272866 194.79643692 51.46484375 197.02734375 C51.12864014 198.19765137 51.12864014 198.19765137 50.78564453 199.39160156 C41.72170933 230.66647187 25.0920734 260.65770139 8.80761719 288.70019531 C7.66440214 290.68149092 6.54411628 292.671785 5.44140625 294.67578125 C1.07799918 302.54515732 -3.700714 310.12773943 -8.53515625 317.71484375 C-9.2000708 318.76075684 -9.86498535 319.80666992 -10.55004883 320.88427734 C-14.4373995 326.93976666 -18.50332942 332.80713443 -22.77148438 338.59985352 C-24.91349914 341.54808896 -26.85874937 344.55912946 -28.78515625 347.65234375 C-35.77153742 358.69478085 -43.26354971 369.42021598 -51.5546875 379.5234375 C-53.93264567 382.52988954 -56.14196886 385.64413873 -58.34765625 388.77734375 C-62.56880039 394.75824102 -66.99918837 400.53290545 -71.5546875 406.26171875 C-73.70139053 408.96224661 -75.81869003 411.68341252 -77.921875 414.41796875 C-84.33419517 422.74910362 -90.875554 430.89824033 -97.7734375 438.83203125 C-103.20460292 445.08288807 -108.36856488 451.55757197 -113.53515625 458.02734375 C-117.71131103 457.71187882 -119.65059454 456.31465163 -122.42773438 453.23266602 C-122.87568359 452.71115967 -123.32363281 452.18965332 -123.78515625 451.65234375 C-124.26404297 451.112146 -124.74292969 450.57194824 -125.23632812 450.01538086 C-129.01413541 445.72144884 -132.65016928 441.31185242 -136.234375 436.85546875 C-138.27311401 434.34944661 -140.35849191 431.89194829 -142.4675293 429.44506836 C-148.01254844 422.99566081 -153.16047654 416.31287344 -158.22265625 409.48046875 C-162.00654064 404.37500709 -165.86507632 399.32721766 -169.72265625 394.27734375 C-178.11342644 383.27914984 -186.43206166 372.24017859 -194.53515625 361.02734375 C-195.01984375 360.36863281 -195.50453125 359.70992188 -196.00390625 359.03125 C-198.04541005 356.23663046 -199.91817032 353.42412152 -201.59765625 350.40234375 C-203.39132773 347.05919882 -203.39132773 347.05919882 -205.59765625 344.52734375 C-207.48894201 342.08697503 -208.52859493 339.76253577 -209.70727539 336.93164062 C-211.03719814 333.87254376 -212.63055754 330.95532325 -214.22265625 328.02734375 C-214.93383711 326.70976675 -215.64476734 325.39205443 -216.35546875 324.07421875 C-216.71672852 323.40583984 -217.07798828 322.73746094 -217.45019531 322.04882812 C-218.50993088 320.07434332 -219.55277495 318.09193866 -220.58984375 316.10546875 C-226.45421083 304.89719006 -233.17045535 294.45912257 -240.40625 284.09375 C-242.6812755 280.8168784 -244.89409579 277.5046754 -247.0859375 274.171875 C-248.0734652 272.71054694 -249.09343515 271.2707468 -250.140625 269.8515625 C-259.27813614 257.4103288 -265.34625361 243.49717875 -271.28515625 229.33984375 C-271.55942444 228.68738678 -271.83369263 228.03492981 -272.11627197 227.36270142 C-292.00824724 179.8628722 -300.54463584 131.1423916 -285.53515625 81.02734375 C-285.34195801 80.36154297 -285.14875977 79.69574219 -284.94970703 79.00976562 C-276.27824906 49.40282384 -255.93546976 19.03744994 -231.53515625 0.02734375 C-230.13716797 -1.09220703 -230.13716797 -1.09220703 -228.7109375 -2.234375 C-161.35907791 -55.61696001 -66.48727904 -55.07672911 0 0 Z " fill="#0E8EEB" transform="translate(366.53515625,41.97265625)"/>
<path d="M0 0 C5.25878662 5.25878662 4.28273664 15.46842285 4.4609375 22.41015625 C3.29018246 31.52815527 -2.45542464 39.36914265 -7.28515625 46.98242188 C-9.7971027 51.13627403 -11.93243323 54.81707072 -11.55761719 59.86010742 C-10.30297814 64.67486718 -7.60073168 68.80668544 -5 73 C-4.47792969 73.84755859 -3.95585937 74.69511719 -3.41796875 75.56835938 C-1.80201755 78.14465874 -0.15531583 80.6988355 1.5 83.25 C6.70940039 91.35429528 11.8096252 99.51653436 16.8125 107.75 C17.41707031 108.74418945 18.02164063 109.73837891 18.64453125 110.76269531 C24.12965412 119.81251319 24.12965412 119.81251319 24.0625 126.125 C24.05347656 127.22070312 24.04445313 128.31640625 24.03515625 129.4453125 C24.01775391 130.70988281 24.01775391 130.70988281 24 132 C22.19824219 132.65625 22.19824219 132.65625 20 133 C18.38769531 132.03125 18.38769531 132.03125 16.828125 130.5 C16.25070557 129.94642822 15.67328613 129.39285645 15.07836914 128.82250977 C14.47500732 128.22108154 13.87164551 127.61965332 13.25 127 C11.98381942 125.77917321 10.7168991 124.55911314 9.44921875 123.33984375 C8.8464209 122.75315918 8.24362305 122.16647461 7.62255859 121.56201172 C5.82225483 119.82888751 3.96652307 118.18070945 2.0625 116.5625 C-1.89511489 113.15194203 -5.68971386 109.57295445 -9.5 106 C-17.10447743 98.83709016 -17.10447743 98.83709016 -25 92 C-25.62519531 91.44699219 -26.25039063 90.89398438 -26.89453125 90.32421875 C-29.53872543 88.66117269 -30.92973634 88.47283231 -34 89 C-35.84994756 90.53134418 -35.84994756 90.53134418 -37.3125 92.75 C-38.21548828 93.99910156 -38.21548828 93.99910156 -39.13671875 95.2734375 C-41.66106059 98.96733813 -44.16653479 102.66827498 -46.6015625 106.421875 C-48.44677534 109.22945479 -50.40561907 111.93600736 -52.3984375 114.640625 C-52.99188965 115.46256348 -53.5853418 116.28450195 -54.19677734 117.13134766 C-55.37389122 118.7591626 -56.56889329 120.37423231 -57.78369141 121.97412109 C-61.23841696 126.80992087 -62.88359398 130.50421658 -62.4921875 136.50927734 C-61.62254292 140.91012752 -59.65393759 144.59962653 -57.5 148.5 C-53.770668 155.25311471 -52.33767151 160.24012672 -53 168 C-54.81323242 168.64697266 -54.81323242 168.64697266 -57 169 C-59.295203 167.19384025 -61.26654358 165.4328377 -63.3125 163.375 C-67.64269971 159.11157679 -71.97112638 155.42906718 -77 152 C-77.12366943 152.88123535 -77.24733887 153.7624707 -77.37475586 154.67041016 C-77.96054767 157.78990594 -78.78900388 160.35259959 -80.00390625 163.2734375 C-80.41068604 164.25505859 -80.81746582 165.23667969 -81.23657227 166.24804688 C-81.67412842 167.27994141 -82.11168457 168.31183594 -82.5625 169.375 C-83.01359131 170.44556641 -83.46468262 171.51613281 -83.92944336 172.61914062 C-87.61409078 181.27237086 -91.57650875 189.70297677 -96 198 C-96.33821777 198.64839844 -96.67643555 199.29679688 -97.02490234 199.96484375 C-104.3075734 213.87274604 -113.28431136 226.36374087 -124.00390625 237.84765625 C-125.83546335 239.82258377 -127.53916985 241.85856947 -129.25 243.9375 C-139.38509492 255.49057838 -155.45078674 268.59319777 -170 274 C-174.34981063 272.55006312 -175.24172627 269.25562088 -177.1875 265.375 C-177.99068979 263.81760743 -178.79407905 262.26031771 -179.59765625 260.703125 C-180.2011792 259.52073242 -180.2011792 259.52073242 -180.81689453 258.31445312 C-187.65248358 244.94231442 -195.26936638 232.39628119 -203.86328125 220.07421875 C-217 201.17367459 -217 201.17367459 -217 199 C-215.998479 199.01571045 -214.99695801 199.0314209 -213.96508789 199.04760742 C-210.16113705 199.10292391 -206.35721955 199.13670967 -202.55297852 199.16479492 C-200.92303442 199.17965472 -199.29312859 199.19994836 -197.66333008 199.22631836 C-163.42812579 199.76537221 -131.27873181 188.60624721 -106.19140625 164.8828125 C-104 163 -104 163 -101.83984375 161.9921875 C-99.45216733 160.70456582 -99.13061164 159.4327947 -98 157 C-95.99590271 154.63524717 -93.89118201 152.38783171 -91.77734375 150.12109375 C-89.80734668 148.03357773 -89.80734668 148.03357773 -89 145 C-89.65073486 144.88930176 -90.30146973 144.77860352 -90.97192383 144.66455078 C-93.92010602 144.15875714 -96.86626535 143.64201193 -99.8125 143.125 C-100.83666016 142.95097656 -101.86082031 142.77695313 -102.91601562 142.59765625 C-103.89892578 142.42363281 -104.88183594 142.24960938 -105.89453125 142.0703125 C-106.80050049 141.91320801 -107.70646973 141.75610352 -108.63989258 141.59423828 C-111 141 -111 141 -114 139 C-113.9375 137.1875 -113.9375 137.1875 -113 135 C-106.02391405 131.30277174 -98.32711921 130.35809531 -90.62890625 128.98242188 C-89.59378906 128.78326172 -88.55867187 128.58410156 -87.4921875 128.37890625 C-86.55745605 128.2094751 -85.62272461 128.04004395 -84.65966797 127.86547852 C-80.67773345 126.56972325 -77.99247084 124.9346617 -76.03106689 121.11122131 C-75.07871083 118.73850258 -74.24932566 116.35016808 -73.44921875 113.921875 C-73.14554886 113.03647034 -72.84187897 112.15106567 -72.52900696 111.23883057 C-71.8919213 109.36875122 -71.26286691 107.495919 -70.64135742 105.62060547 C-69.69304495 102.76668736 -68.71489813 99.92434418 -67.73242188 97.08203125 C-67.11537463 95.25842491 -66.50008225 93.43422365 -65.88671875 91.609375 C-65.45089729 90.34489532 -65.45089729 90.34489532 -65.00627136 89.05487061 C-63.29428353 83.82247135 -62.70782066 79.5051491 -63 74 C-68.26298555 71.96404015 -73.4962627 70.17675383 -78.9375 68.6875 C-79.69184326 68.47875244 -80.44618652 68.27000488 -81.22338867 68.05493164 C-89.12129465 65.90526653 -97.08785914 64.05016395 -105.05419922 62.17407227 C-112.47856472 60.40979251 -119.76637712 58.4447632 -127 56 C-126.2890625 51.21875 -126.2890625 51.21875 -123.6875 49.25 C-119.81751413 47.45000657 -116.4115732 46.8705355 -112.16577148 46.64282227 C-111.2063414 46.58929092 -110.24691132 46.53575958 -109.25840759 46.48060608 C-107.70543724 46.39932716 -107.70543724 46.39932716 -106.12109375 46.31640625 C-103.8964832 46.19207835 -101.67187386 46.06772865 -99.44726562 45.94335938 C-95.96597441 45.75342655 -92.484605 45.5650349 -89.00317383 45.37768555 C-72.06570949 44.45949316 -72.06570949 44.45949316 -55.16015625 43.08984375 C-54.39763046 43.02567764 -53.63510468 42.96151154 -52.84947205 42.895401 C-48.52900309 42.45034751 -45.38261336 41.78143533 -42 39 C-40.16604779 36.25393367 -40.16604779 36.25393367 -38.6953125 33.01171875 C-38.11136719 31.83029297 -37.52742187 30.64886719 -36.92578125 29.43164062 C-36.02430945 27.56437606 -35.12837671 25.69457109 -34.23486328 23.82348633 C-28.8210144 12.56524306 -24.00665813 6.65186671 -12.3125 2.0625 C-11.56677734 1.74732422 -10.82105469 1.43214844 -10.05273438 1.10742188 C-3.80546346 -1.41712204 -3.80546346 -1.41712204 0 0 Z " fill="#FCFDFE" transform="translate(330,106)"/>
<path d="M0 0 C2.42313509 3.63470264 3.12661907 7.16878047 4 11.375 C4.26055176 12.62518921 4.26055176 12.62518921 4.52636719 13.90063477 C5.77820168 20.2179365 6.63416547 26.52838879 7.25 32.9375 C7.36988281 34.17669189 7.36988281 34.17669189 7.4921875 35.44091797 C9.69964621 61.19971281 4.2299428 85.48305412 -3 110 C-3.22413574 110.78020508 -3.44827148 111.56041016 -3.67919922 112.36425781 C-12.74313442 143.63912812 -29.37277035 173.63035764 -45.65722656 201.67285156 C-46.80044161 203.65414717 -47.92072747 205.64444125 -49.0234375 207.6484375 C-53.38684457 215.51781357 -58.16555775 223.10039568 -63 230.6875 C-63.66491455 231.73341309 -64.3298291 232.77932617 -65.01489258 233.85693359 C-68.90224325 239.91242291 -72.96817317 245.77979068 -77.23632812 251.57250977 C-79.37834289 254.52074521 -81.32359312 257.53178571 -83.25 260.625 C-90.23638117 271.6674371 -97.72839346 282.39287223 -106.01953125 292.49609375 C-108.39748942 295.50254579 -110.60681261 298.61679498 -112.8125 301.75 C-117.03364414 307.73089727 -121.46403212 313.5055617 -126.01953125 319.234375 C-128.16623428 321.93490286 -130.28353378 324.65606877 -132.38671875 327.390625 C-138.79903892 335.72175987 -145.34039775 343.87089658 -152.23828125 351.8046875 C-157.66944667 358.05554432 -162.83340863 364.53022822 -168 371 C-169.65 370.67 -171.3 370.34 -173 370 C-172.26007813 369.43023437 -171.52015625 368.86046875 -170.7578125 368.2734375 C-163.5571172 362.33745355 -157.92135037 354.73222103 -152.23022461 347.38745117 C-149.06474491 343.31393667 -145.79649068 339.35246972 -142.4375 335.4375 C-137.59699123 329.77426589 -133.0130958 323.94012952 -128.51806641 317.99951172 C-126.74287144 315.66132472 -124.95564639 313.33256285 -123.16796875 311.00390625 C-116.05919015 301.73195215 -109.03622932 292.42697648 -102.31698608 282.86869812 C-100.99009451 280.9859449 -99.65690369 279.10780761 -98.32202148 277.23071289 C-91.16341083 267.15176487 -84.1683292 256.97466912 -77.3125 246.6875 C-76.79730804 245.91474731 -76.28211609 245.14199463 -75.75131226 244.3458252 C-58.14055214 217.88378397 -41.87171541 190.68159277 -28.00097656 162.05078125 C-26.91063239 159.81690538 -25.79500082 157.59650715 -24.6796875 155.375 C-14.39478508 134.62600857 -4.91220721 112.02204439 0.125 89.375 C0.37310425 88.28409058 0.37310425 88.28409058 0.6262207 87.17114258 C1.09059711 85.11546942 1.54580102 83.05794009 2 81 C2.21785156 80.04738281 2.43570313 79.09476562 2.66015625 78.11328125 C7.15727947 57.42651445 6.45066107 34.60330418 2 14 C1.60261602 12.04198074 1.20650795 10.08370141 0.8125 8.125 C0.65394531 7.40570313 0.49539063 6.68640625 0.33203125 5.9453125 C0 4 0 4 0 0 Z " fill="#ECF8FD" transform="translate(421,129)"/>
</svg>
