<?xml version="1.0" encoding="UTF-8"?>
<svg version="1.1" xmlns="http://www.w3.org/2000/svg" width="128" height="128">
<path d="M0 0 C0.90234375 -0.01546875 1.8046875 -0.0309375 2.734375 -0.046875 C6.63525997 -0.02379284 9.20596741 -0.00175065 12.546875 2.109375 C14.4064456 5.16866856 14.82441332 7.7034443 15.25 11.25 C15.39953125 12.42046875 15.5490625 13.5909375 15.703125 14.796875 C15.80109375 15.68890625 15.8990625 16.5809375 16 17.5 C18.65228005 18.29004087 20.28398008 18.72425853 23 18.5 C25.28701352 17.24920395 25.28701352 17.24920395 27.5 15.5625 C30.42337751 13.45529388 31.97534327 12.50562346 35.5625 11.6875 C40.64750159 12.88940947 43.43188903 15.81245436 47 19.5 C47.53367187 20.01304688 48.06734375 20.52609375 48.6171875 21.0546875 C51.00533082 23.5507695 51.98493374 25.42740804 52.6875 28.8125 C51.85385003 33.2838953 49.9151244 35.66521071 47.26953125 39.27734375 C45.86771488 41.73160072 45.69697071 42.81088316 46.125 45.5625 C46.41375 46.531875 46.7025 47.50125 47 48.5 C47.89203125 48.59796875 48.7840625 48.6959375 49.703125 48.796875 C50.87359375 48.94640625 52.0440625 49.0959375 53.25 49.25 C54.41015625 49.38921875 55.5703125 49.5284375 56.765625 49.671875 C60.58314952 50.64930881 61.889282 51.15973754 64 54.5 C64.57688467 57.84654319 64.55808286 61.11183298 64.5 64.5 C64.52320313 65.85351562 64.52320313 65.85351562 64.546875 67.234375 C64.52379284 71.13525997 64.50175065 73.70596741 62.390625 77.046875 C59.33133144 78.9064456 56.7965557 79.32441332 53.25 79.75 C52.07953125 79.89953125 50.9090625 80.0490625 49.703125 80.203125 C48.81109375 80.30109375 47.9190625 80.3990625 47 80.5 C46.20995913 83.15228005 45.77574147 84.78398008 46 87.5 C47.25079605 89.78701352 47.25079605 89.78701352 48.9375 92 C51.04470612 94.92337751 51.99437654 96.47534327 52.8125 100.0625 C51.61059053 105.14750159 48.68754564 107.93188903 45 111.5 C44.48695312 112.03367187 43.97390625 112.56734375 43.4453125 113.1171875 C40.9492305 115.50533082 39.07259196 116.48493374 35.6875 117.1875 C31.2161047 116.35385003 28.83478929 114.4151244 25.22265625 111.76953125 C22.76839928 110.36771488 21.68911684 110.19697071 18.9375 110.625 C17.968125 110.91375 16.99875 111.2025 16 111.5 C15.90203125 112.39203125 15.8040625 113.2840625 15.703125 114.203125 C15.55359375 115.37359375 15.4040625 116.5440625 15.25 117.75 C15.11078125 118.91015625 14.9715625 120.0703125 14.828125 121.265625 C13.85069119 125.08314952 13.34026246 126.389282 10 128.5 C6.65345681 129.07688467 3.38816702 129.05808286 0 129 C-1.35351562 129.02320313 -1.35351562 129.02320313 -2.734375 129.046875 C-6.63525997 129.02379284 -9.20596741 129.00175065 -12.546875 126.890625 C-14.4064456 123.83133144 -14.82441332 121.2965557 -15.25 117.75 C-15.39953125 116.57953125 -15.5490625 115.4090625 -15.703125 114.203125 C-15.85007812 112.86507812 -15.85007812 112.86507812 -16 111.5 C-18.65228005 110.70995913 -20.28398008 110.27574147 -23 110.5 C-25.28701352 111.75079605 -25.28701352 111.75079605 -27.5 113.4375 C-30.42337751 115.54470612 -31.97534327 116.49437654 -35.5625 117.3125 C-40.64750159 116.11059053 -43.43188903 113.18754564 -47 109.5 C-47.80050781 108.73042969 -47.80050781 108.73042969 -48.6171875 107.9453125 C-51.00533082 105.4492305 -51.98493374 103.57259196 -52.6875 100.1875 C-51.85385003 95.7161047 -49.9151244 93.33478929 -47.26953125 89.72265625 C-45.86771488 87.26839928 -45.69697071 86.18911684 -46.125 83.4375 C-46.41375 82.468125 -46.7025 81.49875 -47 80.5 C-47.89203125 80.40203125 -48.7840625 80.3040625 -49.703125 80.203125 C-50.87359375 80.05359375 -52.0440625 79.9040625 -53.25 79.75 C-54.41015625 79.61078125 -55.5703125 79.4715625 -56.765625 79.328125 C-60.58314952 78.35069119 -61.889282 77.84026246 -64 74.5 C-64.57688467 71.15345681 -64.55808286 67.88816702 -64.5 64.5 C-64.51546875 63.59765625 -64.5309375 62.6953125 -64.546875 61.765625 C-64.52379284 57.86474003 -64.50175065 55.29403259 -62.390625 51.953125 C-59.33133144 50.0935544 -56.7965557 49.67558668 -53.25 49.25 C-52.07953125 49.10046875 -50.9090625 48.9509375 -49.703125 48.796875 C-48.36507812 48.64992188 -48.36507812 48.64992188 -47 48.5 C-46.20995913 45.84771995 -45.77574147 44.21601992 -46 41.5 C-47.25079605 39.21298648 -47.25079605 39.21298648 -48.9375 37 C-51.04470612 34.07662249 -51.99437654 32.52465673 -52.8125 28.9375 C-51.61059053 23.85249841 -48.68754564 21.06811097 -45 17.5 C-44.23042969 16.69949219 -44.23042969 16.69949219 -43.4453125 15.8828125 C-40.9492305 13.49466918 -39.07259196 12.51506626 -35.6875 11.8125 C-31.2161047 12.64614997 -28.83478929 14.5848756 -25.22265625 17.23046875 C-22.76839928 18.63228512 -21.68911684 18.80302929 -18.9375 18.375 C-17.968125 18.08625 -16.99875 17.7975 -16 17.5 C-15.85304688 16.16195313 -15.85304688 16.16195313 -15.703125 14.796875 C-15.55359375 13.62640625 -15.4040625 12.4559375 -15.25 11.25 C-15.11078125 10.08984375 -14.9715625 8.9296875 -14.828125 7.734375 C-12.7194875 -0.50124695 -7.39185542 -0.12671752 0 0 Z M-21.59375 49.40234375 C-25.80455533 55.6834617 -26.99785651 62.00473692 -26 69.5 C-24.20981665 76.62876582 -21.00408802 82.17200538 -15 86.5 C-7.71618439 90.62545523 -0.5379396 91.90316611 7.60546875 89.83984375 C14.63652864 87.38269574 19.62343531 83.69601184 23.31640625 77.17578125 C26.81188187 69.41753049 27.24840924 62.3558377 24.4375 54.3125 C21.16121118 47.01531127 15.97730823 42.08274812 8.515625 39.1640625 C-3.5210906 35.98666863 -13.93780639 39.74213188 -21.59375 49.40234375 Z " fill="#3B3939" transform="translate(64,-0.5)"/>
</svg>
